<mxfile host="Electron" modified="2024-05-04T23:52:48.038Z" agent="Mozilla/5.0 (Windows NT 10.0; Win64; x64) AppleWebKit/537.36 (KHTML, like Gecko) draw.io/24.2.5 Chrome/120.0.6099.109 Electron/28.1.0 Safari/537.36" etag="7bi3oYqzNKag5rNQY6vt" version="24.2.5" type="device">
  <diagram name="Page-1" id="74e2e168-ea6b-b213-b513-2b3c1d86103e">
    <mxGraphModel dx="1077" dy="627" grid="1" gridSize="10" guides="1" tooltips="1" connect="1" arrows="1" fold="1" page="1" pageScale="1" pageWidth="4681" pageHeight="3300" background="none" math="0" shadow="0">
      <root>
        <mxCell id="0" />
        <mxCell id="1" parent="0" />
        <mxCell id="XcMSc3Dv5Vf1WdrxYV2J-293" value="" style="edgeStyle=orthogonalEdgeStyle;rounded=0;orthogonalLoop=1;jettySize=auto;html=1;exitX=0.75;exitY=1;exitDx=0;exitDy=0;entryX=0;entryY=0.5;entryDx=0;entryDy=0;fontFamily=Helvetica;fontSize=12;fontColor=default;" parent="1" source="XcMSc3Dv5Vf1WdrxYV2J-239" target="XcMSc3Dv5Vf1WdrxYV2J-292" edge="1">
          <mxGeometry relative="1" as="geometry" />
        </mxCell>
        <mxCell id="XcMSc3Dv5Vf1WdrxYV2J-103" value="" style="endArrow=none;html=1;rounded=0;entryX=0;entryY=0.5;entryDx=0;entryDy=0;exitX=1;exitY=0.5;exitDx=0;exitDy=0;fontStyle=1" parent="1" source="XcMSc3Dv5Vf1WdrxYV2J-79" target="XcMSc3Dv5Vf1WdrxYV2J-77" edge="1">
          <mxGeometry width="50" height="50" relative="1" as="geometry">
            <mxPoint x="130" y="2070" as="sourcePoint" />
            <mxPoint x="450" y="2120" as="targetPoint" />
          </mxGeometry>
        </mxCell>
        <mxCell id="XcMSc3Dv5Vf1WdrxYV2J-102" value="" style="endArrow=none;html=1;rounded=0;entryX=0;entryY=0.5;entryDx=0;entryDy=0;exitX=1;exitY=0.5;exitDx=0;exitDy=0;fontStyle=1" parent="1" source="XcMSc3Dv5Vf1WdrxYV2J-76" target="XcMSc3Dv5Vf1WdrxYV2J-74" edge="1">
          <mxGeometry width="50" height="50" relative="1" as="geometry">
            <mxPoint x="200" y="2070" as="sourcePoint" />
            <mxPoint x="520" y="2080" as="targetPoint" />
          </mxGeometry>
        </mxCell>
        <mxCell id="XcMSc3Dv5Vf1WdrxYV2J-101" value="" style="endArrow=none;html=1;rounded=0;exitX=1;exitY=0.5;exitDx=0;exitDy=0;entryX=0;entryY=0.5;entryDx=0;entryDy=0;fontStyle=1" parent="1" source="XcMSc3Dv5Vf1WdrxYV2J-72" target="XcMSc3Dv5Vf1WdrxYV2J-70" edge="1">
          <mxGeometry width="50" height="50" relative="1" as="geometry">
            <mxPoint x="270" y="2070" as="sourcePoint" />
            <mxPoint x="590" y="2040" as="targetPoint" />
          </mxGeometry>
        </mxCell>
        <mxCell id="XcMSc3Dv5Vf1WdrxYV2J-100" value="" style="endArrow=none;html=1;rounded=0;exitX=1;exitY=0.5;exitDx=0;exitDy=0;entryX=0;entryY=0.5;entryDx=0;entryDy=0;fontStyle=1" parent="1" source="XcMSc3Dv5Vf1WdrxYV2J-62" target="XcMSc3Dv5Vf1WdrxYV2J-60" edge="1">
          <mxGeometry width="50" height="50" relative="1" as="geometry">
            <mxPoint x="340" y="2070" as="sourcePoint" />
            <mxPoint x="660" y="2000" as="targetPoint" />
          </mxGeometry>
        </mxCell>
        <mxCell id="XcMSc3Dv5Vf1WdrxYV2J-99" value="" style="endArrow=none;html=1;rounded=0;exitX=1;exitY=0.5;exitDx=0;exitDy=0;entryX=0;entryY=0.5;entryDx=0;entryDy=0;fontStyle=1" parent="1" source="XcMSc3Dv5Vf1WdrxYV2J-56" target="XcMSc3Dv5Vf1WdrxYV2J-53" edge="1">
          <mxGeometry width="50" height="50" relative="1" as="geometry">
            <mxPoint x="410" y="2070" as="sourcePoint" />
            <mxPoint x="730" y="1960" as="targetPoint" />
          </mxGeometry>
        </mxCell>
        <mxCell id="XcMSc3Dv5Vf1WdrxYV2J-98" value="" style="endArrow=none;html=1;rounded=0;exitX=1;exitY=0.5;exitDx=0;exitDy=0;entryX=0;entryY=0.5;entryDx=0;entryDy=0;fontStyle=1" parent="1" source="XcMSc3Dv5Vf1WdrxYV2J-41" target="XcMSc3Dv5Vf1WdrxYV2J-47" edge="1">
          <mxGeometry width="50" height="50" relative="1" as="geometry">
            <mxPoint x="480" y="2070" as="sourcePoint" />
            <mxPoint x="800" y="1920" as="targetPoint" />
          </mxGeometry>
        </mxCell>
        <mxCell id="XcMSc3Dv5Vf1WdrxYV2J-97" value="" style="endArrow=none;html=1;rounded=0;exitX=1;exitY=0.5;exitDx=0;exitDy=0;entryX=0;entryY=0.5;entryDx=0;entryDy=0;fontStyle=1" parent="1" source="XcMSc3Dv5Vf1WdrxYV2J-24" target="XcMSc3Dv5Vf1WdrxYV2J-31" edge="1">
          <mxGeometry width="50" height="50" relative="1" as="geometry">
            <mxPoint x="550" y="2070" as="sourcePoint" />
            <mxPoint x="870" y="1880" as="targetPoint" />
          </mxGeometry>
        </mxCell>
        <mxCell id="WF_SVMyA3wsPpLtUFcRp-273" value="" style="endArrow=classic;html=1;rounded=0;exitX=0.75;exitY=0;exitDx=0;exitDy=0;entryX=0.75;entryY=1;entryDx=0;entryDy=0;" parent="1" source="WF_SVMyA3wsPpLtUFcRp-271" target="WF_SVMyA3wsPpLtUFcRp-267" edge="1">
          <mxGeometry width="50" height="50" relative="1" as="geometry">
            <mxPoint x="1555" y="1370" as="sourcePoint" />
            <mxPoint x="1555" y="1310" as="targetPoint" />
          </mxGeometry>
        </mxCell>
        <mxCell id="WF_SVMyA3wsPpLtUFcRp-264" value="" style="endArrow=classic;html=1;rounded=0;exitX=0.75;exitY=0;exitDx=0;exitDy=0;entryX=0.75;entryY=1;entryDx=0;entryDy=0;" parent="1" source="WF_SVMyA3wsPpLtUFcRp-22" target="WF_SVMyA3wsPpLtUFcRp-148" edge="1">
          <mxGeometry width="50" height="50" relative="1" as="geometry">
            <mxPoint x="668" y="1160" as="sourcePoint" />
            <mxPoint x="668" y="1220" as="targetPoint" />
          </mxGeometry>
        </mxCell>
        <mxCell id="WF_SVMyA3wsPpLtUFcRp-209" value="" style="endArrow=classic;html=1;rounded=0;exitX=0.25;exitY=1;exitDx=0;exitDy=0;entryX=0.25;entryY=0;entryDx=0;entryDy=0;" parent="1" source="WF_SVMyA3wsPpLtUFcRp-152" target="WF_SVMyA3wsPpLtUFcRp-208" edge="1">
          <mxGeometry width="50" height="50" relative="1" as="geometry">
            <mxPoint x="1063" y="1060" as="sourcePoint" />
            <mxPoint x="1063" y="1420" as="targetPoint" />
          </mxGeometry>
        </mxCell>
        <mxCell id="WF_SVMyA3wsPpLtUFcRp-207" value="" style="endArrow=classic;html=1;rounded=0;exitX=0.25;exitY=1;exitDx=0;exitDy=0;entryX=0.25;entryY=0;entryDx=0;entryDy=0;" parent="1" source="WF_SVMyA3wsPpLtUFcRp-153" target="WF_SVMyA3wsPpLtUFcRp-204" edge="1">
          <mxGeometry width="50" height="50" relative="1" as="geometry">
            <mxPoint x="823" y="1060" as="sourcePoint" />
            <mxPoint x="823" y="1420" as="targetPoint" />
          </mxGeometry>
        </mxCell>
        <mxCell id="WF_SVMyA3wsPpLtUFcRp-206" value="" style="endArrow=classic;html=1;rounded=0;exitX=0.25;exitY=1;exitDx=0;exitDy=0;entryX=0.25;entryY=0;entryDx=0;entryDy=0;" parent="1" source="WF_SVMyA3wsPpLtUFcRp-151" target="WF_SVMyA3wsPpLtUFcRp-203" edge="1">
          <mxGeometry width="50" height="50" relative="1" as="geometry">
            <mxPoint x="1000" y="1300" as="sourcePoint" />
            <mxPoint x="1050" y="1250" as="targetPoint" />
          </mxGeometry>
        </mxCell>
        <mxCell id="77e6c97f196da883-8" value="sop拉高" style="rounded=1;whiteSpace=wrap;html=1;shadow=0;labelBackgroundColor=none;strokeWidth=1;fontFamily=Verdana;fontSize=8;align=center;" parent="1" vertex="1">
          <mxGeometry x="20" y="20" width="50" height="40" as="geometry" />
        </mxCell>
        <mxCell id="_o2dJ1vOlYaZSfBBGsUN-3" value="vld拉高" style="rounded=1;whiteSpace=wrap;html=1;shadow=0;labelBackgroundColor=none;strokeWidth=1;fontFamily=Verdana;fontSize=8;align=center;" parent="1" vertex="1">
          <mxGeometry x="80" y="70" width="50" height="40" as="geometry" />
        </mxCell>
        <mxCell id="_o2dJ1vOlYaZSfBBGsUN-4" value="控制16bits" style="rounded=1;whiteSpace=wrap;html=1;shadow=0;labelBackgroundColor=none;strokeWidth=1;fontFamily=Verdana;fontSize=8;align=center;" parent="1" vertex="1">
          <mxGeometry x="80" y="120" width="50" height="40" as="geometry" />
        </mxCell>
        <mxCell id="_o2dJ1vOlYaZSfBBGsUN-5" value="数据16bits" style="rounded=1;whiteSpace=wrap;html=1;shadow=0;labelBackgroundColor=none;strokeWidth=1;fontFamily=Verdana;fontSize=8;align=center;" parent="1" vertex="1">
          <mxGeometry x="140" y="120" width="50" height="40" as="geometry" />
        </mxCell>
        <mxCell id="_o2dJ1vOlYaZSfBBGsUN-6" value="vld拉高" style="rounded=1;whiteSpace=wrap;html=1;shadow=0;labelBackgroundColor=none;strokeWidth=1;fontFamily=Verdana;fontSize=8;align=center;" parent="1" vertex="1">
          <mxGeometry x="140" y="70" width="50" height="40" as="geometry" />
        </mxCell>
        <mxCell id="_o2dJ1vOlYaZSfBBGsUN-7" value="vld拉低" style="rounded=1;whiteSpace=wrap;html=1;shadow=0;labelBackgroundColor=none;strokeWidth=1;fontFamily=Verdana;fontSize=8;align=center;" parent="1" vertex="1">
          <mxGeometry x="200" y="70" width="50" height="40" as="geometry" />
        </mxCell>
        <mxCell id="_o2dJ1vOlYaZSfBBGsUN-8" value="vld拉高" style="rounded=1;whiteSpace=wrap;html=1;shadow=0;labelBackgroundColor=none;strokeWidth=1;fontFamily=Verdana;fontSize=8;align=center;" parent="1" vertex="1">
          <mxGeometry x="260" y="70" width="50" height="40" as="geometry" />
        </mxCell>
        <mxCell id="_o2dJ1vOlYaZSfBBGsUN-10" value="数据16bits" style="rounded=1;whiteSpace=wrap;html=1;shadow=0;labelBackgroundColor=none;strokeWidth=1;fontFamily=Verdana;fontSize=8;align=center;" parent="1" vertex="1">
          <mxGeometry x="260" y="120" width="50" height="40" as="geometry" />
        </mxCell>
        <mxCell id="_o2dJ1vOlYaZSfBBGsUN-11" value="数据16bits" style="rounded=1;whiteSpace=wrap;html=1;shadow=0;labelBackgroundColor=none;strokeWidth=1;fontFamily=Verdana;fontSize=8;align=center;" parent="1" vertex="1">
          <mxGeometry x="320" y="120" width="50" height="40" as="geometry" />
        </mxCell>
        <mxCell id="_o2dJ1vOlYaZSfBBGsUN-12" value="vld拉高" style="rounded=1;whiteSpace=wrap;html=1;shadow=0;labelBackgroundColor=none;strokeWidth=1;fontFamily=Verdana;fontSize=8;align=center;" parent="1" vertex="1">
          <mxGeometry x="320" y="70" width="50" height="40" as="geometry" />
        </mxCell>
        <mxCell id="_o2dJ1vOlYaZSfBBGsUN-13" value="" style="endArrow=none;dashed=1;html=1;dashPattern=1 3;strokeWidth=2;rounded=0;" parent="1" edge="1">
          <mxGeometry width="50" height="50" relative="1" as="geometry">
            <mxPoint x="380" y="110" as="sourcePoint" />
            <mxPoint x="430" y="110" as="targetPoint" />
          </mxGeometry>
        </mxCell>
        <mxCell id="_o2dJ1vOlYaZSfBBGsUN-14" value="数据16bits" style="rounded=1;whiteSpace=wrap;html=1;shadow=0;labelBackgroundColor=none;strokeWidth=1;fontFamily=Verdana;fontSize=8;align=center;" parent="1" vertex="1">
          <mxGeometry x="440" y="120" width="50" height="40" as="geometry" />
        </mxCell>
        <mxCell id="_o2dJ1vOlYaZSfBBGsUN-15" value="vld拉高" style="rounded=1;whiteSpace=wrap;html=1;shadow=0;labelBackgroundColor=none;strokeWidth=1;fontFamily=Verdana;fontSize=8;align=center;" parent="1" vertex="1">
          <mxGeometry x="440" y="70" width="50" height="40" as="geometry" />
        </mxCell>
        <mxCell id="_o2dJ1vOlYaZSfBBGsUN-16" value="vld拉低" style="rounded=1;whiteSpace=wrap;html=1;shadow=0;labelBackgroundColor=none;strokeWidth=1;fontFamily=Verdana;fontSize=8;align=center;" parent="1" vertex="1">
          <mxGeometry x="500" y="70" width="50" height="40" as="geometry" />
        </mxCell>
        <mxCell id="_o2dJ1vOlYaZSfBBGsUN-17" value="eop拉高" style="rounded=1;whiteSpace=wrap;html=1;shadow=0;labelBackgroundColor=none;strokeWidth=1;fontFamily=Verdana;fontSize=8;align=center;" parent="1" vertex="1">
          <mxGeometry x="500" y="170" width="50" height="40" as="geometry" />
        </mxCell>
        <mxCell id="_o2dJ1vOlYaZSfBBGsUN-18" value="sop拉低" style="rounded=1;whiteSpace=wrap;html=1;shadow=0;labelBackgroundColor=none;strokeWidth=1;fontFamily=Verdana;fontSize=8;align=center;" parent="1" vertex="1">
          <mxGeometry x="80" y="20" width="50" height="40" as="geometry" />
        </mxCell>
        <mxCell id="_o2dJ1vOlYaZSfBBGsUN-19" value="eop拉低" style="rounded=1;whiteSpace=wrap;html=1;shadow=0;labelBackgroundColor=none;strokeWidth=1;fontFamily=Verdana;fontSize=8;align=center;" parent="1" vertex="1">
          <mxGeometry x="560" y="170" width="50" height="40" as="geometry" />
        </mxCell>
        <mxCell id="_o2dJ1vOlYaZSfBBGsUN-20" value="把处理过的data&lt;br&gt;写入buf" style="rounded=1;whiteSpace=wrap;html=1;shadow=0;labelBackgroundColor=none;strokeWidth=1;fontFamily=Verdana;fontSize=8;align=center;" parent="1" vertex="1">
          <mxGeometry x="80" y="310" width="50" height="40" as="geometry" />
        </mxCell>
        <mxCell id="_o2dJ1vOlYaZSfBBGsUN-21" value="读控制&lt;br&gt;生成信号" style="rounded=1;whiteSpace=wrap;html=1;shadow=0;labelBackgroundColor=none;strokeWidth=1;fontFamily=Verdana;fontSize=8;align=center;" parent="1" vertex="1">
          <mxGeometry x="80" y="410" width="50" height="40" as="geometry" />
        </mxCell>
        <mxCell id="_o2dJ1vOlYaZSfBBGsUN-22" value="把data&lt;br&gt;写入buf" style="rounded=1;whiteSpace=wrap;html=1;shadow=0;labelBackgroundColor=none;strokeWidth=1;fontFamily=Verdana;fontSize=8;align=center;" parent="1" vertex="1">
          <mxGeometry x="140" y="310" width="50" height="40" as="geometry" />
        </mxCell>
        <mxCell id="_o2dJ1vOlYaZSfBBGsUN-23" value="把data&lt;br&gt;写入buf" style="rounded=1;whiteSpace=wrap;html=1;shadow=0;labelBackgroundColor=none;strokeWidth=1;fontFamily=Verdana;fontSize=8;align=center;" parent="1" vertex="1">
          <mxGeometry x="260" y="310" width="50" height="40" as="geometry" />
        </mxCell>
        <mxCell id="_o2dJ1vOlYaZSfBBGsUN-24" value="把data&lt;br&gt;写入buf" style="rounded=1;whiteSpace=wrap;html=1;shadow=0;labelBackgroundColor=none;strokeWidth=1;fontFamily=Verdana;fontSize=8;align=center;" parent="1" vertex="1">
          <mxGeometry x="320" y="310" width="50" height="40" as="geometry" />
        </mxCell>
        <mxCell id="_o2dJ1vOlYaZSfBBGsUN-25" value="写指针+=1" style="rounded=1;whiteSpace=wrap;html=1;shadow=0;labelBackgroundColor=none;strokeWidth=1;fontFamily=Verdana;fontSize=8;align=center;" parent="1" vertex="1">
          <mxGeometry x="80" y="360" width="50" height="40" as="geometry" />
        </mxCell>
        <mxCell id="_o2dJ1vOlYaZSfBBGsUN-26" value="写指针+=1" style="rounded=1;whiteSpace=wrap;html=1;shadow=0;labelBackgroundColor=none;strokeWidth=1;fontFamily=Verdana;fontSize=8;align=center;" parent="1" vertex="1">
          <mxGeometry x="140" y="360" width="50" height="40" as="geometry" />
        </mxCell>
        <mxCell id="_o2dJ1vOlYaZSfBBGsUN-27" value="写指针+=1" style="rounded=1;whiteSpace=wrap;html=1;shadow=0;labelBackgroundColor=none;strokeWidth=1;fontFamily=Verdana;fontSize=8;align=center;" parent="1" vertex="1">
          <mxGeometry x="260" y="360" width="50" height="40" as="geometry" />
        </mxCell>
        <mxCell id="_o2dJ1vOlYaZSfBBGsUN-28" value="写指针+=1" style="rounded=1;whiteSpace=wrap;html=1;shadow=0;labelBackgroundColor=none;strokeWidth=1;fontFamily=Verdana;fontSize=8;align=center;" parent="1" vertex="1">
          <mxGeometry x="320" y="360" width="50" height="40" as="geometry" />
        </mxCell>
        <mxCell id="_o2dJ1vOlYaZSfBBGsUN-29" value="写指针+=1" style="rounded=1;whiteSpace=wrap;html=1;shadow=0;labelBackgroundColor=none;strokeWidth=1;fontFamily=Verdana;fontSize=8;align=center;" parent="1" vertex="1">
          <mxGeometry x="440" y="360" width="50" height="40" as="geometry" />
        </mxCell>
        <mxCell id="_o2dJ1vOlYaZSfBBGsUN-30" value="终止指针&lt;br&gt;赋值" style="rounded=1;whiteSpace=wrap;html=1;shadow=0;labelBackgroundColor=none;strokeWidth=1;fontFamily=Verdana;fontSize=8;align=center;" parent="1" vertex="1">
          <mxGeometry x="500" y="260" width="50" height="40" as="geometry" />
        </mxCell>
        <mxCell id="_o2dJ1vOlYaZSfBBGsUN-32" value="延迟计数器&lt;br&gt;置零" style="rounded=1;whiteSpace=wrap;html=1;shadow=0;labelBackgroundColor=none;strokeWidth=1;fontFamily=Verdana;fontSize=8;align=center;" parent="1" vertex="1">
          <mxGeometry x="20" y="520" width="50" height="40" as="geometry" />
        </mxCell>
        <mxCell id="_o2dJ1vOlYaZSfBBGsUN-41" value="" style="endArrow=classic;html=1;rounded=0;entryX=0;entryY=0.5;entryDx=0;entryDy=0;exitX=0.5;exitY=1;exitDx=0;exitDy=0;" parent="1" source="_o2dJ1vOlYaZSfBBGsUN-21" target="WF_SVMyA3wsPpLtUFcRp-243" edge="1">
          <mxGeometry relative="1" as="geometry">
            <mxPoint x="104.58" y="300" as="sourcePoint" />
            <mxPoint x="140" y="540" as="targetPoint" />
            <Array as="points">
              <mxPoint x="105" y="540" />
            </Array>
          </mxGeometry>
        </mxCell>
        <mxCell id="_o2dJ1vOlYaZSfBBGsUN-42" value="触发信号" style="edgeLabel;resizable=0;html=1;;align=center;verticalAlign=middle;" parent="_o2dJ1vOlYaZSfBBGsUN-41" connectable="0" vertex="1">
          <mxGeometry relative="1" as="geometry" />
        </mxCell>
        <mxCell id="_o2dJ1vOlYaZSfBBGsUN-45" value="搜索SRAM&lt;br&gt;#0" style="rounded=1;whiteSpace=wrap;html=1;shadow=0;labelBackgroundColor=none;strokeWidth=1;fontFamily=Verdana;fontSize=8;align=center;" parent="1" vertex="1">
          <mxGeometry x="140" y="910" width="50" height="40" as="geometry" />
        </mxCell>
        <mxCell id="_o2dJ1vOlYaZSfBBGsUN-46" value="搜索SRAM&lt;br&gt;#1" style="rounded=1;whiteSpace=wrap;html=1;shadow=0;labelBackgroundColor=none;strokeWidth=1;fontFamily=Verdana;fontSize=8;align=center;" parent="1" vertex="1">
          <mxGeometry x="200" y="910" width="50" height="40" as="geometry" />
        </mxCell>
        <mxCell id="_o2dJ1vOlYaZSfBBGsUN-47" value="搜索SRAM&lt;br&gt;#31" style="rounded=1;whiteSpace=wrap;html=1;shadow=0;labelBackgroundColor=none;strokeWidth=1;fontFamily=Verdana;fontSize=8;align=center;" parent="1" vertex="1">
          <mxGeometry x="500" y="910" width="50" height="40" as="geometry" />
        </mxCell>
        <mxCell id="_o2dJ1vOlYaZSfBBGsUN-48" value="" style="endArrow=none;dashed=1;html=1;dashPattern=1 3;strokeWidth=2;rounded=0;" parent="1" edge="1">
          <mxGeometry width="50" height="50" relative="1" as="geometry">
            <mxPoint x="260" y="929.58" as="sourcePoint" />
            <mxPoint x="490" y="930" as="targetPoint" />
          </mxGeometry>
        </mxCell>
        <mxCell id="_o2dJ1vOlYaZSfBBGsUN-49" value="发送#0" style="rounded=1;whiteSpace=wrap;html=1;shadow=0;labelBackgroundColor=none;strokeWidth=1;fontFamily=Verdana;fontSize=8;align=center;" parent="1" vertex="1">
          <mxGeometry x="560" y="570" width="50" height="40" as="geometry" />
        </mxCell>
        <mxCell id="_o2dJ1vOlYaZSfBBGsUN-50" value="发送#1" style="rounded=1;whiteSpace=wrap;html=1;shadow=0;labelBackgroundColor=none;strokeWidth=1;fontFamily=Verdana;fontSize=8;align=center;" parent="1" vertex="1">
          <mxGeometry x="620" y="570" width="50" height="40" as="geometry" />
        </mxCell>
        <mxCell id="_o2dJ1vOlYaZSfBBGsUN-51" value="发送#n" style="rounded=1;whiteSpace=wrap;html=1;shadow=0;labelBackgroundColor=none;strokeWidth=1;fontFamily=Verdana;fontSize=8;align=center;" parent="1" vertex="1">
          <mxGeometry x="740" y="570" width="50" height="40" as="geometry" />
        </mxCell>
        <mxCell id="_o2dJ1vOlYaZSfBBGsUN-52" value="" style="endArrow=none;dashed=1;html=1;dashPattern=1 3;strokeWidth=2;rounded=0;" parent="1" edge="1">
          <mxGeometry width="50" height="50" relative="1" as="geometry">
            <mxPoint x="680" y="589.58" as="sourcePoint" />
            <mxPoint x="730" y="589.58" as="targetPoint" />
          </mxGeometry>
        </mxCell>
        <mxCell id="_o2dJ1vOlYaZSfBBGsUN-53" value="到终止指针&lt;br&gt;发送结束" style="rounded=1;whiteSpace=wrap;html=1;shadow=0;labelBackgroundColor=none;strokeWidth=1;fontFamily=Verdana;fontSize=8;align=center;" parent="1" vertex="1">
          <mxGeometry x="740" y="620" width="50" height="40" as="geometry" />
        </mxCell>
        <mxCell id="_o2dJ1vOlYaZSfBBGsUN-54" value="sop拉高" style="rounded=1;whiteSpace=wrap;html=1;shadow=0;labelBackgroundColor=none;strokeWidth=1;fontFamily=Verdana;fontSize=8;align=center;" parent="1" vertex="1">
          <mxGeometry x="620" y="20" width="50" height="40" as="geometry" />
        </mxCell>
        <mxCell id="_o2dJ1vOlYaZSfBBGsUN-55" value="sop拉高" style="rounded=1;whiteSpace=wrap;html=1;shadow=0;labelBackgroundColor=none;strokeWidth=1;fontFamily=Verdana;fontSize=8;align=center;" parent="1" vertex="1">
          <mxGeometry x="680" y="20" width="50" height="40" as="geometry" />
        </mxCell>
        <mxCell id="_o2dJ1vOlYaZSfBBGsUN-56" value="vld拉高" style="rounded=1;whiteSpace=wrap;html=1;shadow=0;labelBackgroundColor=none;strokeWidth=1;fontFamily=Verdana;fontSize=8;align=center;" parent="1" vertex="1">
          <mxGeometry x="680" y="70" width="50" height="40" as="geometry" />
        </mxCell>
        <mxCell id="_o2dJ1vOlYaZSfBBGsUN-57" value="控制16bits" style="rounded=1;whiteSpace=wrap;html=1;shadow=0;labelBackgroundColor=none;strokeWidth=1;fontFamily=Verdana;fontSize=8;align=center;" parent="1" vertex="1">
          <mxGeometry x="680" y="120" width="50" height="40" as="geometry" />
        </mxCell>
        <mxCell id="_o2dJ1vOlYaZSfBBGsUN-58" value="数据16bits" style="rounded=1;whiteSpace=wrap;html=1;shadow=0;labelBackgroundColor=none;strokeWidth=1;fontFamily=Verdana;fontSize=8;align=center;" parent="1" vertex="1">
          <mxGeometry x="740" y="120" width="50" height="40" as="geometry" />
        </mxCell>
        <mxCell id="_o2dJ1vOlYaZSfBBGsUN-59" value="vld拉高" style="rounded=1;whiteSpace=wrap;html=1;shadow=0;labelBackgroundColor=none;strokeWidth=1;fontFamily=Verdana;fontSize=8;align=center;" parent="1" vertex="1">
          <mxGeometry x="740" y="70" width="50" height="40" as="geometry" />
        </mxCell>
        <mxCell id="_o2dJ1vOlYaZSfBBGsUN-60" value="vld拉低" style="rounded=1;whiteSpace=wrap;html=1;shadow=0;labelBackgroundColor=none;strokeWidth=1;fontFamily=Verdana;fontSize=8;align=center;" parent="1" vertex="1">
          <mxGeometry x="800" y="70" width="50" height="40" as="geometry" />
        </mxCell>
        <mxCell id="_o2dJ1vOlYaZSfBBGsUN-61" value="vld拉高" style="rounded=1;whiteSpace=wrap;html=1;shadow=0;labelBackgroundColor=none;strokeWidth=1;fontFamily=Verdana;fontSize=8;align=center;" parent="1" vertex="1">
          <mxGeometry x="860" y="70" width="50" height="40" as="geometry" />
        </mxCell>
        <mxCell id="_o2dJ1vOlYaZSfBBGsUN-62" value="数据16bits" style="rounded=1;whiteSpace=wrap;html=1;shadow=0;labelBackgroundColor=none;strokeWidth=1;fontFamily=Verdana;fontSize=8;align=center;" parent="1" vertex="1">
          <mxGeometry x="860" y="120" width="50" height="40" as="geometry" />
        </mxCell>
        <mxCell id="_o2dJ1vOlYaZSfBBGsUN-63" value="数据16bits" style="rounded=1;whiteSpace=wrap;html=1;shadow=0;labelBackgroundColor=none;strokeWidth=1;fontFamily=Verdana;fontSize=8;align=center;" parent="1" vertex="1">
          <mxGeometry x="920" y="120" width="50" height="40" as="geometry" />
        </mxCell>
        <mxCell id="_o2dJ1vOlYaZSfBBGsUN-64" value="vld拉高" style="rounded=1;whiteSpace=wrap;html=1;shadow=0;labelBackgroundColor=none;strokeWidth=1;fontFamily=Verdana;fontSize=8;align=center;" parent="1" vertex="1">
          <mxGeometry x="920" y="70" width="50" height="40" as="geometry" />
        </mxCell>
        <mxCell id="_o2dJ1vOlYaZSfBBGsUN-65" value="延迟计数器&lt;br&gt;置零" style="rounded=1;whiteSpace=wrap;html=1;shadow=0;labelBackgroundColor=none;strokeWidth=1;fontFamily=Verdana;fontSize=8;align=center;" parent="1" vertex="1">
          <mxGeometry x="620" y="520" width="50" height="40" as="geometry" />
        </mxCell>
        <mxCell id="_o2dJ1vOlYaZSfBBGsUN-66" value="" style="endArrow=classic;html=1;rounded=0;entryX=0;entryY=0.5;entryDx=0;entryDy=0;exitX=0.5;exitY=1;exitDx=0;exitDy=0;" parent="1" source="WF_SVMyA3wsPpLtUFcRp-246" target="_o2dJ1vOlYaZSfBBGsUN-49" edge="1">
          <mxGeometry relative="1" as="geometry">
            <mxPoint x="480" y="570" as="sourcePoint" />
            <mxPoint x="670" y="410" as="targetPoint" />
            <Array as="points">
              <mxPoint x="525" y="590" />
            </Array>
          </mxGeometry>
        </mxCell>
        <mxCell id="_o2dJ1vOlYaZSfBBGsUN-67" value="发送&lt;br&gt;信号" style="edgeLabel;resizable=0;html=1;;align=center;verticalAlign=middle;" parent="_o2dJ1vOlYaZSfBBGsUN-66" connectable="0" vertex="1">
          <mxGeometry relative="1" as="geometry" />
        </mxCell>
        <mxCell id="_o2dJ1vOlYaZSfBBGsUN-68" value="" style="endArrow=classic;html=1;rounded=0;exitX=0;exitY=0.5;exitDx=0;exitDy=0;entryX=0.25;entryY=1;entryDx=0;entryDy=0;" parent="1" source="_o2dJ1vOlYaZSfBBGsUN-53" target="WF_SVMyA3wsPpLtUFcRp-246" edge="1">
          <mxGeometry relative="1" as="geometry">
            <mxPoint x="640" y="540" as="sourcePoint" />
            <mxPoint x="530" y="610" as="targetPoint" />
            <Array as="points">
              <mxPoint x="513" y="640" />
            </Array>
          </mxGeometry>
        </mxCell>
        <mxCell id="_o2dJ1vOlYaZSfBBGsUN-69" value="重置" style="edgeLabel;resizable=0;html=1;;align=center;verticalAlign=middle;" parent="_o2dJ1vOlYaZSfBBGsUN-68" connectable="0" vertex="1">
          <mxGeometry relative="1" as="geometry" />
        </mxCell>
        <mxCell id="_o2dJ1vOlYaZSfBBGsUN-70" value="" style="endArrow=classic;html=1;rounded=0;exitX=0.5;exitY=0;exitDx=0;exitDy=0;" parent="1" source="WF_SVMyA3wsPpLtUFcRp-246" edge="1">
          <mxGeometry relative="1" as="geometry">
            <mxPoint x="525" y="520" as="sourcePoint" />
            <mxPoint x="130" y="510" as="targetPoint" />
            <Array as="points">
              <mxPoint x="525" y="510" />
            </Array>
          </mxGeometry>
        </mxCell>
        <mxCell id="_o2dJ1vOlYaZSfBBGsUN-71" value="重置" style="edgeLabel;resizable=0;html=1;;align=center;verticalAlign=middle;" parent="_o2dJ1vOlYaZSfBBGsUN-70" connectable="0" vertex="1">
          <mxGeometry relative="1" as="geometry" />
        </mxCell>
        <mxCell id="_o2dJ1vOlYaZSfBBGsUN-72" value="把处理过的data&lt;br&gt;写入buf" style="rounded=1;whiteSpace=wrap;html=1;shadow=0;labelBackgroundColor=none;strokeWidth=1;fontFamily=Verdana;fontSize=8;align=center;" parent="1" vertex="1">
          <mxGeometry x="680" y="310" width="50" height="40" as="geometry" />
        </mxCell>
        <mxCell id="_o2dJ1vOlYaZSfBBGsUN-73" value="读控制&lt;br&gt;生成信号" style="rounded=1;whiteSpace=wrap;html=1;shadow=0;labelBackgroundColor=none;strokeWidth=1;fontFamily=Verdana;fontSize=8;align=center;" parent="1" vertex="1">
          <mxGeometry x="680" y="410" width="50" height="40" as="geometry" />
        </mxCell>
        <mxCell id="_o2dJ1vOlYaZSfBBGsUN-74" value="把data&lt;br&gt;写入buf" style="rounded=1;whiteSpace=wrap;html=1;shadow=0;labelBackgroundColor=none;strokeWidth=1;fontFamily=Verdana;fontSize=8;align=center;" parent="1" vertex="1">
          <mxGeometry x="740" y="310" width="50" height="40" as="geometry" />
        </mxCell>
        <mxCell id="_o2dJ1vOlYaZSfBBGsUN-75" value="把data&lt;br&gt;写入buf" style="rounded=1;whiteSpace=wrap;html=1;shadow=0;labelBackgroundColor=none;strokeWidth=1;fontFamily=Verdana;fontSize=8;align=center;" parent="1" vertex="1">
          <mxGeometry x="860" y="310" width="50" height="40" as="geometry" />
        </mxCell>
        <mxCell id="_o2dJ1vOlYaZSfBBGsUN-76" value="把data&lt;br&gt;写入buf" style="rounded=1;whiteSpace=wrap;html=1;shadow=0;labelBackgroundColor=none;strokeWidth=1;fontFamily=Verdana;fontSize=8;align=center;" parent="1" vertex="1">
          <mxGeometry x="920" y="310" width="50" height="40" as="geometry" />
        </mxCell>
        <mxCell id="_o2dJ1vOlYaZSfBBGsUN-77" value="写指针+=1" style="rounded=1;whiteSpace=wrap;html=1;shadow=0;labelBackgroundColor=none;strokeWidth=1;fontFamily=Verdana;fontSize=8;align=center;" parent="1" vertex="1">
          <mxGeometry x="680" y="360" width="50" height="40" as="geometry" />
        </mxCell>
        <mxCell id="_o2dJ1vOlYaZSfBBGsUN-78" value="写指针+=1" style="rounded=1;whiteSpace=wrap;html=1;shadow=0;labelBackgroundColor=none;strokeWidth=1;fontFamily=Verdana;fontSize=8;align=center;" parent="1" vertex="1">
          <mxGeometry x="740" y="360" width="50" height="40" as="geometry" />
        </mxCell>
        <mxCell id="_o2dJ1vOlYaZSfBBGsUN-79" value="写指针+=1" style="rounded=1;whiteSpace=wrap;html=1;shadow=0;labelBackgroundColor=none;strokeWidth=1;fontFamily=Verdana;fontSize=8;align=center;" parent="1" vertex="1">
          <mxGeometry x="860" y="360" width="50" height="40" as="geometry" />
        </mxCell>
        <mxCell id="_o2dJ1vOlYaZSfBBGsUN-80" value="写指针+=1" style="rounded=1;whiteSpace=wrap;html=1;shadow=0;labelBackgroundColor=none;strokeWidth=1;fontFamily=Verdana;fontSize=8;align=center;" parent="1" vertex="1">
          <mxGeometry x="920" y="360" width="50" height="40" as="geometry" />
        </mxCell>
        <mxCell id="_o2dJ1vOlYaZSfBBGsUN-81" value="延迟计数器&lt;br&gt;+=1" style="rounded=1;whiteSpace=wrap;html=1;shadow=0;labelBackgroundColor=none;strokeWidth=1;fontFamily=Verdana;fontSize=8;align=center;" parent="1" vertex="1">
          <mxGeometry x="740" y="520" width="50" height="40" as="geometry" />
        </mxCell>
        <mxCell id="_o2dJ1vOlYaZSfBBGsUN-82" value="延迟计数器&lt;br&gt;+=1" style="rounded=1;whiteSpace=wrap;html=1;shadow=0;labelBackgroundColor=none;strokeWidth=1;fontFamily=Verdana;fontSize=8;align=center;" parent="1" vertex="1">
          <mxGeometry x="800" y="520" width="50" height="40" as="geometry" />
        </mxCell>
        <mxCell id="_o2dJ1vOlYaZSfBBGsUN-83" value="延迟计数器&lt;br&gt;+=1" style="rounded=1;whiteSpace=wrap;html=1;shadow=0;labelBackgroundColor=none;strokeWidth=1;fontFamily=Verdana;fontSize=8;align=center;" parent="1" vertex="1">
          <mxGeometry x="860" y="520" width="50" height="40" as="geometry" />
        </mxCell>
        <mxCell id="_o2dJ1vOlYaZSfBBGsUN-84" value="延迟计数器&lt;br&gt;+=1" style="rounded=1;whiteSpace=wrap;html=1;shadow=0;labelBackgroundColor=none;strokeWidth=1;fontFamily=Verdana;fontSize=8;align=center;" parent="1" vertex="1">
          <mxGeometry x="920" y="520" width="50" height="40" as="geometry" />
        </mxCell>
        <mxCell id="_o2dJ1vOlYaZSfBBGsUN-85" value="" style="endArrow=classic;html=1;rounded=0;entryX=0;entryY=0.5;entryDx=0;entryDy=0;exitX=0.5;exitY=1;exitDx=0;exitDy=0;" parent="1" source="_o2dJ1vOlYaZSfBBGsUN-73" target="_o2dJ1vOlYaZSfBBGsUN-81" edge="1">
          <mxGeometry relative="1" as="geometry">
            <mxPoint x="700" y="450" as="sourcePoint" />
            <mxPoint x="704.58" y="415.42" as="targetPoint" />
            <Array as="points">
              <mxPoint x="705" y="540" />
            </Array>
          </mxGeometry>
        </mxCell>
        <mxCell id="_o2dJ1vOlYaZSfBBGsUN-86" value="触发信号" style="edgeLabel;resizable=0;html=1;;align=center;verticalAlign=middle;" parent="_o2dJ1vOlYaZSfBBGsUN-85" connectable="0" vertex="1">
          <mxGeometry relative="1" as="geometry" />
        </mxCell>
        <mxCell id="WF_SVMyA3wsPpLtUFcRp-2" value="空闲队列&lt;br&gt;弹出拉高" style="rounded=1;whiteSpace=wrap;html=1;shadow=0;labelBackgroundColor=none;strokeWidth=1;fontFamily=Verdana;fontSize=8;align=center;" parent="1" vertex="1">
          <mxGeometry x="560" y="1010" width="50" height="40" as="geometry" />
        </mxCell>
        <mxCell id="WF_SVMyA3wsPpLtUFcRp-6" value="写入SRAM&lt;br&gt;batch#0" style="rounded=1;whiteSpace=wrap;html=1;shadow=0;labelBackgroundColor=none;strokeWidth=1;fontFamily=Verdana;fontSize=8;align=center;" parent="1" vertex="1">
          <mxGeometry x="620" y="1060" width="50" height="40" as="geometry" />
        </mxCell>
        <mxCell id="WF_SVMyA3wsPpLtUFcRp-9" value="写入SRAM&lt;br&gt;batch#1" style="rounded=1;whiteSpace=wrap;html=1;shadow=0;labelBackgroundColor=none;strokeWidth=1;fontFamily=Verdana;fontSize=8;align=center;" parent="1" vertex="1">
          <mxGeometry x="680" y="1060" width="50" height="40" as="geometry" />
        </mxCell>
        <mxCell id="WF_SVMyA3wsPpLtUFcRp-10" value="获取半字&lt;br&gt;#0&lt;br&gt;(控制部分)" style="rounded=1;whiteSpace=wrap;html=1;shadow=0;labelBackgroundColor=none;strokeWidth=1;fontFamily=Verdana;fontSize=8;align=center;" parent="1" vertex="1">
          <mxGeometry x="620" y="860" width="50" height="40" as="geometry" />
        </mxCell>
        <mxCell id="WF_SVMyA3wsPpLtUFcRp-11" value="获取半字&lt;br&gt;#1" style="rounded=1;whiteSpace=wrap;html=1;shadow=0;labelBackgroundColor=none;strokeWidth=1;fontFamily=Verdana;fontSize=8;align=center;" parent="1" vertex="1">
          <mxGeometry x="680" y="860" width="50" height="40" as="geometry" />
        </mxCell>
        <mxCell id="WF_SVMyA3wsPpLtUFcRp-12" value="获取半字&lt;br&gt;#7" style="rounded=1;whiteSpace=wrap;html=1;shadow=0;labelBackgroundColor=none;strokeWidth=1;fontFamily=Verdana;fontSize=8;align=center;" parent="1" vertex="1">
          <mxGeometry x="800" y="860" width="50" height="40" as="geometry" />
        </mxCell>
        <mxCell id="WF_SVMyA3wsPpLtUFcRp-13" value="" style="endArrow=none;dashed=1;html=1;dashPattern=1 3;strokeWidth=2;rounded=0;" parent="1" edge="1">
          <mxGeometry width="50" height="50" relative="1" as="geometry">
            <mxPoint x="740" y="879.58" as="sourcePoint" />
            <mxPoint x="790" y="879.58" as="targetPoint" />
          </mxGeometry>
        </mxCell>
        <mxCell id="WF_SVMyA3wsPpLtUFcRp-15" value="写入SRAM&lt;br&gt;batch#7" style="rounded=1;whiteSpace=wrap;html=1;shadow=0;labelBackgroundColor=none;strokeWidth=1;fontFamily=Verdana;fontSize=8;align=center;" parent="1" vertex="1">
          <mxGeometry x="800" y="1060" width="50" height="40" as="geometry" />
        </mxCell>
        <mxCell id="WF_SVMyA3wsPpLtUFcRp-16" value="写入ECC&lt;br&gt;缓冲区#0" style="rounded=1;whiteSpace=wrap;html=1;shadow=0;labelBackgroundColor=none;strokeWidth=1;fontFamily=Verdana;fontSize=8;align=center;" parent="1" vertex="1">
          <mxGeometry x="620" y="1160" width="50" height="40" as="geometry" />
        </mxCell>
        <mxCell id="WF_SVMyA3wsPpLtUFcRp-17" value="写入ECC&lt;br&gt;缓冲区#1" style="rounded=1;whiteSpace=wrap;html=1;shadow=0;labelBackgroundColor=none;strokeWidth=1;fontFamily=Verdana;fontSize=8;align=center;" parent="1" vertex="1">
          <mxGeometry x="680" y="1160" width="50" height="40" as="geometry" />
        </mxCell>
        <mxCell id="WF_SVMyA3wsPpLtUFcRp-18" value="" style="endArrow=none;dashed=1;html=1;dashPattern=1 3;strokeWidth=2;rounded=0;" parent="1" edge="1">
          <mxGeometry width="50" height="50" relative="1" as="geometry">
            <mxPoint x="740" y="1079.66" as="sourcePoint" />
            <mxPoint x="790" y="1079.66" as="targetPoint" />
          </mxGeometry>
        </mxCell>
        <mxCell id="WF_SVMyA3wsPpLtUFcRp-19" value="" style="endArrow=none;dashed=1;html=1;dashPattern=1 3;strokeWidth=2;rounded=0;" parent="1" edge="1">
          <mxGeometry width="50" height="50" relative="1" as="geometry">
            <mxPoint x="740" y="1179.66" as="sourcePoint" />
            <mxPoint x="790" y="1179.66" as="targetPoint" />
          </mxGeometry>
        </mxCell>
        <mxCell id="WF_SVMyA3wsPpLtUFcRp-20" value="写入ECC&lt;br&gt;缓冲区#7" style="rounded=1;whiteSpace=wrap;html=1;shadow=0;labelBackgroundColor=none;strokeWidth=1;fontFamily=Verdana;fontSize=8;align=center;" parent="1" vertex="1">
          <mxGeometry x="800" y="1160" width="50" height="40" as="geometry" />
        </mxCell>
        <mxCell id="WF_SVMyA3wsPpLtUFcRp-21" value="ECC使能" style="rounded=1;whiteSpace=wrap;html=1;shadow=0;labelBackgroundColor=none;strokeWidth=1;fontFamily=Verdana;fontSize=8;align=center;" parent="1" vertex="1">
          <mxGeometry x="800" y="1260" width="50" height="40" as="geometry" />
        </mxCell>
        <mxCell id="WF_SVMyA3wsPpLtUFcRp-22" value="batch计数器&lt;br&gt;累加&lt;br&gt;(0→1)" style="rounded=1;whiteSpace=wrap;html=1;shadow=0;labelBackgroundColor=none;strokeWidth=1;fontFamily=Verdana;fontSize=8;align=center;" parent="1" vertex="1">
          <mxGeometry x="620" y="1110" width="50" height="40" as="geometry" />
        </mxCell>
        <mxCell id="WF_SVMyA3wsPpLtUFcRp-23" value="batch计数器&lt;br&gt;累加&lt;br&gt;(1→2)" style="rounded=1;whiteSpace=wrap;html=1;shadow=0;labelBackgroundColor=none;strokeWidth=1;fontFamily=Verdana;fontSize=8;align=center;" parent="1" vertex="1">
          <mxGeometry x="680" y="1110" width="50" height="40" as="geometry" />
        </mxCell>
        <mxCell id="WF_SVMyA3wsPpLtUFcRp-24" value="batch计数器&lt;br&gt;累加&lt;br&gt;(7→0)" style="rounded=1;whiteSpace=wrap;html=1;shadow=0;labelBackgroundColor=none;strokeWidth=1;fontFamily=Verdana;fontSize=8;align=center;" parent="1" vertex="1">
          <mxGeometry x="800" y="1110" width="50" height="40" as="geometry" />
        </mxCell>
        <mxCell id="WF_SVMyA3wsPpLtUFcRp-25" value="" style="endArrow=none;dashed=1;html=1;dashPattern=1 3;strokeWidth=2;rounded=0;" parent="1" edge="1">
          <mxGeometry width="50" height="50" relative="1" as="geometry">
            <mxPoint x="740" y="1129.66" as="sourcePoint" />
            <mxPoint x="790" y="1129.66" as="targetPoint" />
          </mxGeometry>
        </mxCell>
        <mxCell id="WF_SVMyA3wsPpLtUFcRp-26" value="保存校验码&lt;br&gt;ECC关闭" style="rounded=1;whiteSpace=wrap;html=1;shadow=0;labelBackgroundColor=none;strokeWidth=1;fontFamily=Verdana;fontSize=8;align=center;" parent="1" vertex="1">
          <mxGeometry x="860" y="1260" width="50" height="40" as="geometry" />
        </mxCell>
        <mxCell id="WF_SVMyA3wsPpLtUFcRp-30" value="" style="endArrow=none;dashed=1;html=1;dashPattern=1 3;strokeWidth=2;rounded=0;" parent="1" edge="1">
          <mxGeometry width="50" height="50" relative="1" as="geometry">
            <mxPoint x="980" y="879.58" as="sourcePoint" />
            <mxPoint x="1030" y="879.58" as="targetPoint" />
          </mxGeometry>
        </mxCell>
        <mxCell id="WF_SVMyA3wsPpLtUFcRp-32" value="" style="endArrow=none;dashed=1;html=1;dashPattern=1 3;strokeWidth=2;rounded=0;" parent="1" edge="1">
          <mxGeometry width="50" height="50" relative="1" as="geometry">
            <mxPoint x="1100" y="879.6600000000001" as="sourcePoint" />
            <mxPoint x="1270" y="880" as="targetPoint" />
          </mxGeometry>
        </mxCell>
        <mxCell id="WF_SVMyA3wsPpLtUFcRp-33" value="ECC&lt;br&gt;缓冲区重置" style="rounded=1;whiteSpace=wrap;html=1;shadow=0;labelBackgroundColor=none;strokeWidth=1;fontFamily=Verdana;fontSize=8;align=center;" parent="1" vertex="1">
          <mxGeometry x="860" y="1210" width="50" height="40" as="geometry" />
        </mxCell>
        <mxCell id="WF_SVMyA3wsPpLtUFcRp-34" value="" style="endArrow=classic;html=1;rounded=0;exitX=0.5;exitY=1;exitDx=0;exitDy=0;entryX=0.5;entryY=1;entryDx=0;entryDy=0;" parent="1" source="WF_SVMyA3wsPpLtUFcRp-2" target="WF_SVMyA3wsPpLtUFcRp-26" edge="1">
          <mxGeometry relative="1" as="geometry">
            <mxPoint x="700" y="1170" as="sourcePoint" />
            <mxPoint x="820" y="1310" as="targetPoint" />
            <Array as="points">
              <mxPoint x="585" y="1320" />
              <mxPoint x="670" y="1320" />
              <mxPoint x="885" y="1320" />
            </Array>
          </mxGeometry>
        </mxCell>
        <mxCell id="WF_SVMyA3wsPpLtUFcRp-42" value="" style="endArrow=classic;html=1;rounded=0;entryX=0.5;entryY=1;entryDx=0;entryDy=0;exitX=0.5;exitY=0;exitDx=0;exitDy=0;" parent="1" source="WF_SVMyA3wsPpLtUFcRp-22" target="WF_SVMyA3wsPpLtUFcRp-6" edge="1">
          <mxGeometry width="50" height="50" relative="1" as="geometry">
            <mxPoint x="740" y="1210" as="sourcePoint" />
            <mxPoint x="790" y="1160" as="targetPoint" />
          </mxGeometry>
        </mxCell>
        <mxCell id="WF_SVMyA3wsPpLtUFcRp-43" value="" style="endArrow=classic;html=1;rounded=0;entryX=0.5;entryY=1;entryDx=0;entryDy=0;exitX=0.5;exitY=0;exitDx=0;exitDy=0;" parent="1" source="WF_SVMyA3wsPpLtUFcRp-23" target="WF_SVMyA3wsPpLtUFcRp-9" edge="1">
          <mxGeometry width="50" height="50" relative="1" as="geometry">
            <mxPoint x="740" y="1210" as="sourcePoint" />
            <mxPoint x="790" y="1160" as="targetPoint" />
          </mxGeometry>
        </mxCell>
        <mxCell id="WF_SVMyA3wsPpLtUFcRp-44" value="" style="endArrow=classic;html=1;rounded=0;entryX=0.5;entryY=0;entryDx=0;entryDy=0;exitX=0.5;exitY=1;exitDx=0;exitDy=0;" parent="1" source="WF_SVMyA3wsPpLtUFcRp-22" target="WF_SVMyA3wsPpLtUFcRp-16" edge="1">
          <mxGeometry width="50" height="50" relative="1" as="geometry">
            <mxPoint x="740" y="1210" as="sourcePoint" />
            <mxPoint x="790" y="1160" as="targetPoint" />
          </mxGeometry>
        </mxCell>
        <mxCell id="WF_SVMyA3wsPpLtUFcRp-45" value="" style="endArrow=classic;html=1;rounded=0;entryX=0.5;entryY=0;entryDx=0;entryDy=0;exitX=0.5;exitY=1;exitDx=0;exitDy=0;" parent="1" source="WF_SVMyA3wsPpLtUFcRp-23" target="WF_SVMyA3wsPpLtUFcRp-17" edge="1">
          <mxGeometry width="50" height="50" relative="1" as="geometry">
            <mxPoint x="740" y="1210" as="sourcePoint" />
            <mxPoint x="790" y="1160" as="targetPoint" />
          </mxGeometry>
        </mxCell>
        <mxCell id="WF_SVMyA3wsPpLtUFcRp-46" value="" style="endArrow=classic;html=1;rounded=0;entryX=0.5;entryY=1;entryDx=0;entryDy=0;exitX=0.5;exitY=0;exitDx=0;exitDy=0;" parent="1" source="WF_SVMyA3wsPpLtUFcRp-24" target="WF_SVMyA3wsPpLtUFcRp-15" edge="1">
          <mxGeometry width="50" height="50" relative="1" as="geometry">
            <mxPoint x="740" y="1210" as="sourcePoint" />
            <mxPoint x="790" y="1160" as="targetPoint" />
          </mxGeometry>
        </mxCell>
        <mxCell id="WF_SVMyA3wsPpLtUFcRp-47" value="" style="endArrow=classic;html=1;rounded=0;entryX=0.5;entryY=0;entryDx=0;entryDy=0;exitX=0.5;exitY=1;exitDx=0;exitDy=0;" parent="1" source="WF_SVMyA3wsPpLtUFcRp-24" target="WF_SVMyA3wsPpLtUFcRp-20" edge="1">
          <mxGeometry width="50" height="50" relative="1" as="geometry">
            <mxPoint x="740" y="1210" as="sourcePoint" />
            <mxPoint x="790" y="1160" as="targetPoint" />
          </mxGeometry>
        </mxCell>
        <mxCell id="WF_SVMyA3wsPpLtUFcRp-48" value="" style="endArrow=classic;html=1;rounded=0;exitX=0.5;exitY=1;exitDx=0;exitDy=0;entryX=0;entryY=0.5;entryDx=0;entryDy=0;" parent="1" source="WF_SVMyA3wsPpLtUFcRp-2" target="WF_SVMyA3wsPpLtUFcRp-6" edge="1">
          <mxGeometry width="50" height="50" relative="1" as="geometry">
            <mxPoint x="680" y="1140" as="sourcePoint" />
            <mxPoint x="730" y="1090" as="targetPoint" />
            <Array as="points">
              <mxPoint x="585" y="1080" />
            </Array>
          </mxGeometry>
        </mxCell>
        <mxCell id="WF_SVMyA3wsPpLtUFcRp-74" value="写入SRAM&lt;br&gt;batch#0" style="rounded=1;whiteSpace=wrap;html=1;shadow=0;labelBackgroundColor=none;strokeWidth=1;fontFamily=Verdana;fontSize=8;align=center;" parent="1" vertex="1">
          <mxGeometry x="860" y="1060" width="50" height="40" as="geometry" />
        </mxCell>
        <mxCell id="WF_SVMyA3wsPpLtUFcRp-75" value="写入SRAM&lt;br&gt;batch#1" style="rounded=1;whiteSpace=wrap;html=1;shadow=0;labelBackgroundColor=none;strokeWidth=1;fontFamily=Verdana;fontSize=8;align=center;" parent="1" vertex="1">
          <mxGeometry x="920" y="1060" width="50" height="40" as="geometry" />
        </mxCell>
        <mxCell id="WF_SVMyA3wsPpLtUFcRp-76" value="写入SRAM&lt;br&gt;batch#7" style="rounded=1;whiteSpace=wrap;html=1;shadow=0;labelBackgroundColor=none;strokeWidth=1;fontFamily=Verdana;fontSize=8;align=center;" parent="1" vertex="1">
          <mxGeometry x="1040" y="1060" width="50" height="40" as="geometry" />
        </mxCell>
        <mxCell id="WF_SVMyA3wsPpLtUFcRp-77" value="写入ECC&lt;br&gt;缓冲区#0" style="rounded=1;whiteSpace=wrap;html=1;shadow=0;labelBackgroundColor=none;strokeWidth=1;fontFamily=Verdana;fontSize=8;align=center;" parent="1" vertex="1">
          <mxGeometry x="860" y="1160" width="50" height="40" as="geometry" />
        </mxCell>
        <mxCell id="WF_SVMyA3wsPpLtUFcRp-78" value="写入ECC&lt;br&gt;缓冲区#1" style="rounded=1;whiteSpace=wrap;html=1;shadow=0;labelBackgroundColor=none;strokeWidth=1;fontFamily=Verdana;fontSize=8;align=center;" parent="1" vertex="1">
          <mxGeometry x="920" y="1160" width="50" height="40" as="geometry" />
        </mxCell>
        <mxCell id="WF_SVMyA3wsPpLtUFcRp-79" value="" style="endArrow=none;dashed=1;html=1;dashPattern=1 3;strokeWidth=2;rounded=0;" parent="1" edge="1">
          <mxGeometry width="50" height="50" relative="1" as="geometry">
            <mxPoint x="980" y="1079.66" as="sourcePoint" />
            <mxPoint x="1030" y="1079.66" as="targetPoint" />
          </mxGeometry>
        </mxCell>
        <mxCell id="WF_SVMyA3wsPpLtUFcRp-80" value="" style="endArrow=none;dashed=1;html=1;dashPattern=1 3;strokeWidth=2;rounded=0;" parent="1" edge="1">
          <mxGeometry width="50" height="50" relative="1" as="geometry">
            <mxPoint x="980" y="1179.66" as="sourcePoint" />
            <mxPoint x="1030" y="1179.66" as="targetPoint" />
          </mxGeometry>
        </mxCell>
        <mxCell id="WF_SVMyA3wsPpLtUFcRp-81" value="写入ECC&lt;br&gt;缓冲区#7" style="rounded=1;whiteSpace=wrap;html=1;shadow=0;labelBackgroundColor=none;strokeWidth=1;fontFamily=Verdana;fontSize=8;align=center;" parent="1" vertex="1">
          <mxGeometry x="1040" y="1160" width="50" height="40" as="geometry" />
        </mxCell>
        <mxCell id="WF_SVMyA3wsPpLtUFcRp-82" value="ECC使能" style="rounded=1;whiteSpace=wrap;html=1;shadow=0;labelBackgroundColor=none;strokeWidth=1;fontFamily=Verdana;fontSize=8;align=center;" parent="1" vertex="1">
          <mxGeometry x="1040" y="1260" width="50" height="40" as="geometry" />
        </mxCell>
        <mxCell id="WF_SVMyA3wsPpLtUFcRp-83" value="batch计数器&lt;br&gt;累加&lt;br&gt;(0→1)" style="rounded=1;whiteSpace=wrap;html=1;shadow=0;labelBackgroundColor=none;strokeWidth=1;fontFamily=Verdana;fontSize=8;align=center;" parent="1" vertex="1">
          <mxGeometry x="860" y="1110" width="50" height="40" as="geometry" />
        </mxCell>
        <mxCell id="WF_SVMyA3wsPpLtUFcRp-84" value="batch计数器&lt;br&gt;累加&lt;br&gt;(1→2)" style="rounded=1;whiteSpace=wrap;html=1;shadow=0;labelBackgroundColor=none;strokeWidth=1;fontFamily=Verdana;fontSize=8;align=center;" parent="1" vertex="1">
          <mxGeometry x="920" y="1110" width="50" height="40" as="geometry" />
        </mxCell>
        <mxCell id="WF_SVMyA3wsPpLtUFcRp-85" value="batch计数器&lt;br&gt;累加&lt;br&gt;(7→0)" style="rounded=1;whiteSpace=wrap;html=1;shadow=0;labelBackgroundColor=none;strokeWidth=1;fontFamily=Verdana;fontSize=8;align=center;" parent="1" vertex="1">
          <mxGeometry x="1040" y="1110" width="50" height="40" as="geometry" />
        </mxCell>
        <mxCell id="WF_SVMyA3wsPpLtUFcRp-86" value="" style="endArrow=none;dashed=1;html=1;dashPattern=1 3;strokeWidth=2;rounded=0;" parent="1" edge="1">
          <mxGeometry width="50" height="50" relative="1" as="geometry">
            <mxPoint x="980" y="1129.66" as="sourcePoint" />
            <mxPoint x="1030" y="1129.66" as="targetPoint" />
          </mxGeometry>
        </mxCell>
        <mxCell id="WF_SVMyA3wsPpLtUFcRp-87" value="保存校验码&lt;br&gt;ECC关闭" style="rounded=1;whiteSpace=wrap;html=1;shadow=0;labelBackgroundColor=none;strokeWidth=1;fontFamily=Verdana;fontSize=8;align=center;" parent="1" vertex="1">
          <mxGeometry x="1100" y="1260" width="50" height="40" as="geometry" />
        </mxCell>
        <mxCell id="WF_SVMyA3wsPpLtUFcRp-89" value="" style="endArrow=classic;html=1;rounded=0;entryX=0.5;entryY=1;entryDx=0;entryDy=0;exitX=0.5;exitY=0;exitDx=0;exitDy=0;" parent="1" source="WF_SVMyA3wsPpLtUFcRp-83" target="WF_SVMyA3wsPpLtUFcRp-74" edge="1">
          <mxGeometry width="50" height="50" relative="1" as="geometry">
            <mxPoint x="980" y="1210" as="sourcePoint" />
            <mxPoint x="1030" y="1160" as="targetPoint" />
          </mxGeometry>
        </mxCell>
        <mxCell id="WF_SVMyA3wsPpLtUFcRp-90" value="" style="endArrow=classic;html=1;rounded=0;entryX=0.5;entryY=1;entryDx=0;entryDy=0;exitX=0.5;exitY=0;exitDx=0;exitDy=0;" parent="1" source="WF_SVMyA3wsPpLtUFcRp-84" target="WF_SVMyA3wsPpLtUFcRp-75" edge="1">
          <mxGeometry width="50" height="50" relative="1" as="geometry">
            <mxPoint x="980" y="1210" as="sourcePoint" />
            <mxPoint x="1030" y="1160" as="targetPoint" />
          </mxGeometry>
        </mxCell>
        <mxCell id="WF_SVMyA3wsPpLtUFcRp-91" value="" style="endArrow=classic;html=1;rounded=0;entryX=0.5;entryY=0;entryDx=0;entryDy=0;exitX=0.5;exitY=1;exitDx=0;exitDy=0;" parent="1" source="WF_SVMyA3wsPpLtUFcRp-83" target="WF_SVMyA3wsPpLtUFcRp-77" edge="1">
          <mxGeometry width="50" height="50" relative="1" as="geometry">
            <mxPoint x="980" y="1210" as="sourcePoint" />
            <mxPoint x="1030" y="1160" as="targetPoint" />
          </mxGeometry>
        </mxCell>
        <mxCell id="WF_SVMyA3wsPpLtUFcRp-92" value="" style="endArrow=classic;html=1;rounded=0;entryX=0.5;entryY=0;entryDx=0;entryDy=0;exitX=0.5;exitY=1;exitDx=0;exitDy=0;" parent="1" source="WF_SVMyA3wsPpLtUFcRp-84" target="WF_SVMyA3wsPpLtUFcRp-78" edge="1">
          <mxGeometry width="50" height="50" relative="1" as="geometry">
            <mxPoint x="980" y="1210" as="sourcePoint" />
            <mxPoint x="1030" y="1160" as="targetPoint" />
          </mxGeometry>
        </mxCell>
        <mxCell id="WF_SVMyA3wsPpLtUFcRp-93" value="" style="endArrow=classic;html=1;rounded=0;entryX=0.5;entryY=1;entryDx=0;entryDy=0;exitX=0.5;exitY=0;exitDx=0;exitDy=0;" parent="1" source="WF_SVMyA3wsPpLtUFcRp-85" target="WF_SVMyA3wsPpLtUFcRp-76" edge="1">
          <mxGeometry width="50" height="50" relative="1" as="geometry">
            <mxPoint x="980" y="1210" as="sourcePoint" />
            <mxPoint x="1030" y="1160" as="targetPoint" />
          </mxGeometry>
        </mxCell>
        <mxCell id="WF_SVMyA3wsPpLtUFcRp-94" value="" style="endArrow=classic;html=1;rounded=0;entryX=0.5;entryY=0;entryDx=0;entryDy=0;exitX=0.5;exitY=1;exitDx=0;exitDy=0;" parent="1" source="WF_SVMyA3wsPpLtUFcRp-85" target="WF_SVMyA3wsPpLtUFcRp-81" edge="1">
          <mxGeometry width="50" height="50" relative="1" as="geometry">
            <mxPoint x="980" y="1210" as="sourcePoint" />
            <mxPoint x="1030" y="1160" as="targetPoint" />
          </mxGeometry>
        </mxCell>
        <mxCell id="WF_SVMyA3wsPpLtUFcRp-98" value="加锁-解锁" style="rounded=1;whiteSpace=wrap;html=1;shadow=0;labelBackgroundColor=none;strokeWidth=1;fontFamily=Verdana;fontSize=8;align=center;dashed=1;" parent="1" vertex="1">
          <mxGeometry x="140" y="960" width="50" height="40" as="geometry" />
        </mxCell>
        <mxCell id="WF_SVMyA3wsPpLtUFcRp-102" value="wr_sop&lt;br&gt;拉高" style="rounded=1;whiteSpace=wrap;html=1;shadow=0;labelBackgroundColor=none;strokeWidth=1;fontFamily=Verdana;fontSize=8;align=center;" parent="1" vertex="1">
          <mxGeometry x="20" y="760" width="50" height="40" as="geometry" />
        </mxCell>
        <mxCell id="WF_SVMyA3wsPpLtUFcRp-103" value="wr_sop&lt;div&gt;拉低&lt;/div&gt;" style="rounded=1;whiteSpace=wrap;html=1;shadow=0;labelBackgroundColor=none;strokeWidth=1;fontFamily=Verdana;fontSize=8;align=center;" parent="1" vertex="1">
          <mxGeometry x="80" y="760" width="50" height="40" as="geometry" />
        </mxCell>
        <mxCell id="WF_SVMyA3wsPpLtUFcRp-104" value="写入SRAM&lt;br&gt;batch#7" style="rounded=1;whiteSpace=wrap;html=1;shadow=0;labelBackgroundColor=none;strokeWidth=1;fontFamily=Verdana;fontSize=8;align=center;" parent="1" vertex="1">
          <mxGeometry x="1280" y="1060" width="50" height="40" as="geometry" />
        </mxCell>
        <mxCell id="WF_SVMyA3wsPpLtUFcRp-105" value="写入ECC&lt;br&gt;缓冲区#7" style="rounded=1;whiteSpace=wrap;html=1;shadow=0;labelBackgroundColor=none;strokeWidth=1;fontFamily=Verdana;fontSize=8;align=center;" parent="1" vertex="1">
          <mxGeometry x="1280" y="1160" width="50" height="40" as="geometry" />
        </mxCell>
        <mxCell id="WF_SVMyA3wsPpLtUFcRp-106" value="batch计数器&lt;br&gt;累加&lt;br&gt;(7→0)" style="rounded=1;whiteSpace=wrap;html=1;shadow=0;labelBackgroundColor=none;strokeWidth=1;fontFamily=Verdana;fontSize=8;align=center;" parent="1" vertex="1">
          <mxGeometry x="1280" y="1110" width="50" height="40" as="geometry" />
        </mxCell>
        <mxCell id="WF_SVMyA3wsPpLtUFcRp-107" value="" style="endArrow=classic;html=1;rounded=0;entryX=0.5;entryY=1;entryDx=0;entryDy=0;exitX=0.5;exitY=0;exitDx=0;exitDy=0;" parent="1" source="WF_SVMyA3wsPpLtUFcRp-106" target="WF_SVMyA3wsPpLtUFcRp-104" edge="1">
          <mxGeometry width="50" height="50" relative="1" as="geometry">
            <mxPoint x="1220" y="1210" as="sourcePoint" />
            <mxPoint x="1270" y="1160" as="targetPoint" />
          </mxGeometry>
        </mxCell>
        <mxCell id="WF_SVMyA3wsPpLtUFcRp-108" value="" style="endArrow=classic;html=1;rounded=0;entryX=0.5;entryY=0;entryDx=0;entryDy=0;exitX=0.5;exitY=1;exitDx=0;exitDy=0;" parent="1" source="WF_SVMyA3wsPpLtUFcRp-106" target="WF_SVMyA3wsPpLtUFcRp-105" edge="1">
          <mxGeometry width="50" height="50" relative="1" as="geometry">
            <mxPoint x="1220" y="1210" as="sourcePoint" />
            <mxPoint x="1270" y="1160" as="targetPoint" />
          </mxGeometry>
        </mxCell>
        <mxCell id="WF_SVMyA3wsPpLtUFcRp-110" value="写入SRAM&lt;br&gt;batch#0" style="rounded=1;whiteSpace=wrap;html=1;shadow=0;labelBackgroundColor=none;strokeWidth=1;fontFamily=Verdana;fontSize=8;align=center;" parent="1" vertex="1">
          <mxGeometry x="1340" y="1060" width="50" height="40" as="geometry" />
        </mxCell>
        <mxCell id="WF_SVMyA3wsPpLtUFcRp-111" value="写入SRAM&lt;br&gt;batch#1" style="rounded=1;whiteSpace=wrap;html=1;shadow=0;labelBackgroundColor=none;strokeWidth=1;fontFamily=Verdana;fontSize=8;align=center;" parent="1" vertex="1">
          <mxGeometry x="1400" y="1060" width="50" height="40" as="geometry" />
        </mxCell>
        <mxCell id="WF_SVMyA3wsPpLtUFcRp-113" value="写入ECC&lt;br&gt;缓冲区#0" style="rounded=1;whiteSpace=wrap;html=1;shadow=0;labelBackgroundColor=none;strokeWidth=1;fontFamily=Verdana;fontSize=8;align=center;" parent="1" vertex="1">
          <mxGeometry x="1340" y="1160" width="50" height="40" as="geometry" />
        </mxCell>
        <mxCell id="WF_SVMyA3wsPpLtUFcRp-114" value="写入ECC&lt;br&gt;缓冲区#1" style="rounded=1;whiteSpace=wrap;html=1;shadow=0;labelBackgroundColor=none;strokeWidth=1;fontFamily=Verdana;fontSize=8;align=center;" parent="1" vertex="1">
          <mxGeometry x="1400" y="1160" width="50" height="40" as="geometry" />
        </mxCell>
        <mxCell id="WF_SVMyA3wsPpLtUFcRp-118" value="batch计数器&lt;br&gt;累加&lt;br&gt;(0→1)" style="rounded=1;whiteSpace=wrap;html=1;shadow=0;labelBackgroundColor=none;strokeWidth=1;fontFamily=Verdana;fontSize=8;align=center;" parent="1" vertex="1">
          <mxGeometry x="1340" y="1110" width="50" height="40" as="geometry" />
        </mxCell>
        <mxCell id="WF_SVMyA3wsPpLtUFcRp-119" value="batch计数器&lt;br&gt;累加&lt;br&gt;(1→2)" style="rounded=1;whiteSpace=wrap;html=1;shadow=0;labelBackgroundColor=none;strokeWidth=1;fontFamily=Verdana;fontSize=8;align=center;" parent="1" vertex="1">
          <mxGeometry x="1400" y="1110" width="50" height="40" as="geometry" />
        </mxCell>
        <mxCell id="WF_SVMyA3wsPpLtUFcRp-122" value="" style="endArrow=classic;html=1;rounded=0;entryX=0.5;entryY=1;entryDx=0;entryDy=0;exitX=0.5;exitY=0;exitDx=0;exitDy=0;" parent="1" source="WF_SVMyA3wsPpLtUFcRp-118" target="WF_SVMyA3wsPpLtUFcRp-110" edge="1">
          <mxGeometry width="50" height="50" relative="1" as="geometry">
            <mxPoint x="1460" y="1210" as="sourcePoint" />
            <mxPoint x="1510" y="1160" as="targetPoint" />
          </mxGeometry>
        </mxCell>
        <mxCell id="WF_SVMyA3wsPpLtUFcRp-123" value="" style="endArrow=classic;html=1;rounded=0;entryX=0.5;entryY=1;entryDx=0;entryDy=0;exitX=0.5;exitY=0;exitDx=0;exitDy=0;" parent="1" source="WF_SVMyA3wsPpLtUFcRp-119" target="WF_SVMyA3wsPpLtUFcRp-111" edge="1">
          <mxGeometry width="50" height="50" relative="1" as="geometry">
            <mxPoint x="1460" y="1210" as="sourcePoint" />
            <mxPoint x="1510" y="1160" as="targetPoint" />
          </mxGeometry>
        </mxCell>
        <mxCell id="WF_SVMyA3wsPpLtUFcRp-124" value="" style="endArrow=classic;html=1;rounded=0;entryX=0.5;entryY=0;entryDx=0;entryDy=0;exitX=0.5;exitY=1;exitDx=0;exitDy=0;" parent="1" source="WF_SVMyA3wsPpLtUFcRp-118" target="WF_SVMyA3wsPpLtUFcRp-113" edge="1">
          <mxGeometry width="50" height="50" relative="1" as="geometry">
            <mxPoint x="1460" y="1210" as="sourcePoint" />
            <mxPoint x="1510" y="1160" as="targetPoint" />
          </mxGeometry>
        </mxCell>
        <mxCell id="WF_SVMyA3wsPpLtUFcRp-125" value="" style="endArrow=classic;html=1;rounded=0;entryX=0.5;entryY=0;entryDx=0;entryDy=0;exitX=0.5;exitY=1;exitDx=0;exitDy=0;" parent="1" source="WF_SVMyA3wsPpLtUFcRp-119" target="WF_SVMyA3wsPpLtUFcRp-114" edge="1">
          <mxGeometry width="50" height="50" relative="1" as="geometry">
            <mxPoint x="1460" y="1210" as="sourcePoint" />
            <mxPoint x="1510" y="1160" as="targetPoint" />
          </mxGeometry>
        </mxCell>
        <mxCell id="WF_SVMyA3wsPpLtUFcRp-130" value="wr_eop&lt;br&gt;拉高" style="rounded=1;whiteSpace=wrap;html=1;shadow=0;labelBackgroundColor=none;strokeWidth=1;fontFamily=Verdana;fontSize=8;align=center;" parent="1" vertex="1">
          <mxGeometry x="1460" y="760" width="50" height="40" as="geometry" />
        </mxCell>
        <mxCell id="WF_SVMyA3wsPpLtUFcRp-131" value="wr_eop&lt;br&gt;拉低" style="rounded=1;whiteSpace=wrap;html=1;shadow=0;labelBackgroundColor=none;strokeWidth=1;fontFamily=Verdana;fontSize=8;align=center;" parent="1" vertex="1">
          <mxGeometry x="1520" y="760" width="50" height="40" as="geometry" />
        </mxCell>
        <mxCell id="WF_SVMyA3wsPpLtUFcRp-132" value="写入SRAM&lt;br&gt;batch#2" style="rounded=1;whiteSpace=wrap;html=1;shadow=0;labelBackgroundColor=none;strokeWidth=1;fontFamily=Verdana;fontSize=8;align=center;" parent="1" vertex="1">
          <mxGeometry x="1460" y="1060" width="50" height="40" as="geometry" />
        </mxCell>
        <mxCell id="WF_SVMyA3wsPpLtUFcRp-133" value="写入ECC&lt;br&gt;缓冲区#2" style="rounded=1;whiteSpace=wrap;html=1;shadow=0;labelBackgroundColor=none;strokeWidth=1;fontFamily=Verdana;fontSize=8;align=center;" parent="1" vertex="1">
          <mxGeometry x="1460" y="1160" width="50" height="40" as="geometry" />
        </mxCell>
        <mxCell id="WF_SVMyA3wsPpLtUFcRp-134" value="batch计数器&lt;br&gt;累加&lt;br&gt;(2→3)" style="rounded=1;whiteSpace=wrap;html=1;shadow=0;labelBackgroundColor=none;strokeWidth=1;fontFamily=Verdana;fontSize=8;align=center;" parent="1" vertex="1">
          <mxGeometry x="1460" y="1110" width="50" height="40" as="geometry" />
        </mxCell>
        <mxCell id="WF_SVMyA3wsPpLtUFcRp-135" value="" style="endArrow=classic;html=1;rounded=0;entryX=0.5;entryY=1;entryDx=0;entryDy=0;exitX=0.5;exitY=0;exitDx=0;exitDy=0;" parent="1" source="WF_SVMyA3wsPpLtUFcRp-134" target="WF_SVMyA3wsPpLtUFcRp-132" edge="1">
          <mxGeometry width="50" height="50" relative="1" as="geometry">
            <mxPoint x="1520" y="1210" as="sourcePoint" />
            <mxPoint x="1570" y="1160" as="targetPoint" />
          </mxGeometry>
        </mxCell>
        <mxCell id="WF_SVMyA3wsPpLtUFcRp-136" value="" style="endArrow=classic;html=1;rounded=0;entryX=0.5;entryY=0;entryDx=0;entryDy=0;exitX=0.5;exitY=1;exitDx=0;exitDy=0;" parent="1" source="WF_SVMyA3wsPpLtUFcRp-134" target="WF_SVMyA3wsPpLtUFcRp-133" edge="1">
          <mxGeometry width="50" height="50" relative="1" as="geometry">
            <mxPoint x="1520" y="1210" as="sourcePoint" />
            <mxPoint x="1570" y="1160" as="targetPoint" />
          </mxGeometry>
        </mxCell>
        <mxCell id="WF_SVMyA3wsPpLtUFcRp-137" value="ECC&lt;br&gt;缓冲区重置" style="rounded=1;whiteSpace=wrap;html=1;shadow=0;labelBackgroundColor=none;strokeWidth=1;fontFamily=Verdana;fontSize=8;align=center;" parent="1" vertex="1">
          <mxGeometry x="1340" y="1210" width="50" height="40" as="geometry" />
        </mxCell>
        <mxCell id="WF_SVMyA3wsPpLtUFcRp-138" value="ECC使能" style="rounded=1;whiteSpace=wrap;html=1;shadow=0;labelBackgroundColor=none;strokeWidth=1;fontFamily=Verdana;fontSize=8;align=center;" parent="1" vertex="1">
          <mxGeometry x="1280" y="1260" width="50" height="40" as="geometry" />
        </mxCell>
        <mxCell id="WF_SVMyA3wsPpLtUFcRp-139" value="保存校验码&lt;br&gt;ECC关闭" style="rounded=1;whiteSpace=wrap;html=1;shadow=0;labelBackgroundColor=none;strokeWidth=1;fontFamily=Verdana;fontSize=8;align=center;" parent="1" vertex="1">
          <mxGeometry x="1340" y="1260" width="50" height="40" as="geometry" />
        </mxCell>
        <mxCell id="WF_SVMyA3wsPpLtUFcRp-140" value="" style="endArrow=none;dashed=1;html=1;dashPattern=1 3;strokeWidth=2;rounded=0;" parent="1" edge="1">
          <mxGeometry width="50" height="50" relative="1" as="geometry">
            <mxPoint x="1100" y="1079.67" as="sourcePoint" />
            <mxPoint x="1270" y="1080" as="targetPoint" />
          </mxGeometry>
        </mxCell>
        <mxCell id="WF_SVMyA3wsPpLtUFcRp-141" value="" style="endArrow=none;dashed=1;html=1;dashPattern=1 3;strokeWidth=2;rounded=0;" parent="1" edge="1">
          <mxGeometry width="50" height="50" relative="1" as="geometry">
            <mxPoint x="1100" y="1129.67" as="sourcePoint" />
            <mxPoint x="1270" y="1130" as="targetPoint" />
          </mxGeometry>
        </mxCell>
        <mxCell id="WF_SVMyA3wsPpLtUFcRp-142" value="" style="endArrow=none;dashed=1;html=1;dashPattern=1 3;strokeWidth=2;rounded=0;" parent="1" edge="1">
          <mxGeometry width="50" height="50" relative="1" as="geometry">
            <mxPoint x="1100" y="1179.67" as="sourcePoint" />
            <mxPoint x="1270" y="1180" as="targetPoint" />
          </mxGeometry>
        </mxCell>
        <mxCell id="WF_SVMyA3wsPpLtUFcRp-143" value="" style="endArrow=none;dashed=1;html=1;dashPattern=1 3;strokeWidth=2;rounded=0;" parent="1" edge="1">
          <mxGeometry width="50" height="50" relative="1" as="geometry">
            <mxPoint x="1160" y="1279.67" as="sourcePoint" />
            <mxPoint x="1270" y="1280" as="targetPoint" />
          </mxGeometry>
        </mxCell>
        <mxCell id="WF_SVMyA3wsPpLtUFcRp-144" value="" style="endArrow=none;dashed=1;html=1;dashPattern=1 3;strokeWidth=2;rounded=0;" parent="1" edge="1">
          <mxGeometry width="50" height="50" relative="1" as="geometry">
            <mxPoint x="1100" y="1230" as="sourcePoint" />
            <mxPoint x="1270" y="1230" as="targetPoint" />
          </mxGeometry>
        </mxCell>
        <mxCell id="WF_SVMyA3wsPpLtUFcRp-146" value="ECC使能" style="rounded=1;whiteSpace=wrap;html=1;shadow=0;labelBackgroundColor=none;strokeWidth=1;fontFamily=Verdana;fontSize=8;align=center;" parent="1" vertex="1">
          <mxGeometry x="1460" y="1260" width="50" height="40" as="geometry" />
        </mxCell>
        <mxCell id="WF_SVMyA3wsPpLtUFcRp-147" value="保存校验码&lt;br&gt;ECC关闭" style="rounded=1;whiteSpace=wrap;html=1;shadow=0;labelBackgroundColor=none;strokeWidth=1;fontFamily=Verdana;fontSize=8;align=center;" parent="1" vertex="1">
          <mxGeometry x="1520" y="1260" width="50" height="40" as="geometry" />
        </mxCell>
        <mxCell id="WF_SVMyA3wsPpLtUFcRp-148" value="空闲队列&lt;br&gt;弹出拉低" style="rounded=1;whiteSpace=wrap;html=1;shadow=0;labelBackgroundColor=none;strokeWidth=1;fontFamily=Verdana;fontSize=8;align=center;" parent="1" vertex="1">
          <mxGeometry x="620" y="1010" width="50" height="40" as="geometry" />
        </mxCell>
        <mxCell id="WF_SVMyA3wsPpLtUFcRp-150" value="空闲队列&lt;br&gt;弹出拉低" style="rounded=1;whiteSpace=wrap;html=1;shadow=0;labelBackgroundColor=none;strokeWidth=1;fontFamily=Verdana;fontSize=8;align=center;" parent="1" vertex="1">
          <mxGeometry x="860" y="1010" width="50" height="40" as="geometry" />
        </mxCell>
        <mxCell id="WF_SVMyA3wsPpLtUFcRp-151" value="获取页地址&lt;br&gt;空闲队列&lt;br&gt;弹出拉高" style="rounded=1;whiteSpace=wrap;html=1;shadow=0;labelBackgroundColor=none;strokeWidth=1;fontFamily=Verdana;fontSize=8;align=center;" parent="1" vertex="1">
          <mxGeometry x="800" y="1010" width="50" height="40" as="geometry" />
        </mxCell>
        <mxCell id="WF_SVMyA3wsPpLtUFcRp-152" value="获取页地址&lt;br&gt;空闲队列&lt;br&gt;弹出拉高" style="rounded=1;whiteSpace=wrap;html=1;shadow=0;labelBackgroundColor=none;strokeWidth=1;fontFamily=Verdana;fontSize=8;align=center;" parent="1" vertex="1">
          <mxGeometry x="1280" y="1010" width="50" height="40" as="geometry" />
        </mxCell>
        <mxCell id="WF_SVMyA3wsPpLtUFcRp-153" value="获取页地址&lt;br&gt;空闲队列&lt;br&gt;弹出拉高" style="rounded=1;whiteSpace=wrap;html=1;shadow=0;labelBackgroundColor=none;strokeWidth=1;fontFamily=Verdana;fontSize=8;align=center;" parent="1" vertex="1">
          <mxGeometry x="1040" y="1010" width="50" height="40" as="geometry" />
        </mxCell>
        <mxCell id="WF_SVMyA3wsPpLtUFcRp-154" value="空闲队列&lt;br&gt;弹出拉低" style="rounded=1;whiteSpace=wrap;html=1;shadow=0;labelBackgroundColor=none;strokeWidth=1;fontFamily=Verdana;fontSize=8;align=center;" parent="1" vertex="1">
          <mxGeometry x="1100" y="1010" width="50" height="40" as="geometry" />
        </mxCell>
        <mxCell id="WF_SVMyA3wsPpLtUFcRp-155" value="空闲队列&lt;br&gt;弹出拉低" style="rounded=1;whiteSpace=wrap;html=1;shadow=0;labelBackgroundColor=none;strokeWidth=1;fontFamily=Verdana;fontSize=8;align=center;" parent="1" vertex="1">
          <mxGeometry x="1340" y="1010" width="50" height="40" as="geometry" />
        </mxCell>
        <mxCell id="WF_SVMyA3wsPpLtUFcRp-162" value="发送半字&lt;br&gt;#0" style="rounded=1;whiteSpace=wrap;html=1;shadow=0;labelBackgroundColor=none;strokeWidth=1;fontFamily=Verdana;fontSize=8;align=center;" parent="1" vertex="1">
          <mxGeometry x="560" y="810" width="50" height="40" as="geometry" />
        </mxCell>
        <mxCell id="WF_SVMyA3wsPpLtUFcRp-163" value="发送半字&lt;br&gt;#1" style="rounded=1;whiteSpace=wrap;html=1;shadow=0;labelBackgroundColor=none;strokeWidth=1;fontFamily=Verdana;fontSize=8;align=center;" parent="1" vertex="1">
          <mxGeometry x="620" y="810" width="50" height="40" as="geometry" />
        </mxCell>
        <mxCell id="WF_SVMyA3wsPpLtUFcRp-165" value="延迟计数器&lt;br&gt;累加&lt;br&gt;(0→1)" style="rounded=1;whiteSpace=wrap;html=1;shadow=0;labelBackgroundColor=none;strokeWidth=1;fontFamily=Verdana;fontSize=8;align=center;" parent="1" vertex="1">
          <mxGeometry x="140" y="810" width="50" height="40" as="geometry" />
        </mxCell>
        <mxCell id="WF_SVMyA3wsPpLtUFcRp-166" value="延迟计数器&lt;br&gt;累加" style="rounded=1;whiteSpace=wrap;html=1;shadow=0;labelBackgroundColor=none;strokeWidth=1;fontFamily=Verdana;fontSize=8;align=center;" parent="1" vertex="1">
          <mxGeometry x="200" y="810" width="50" height="40" as="geometry" />
        </mxCell>
        <mxCell id="WF_SVMyA3wsPpLtUFcRp-170" value="" style="endArrow=none;dashed=1;html=1;dashPattern=1 3;strokeWidth=2;rounded=0;" parent="1" edge="1">
          <mxGeometry width="50" height="50" relative="1" as="geometry">
            <mxPoint x="440" y="829.58" as="sourcePoint" />
            <mxPoint x="490" y="829.58" as="targetPoint" />
          </mxGeometry>
        </mxCell>
        <mxCell id="WF_SVMyA3wsPpLtUFcRp-171" value="延迟计数器&lt;br&gt;累加(31→32)" style="rounded=1;whiteSpace=wrap;html=1;shadow=0;labelBackgroundColor=none;strokeWidth=1;fontFamily=Verdana;fontSize=8;align=center;" parent="1" vertex="1">
          <mxGeometry x="500" y="810" width="50" height="40" as="geometry" />
        </mxCell>
        <mxCell id="WF_SVMyA3wsPpLtUFcRp-172" value="读控制半字&lt;br&gt;生成信号" style="rounded=1;whiteSpace=wrap;html=1;shadow=0;labelBackgroundColor=none;strokeWidth=1;fontFamily=Verdana;fontSize=8;align=center;" parent="1" vertex="1">
          <mxGeometry x="80" y="810" width="50" height="40" as="geometry" />
        </mxCell>
        <mxCell id="WF_SVMyA3wsPpLtUFcRp-176" value="" style="endArrow=classic;html=1;rounded=0;exitX=0.5;exitY=1;exitDx=0;exitDy=0;entryX=0;entryY=0.5;entryDx=0;entryDy=0;" parent="1" source="WF_SVMyA3wsPpLtUFcRp-172" target="_o2dJ1vOlYaZSfBBGsUN-45" edge="1">
          <mxGeometry width="50" height="50" relative="1" as="geometry">
            <mxPoint x="260" y="840" as="sourcePoint" />
            <mxPoint x="310" y="790" as="targetPoint" />
            <Array as="points">
              <mxPoint x="105" y="930" />
            </Array>
          </mxGeometry>
        </mxCell>
        <mxCell id="WF_SVMyA3wsPpLtUFcRp-177" value="" style="endArrow=none;dashed=1;html=1;dashPattern=1 3;strokeWidth=2;rounded=0;entryX=0;entryY=0.5;entryDx=0;entryDy=0;" parent="1" target="WF_SVMyA3wsPpLtUFcRp-178" edge="1">
          <mxGeometry width="50" height="50" relative="1" as="geometry">
            <mxPoint x="680" y="829.62" as="sourcePoint" />
            <mxPoint x="1390" y="830" as="targetPoint" />
          </mxGeometry>
        </mxCell>
        <mxCell id="WF_SVMyA3wsPpLtUFcRp-178" value="发送半字&lt;br&gt;#1" style="rounded=1;whiteSpace=wrap;html=1;shadow=0;labelBackgroundColor=none;strokeWidth=1;fontFamily=Verdana;fontSize=8;align=center;" parent="1" vertex="1">
          <mxGeometry x="1340" y="810" width="50" height="40" as="geometry" />
        </mxCell>
        <mxCell id="WF_SVMyA3wsPpLtUFcRp-179" value="" style="endArrow=classic;html=1;rounded=0;exitX=0.5;exitY=1;exitDx=0;exitDy=0;entryX=0;entryY=0.5;entryDx=0;entryDy=0;" parent="1" target="WF_SVMyA3wsPpLtUFcRp-180" edge="1">
          <mxGeometry width="50" height="50" relative="1" as="geometry">
            <mxPoint x="105" y="850" as="sourcePoint" />
            <mxPoint x="130" y="1360" as="targetPoint" />
            <Array as="points">
              <mxPoint x="105" y="930" />
              <mxPoint x="105" y="1330" />
            </Array>
          </mxGeometry>
        </mxCell>
        <mxCell id="WF_SVMyA3wsPpLtUFcRp-180" value="初始/持久化&lt;br&gt;去向端口&lt;br&gt;去向队列" style="rounded=1;whiteSpace=wrap;html=1;shadow=0;labelBackgroundColor=none;strokeWidth=1;fontFamily=Verdana;fontSize=8;align=center;" parent="1" vertex="1">
          <mxGeometry x="140" y="1310" width="50" height="40" as="geometry" />
        </mxCell>
        <mxCell id="WF_SVMyA3wsPpLtUFcRp-181" value="剩余&lt;br&gt;半字数&lt;br&gt;-1" style="rounded=1;whiteSpace=wrap;html=1;shadow=0;labelBackgroundColor=none;strokeWidth=1;fontFamily=Verdana;fontSize=8;align=center;" parent="1" vertex="1">
          <mxGeometry x="620" y="1360" width="50" height="40" as="geometry" />
        </mxCell>
        <mxCell id="WF_SVMyA3wsPpLtUFcRp-182" value="剩余&lt;br&gt;半字数&lt;br&gt;-1" style="rounded=1;whiteSpace=wrap;html=1;shadow=0;labelBackgroundColor=none;strokeWidth=1;fontFamily=Verdana;fontSize=8;align=center;" parent="1" vertex="1">
          <mxGeometry x="680" y="1360" width="50" height="40" as="geometry" />
        </mxCell>
        <mxCell id="WF_SVMyA3wsPpLtUFcRp-183" value="" style="endArrow=none;dashed=1;html=1;dashPattern=1 3;strokeWidth=2;rounded=0;" parent="1" edge="1">
          <mxGeometry width="50" height="50" relative="1" as="geometry">
            <mxPoint x="740" y="1379.5800000000002" as="sourcePoint" />
            <mxPoint x="1270" y="1380" as="targetPoint" />
          </mxGeometry>
        </mxCell>
        <mxCell id="WF_SVMyA3wsPpLtUFcRp-187" value="剩余&lt;br&gt;半字数&lt;br&gt;-1" style="rounded=1;whiteSpace=wrap;html=1;shadow=0;labelBackgroundColor=none;strokeWidth=1;fontFamily=Verdana;fontSize=8;align=center;" parent="1" vertex="1">
          <mxGeometry x="1280" y="1360" width="50" height="40" as="geometry" />
        </mxCell>
        <mxCell id="WF_SVMyA3wsPpLtUFcRp-188" value="剩余&lt;br&gt;半字数&lt;br&gt;-1" style="rounded=1;whiteSpace=wrap;html=1;shadow=0;labelBackgroundColor=none;strokeWidth=1;fontFamily=Verdana;fontSize=8;align=center;" parent="1" vertex="1">
          <mxGeometry x="1340" y="1360" width="50" height="40" as="geometry" />
        </mxCell>
        <mxCell id="WF_SVMyA3wsPpLtUFcRp-189" value="剩余&lt;br&gt;半字数&lt;br&gt;-1" style="rounded=1;whiteSpace=wrap;html=1;shadow=0;labelBackgroundColor=none;strokeWidth=1;fontFamily=Verdana;fontSize=8;align=center;" parent="1" vertex="1">
          <mxGeometry x="1400" y="1360" width="50" height="40" as="geometry" />
        </mxCell>
        <mxCell id="WF_SVMyA3wsPpLtUFcRp-190" value="剩余&lt;br&gt;半字数&lt;br&gt;-1" style="rounded=1;whiteSpace=wrap;html=1;shadow=0;labelBackgroundColor=none;strokeWidth=1;fontFamily=Verdana;fontSize=8;align=center;" parent="1" vertex="1">
          <mxGeometry x="1460" y="1360" width="50" height="40" as="geometry" />
        </mxCell>
        <mxCell id="WF_SVMyA3wsPpLtUFcRp-191" value="" style="endArrow=classic;html=1;rounded=0;exitX=0.5;exitY=0;exitDx=0;exitDy=0;entryX=0.5;entryY=1;entryDx=0;entryDy=0;" parent="1" source="WF_SVMyA3wsPpLtUFcRp-190" target="WF_SVMyA3wsPpLtUFcRp-146" edge="1">
          <mxGeometry width="50" height="50" relative="1" as="geometry">
            <mxPoint x="1500" y="1290" as="sourcePoint" />
            <mxPoint x="1550" y="1240" as="targetPoint" />
          </mxGeometry>
        </mxCell>
        <mxCell id="WF_SVMyA3wsPpLtUFcRp-196" value="ECC&lt;br&gt;缓冲区重置" style="rounded=1;whiteSpace=wrap;html=1;shadow=0;labelBackgroundColor=none;strokeWidth=1;fontFamily=Verdana;fontSize=8;align=center;" parent="1" vertex="1">
          <mxGeometry x="620" y="1210" width="50" height="40" as="geometry" />
        </mxCell>
        <mxCell id="WF_SVMyA3wsPpLtUFcRp-201" value="记录头&lt;br&gt;页地址" style="rounded=1;whiteSpace=wrap;html=1;shadow=0;labelBackgroundColor=none;strokeWidth=1;fontFamily=Verdana;fontSize=8;align=center;" parent="1" vertex="1">
          <mxGeometry x="560" y="1410" width="50" height="40" as="geometry" />
        </mxCell>
        <mxCell id="WF_SVMyA3wsPpLtUFcRp-203" value="写入跳转表" style="rounded=1;whiteSpace=wrap;html=1;shadow=0;labelBackgroundColor=none;strokeWidth=1;fontFamily=Verdana;fontSize=8;align=center;" parent="1" vertex="1">
          <mxGeometry x="800" y="1410" width="50" height="40" as="geometry" />
        </mxCell>
        <mxCell id="WF_SVMyA3wsPpLtUFcRp-204" value="写入跳转表" style="rounded=1;whiteSpace=wrap;html=1;shadow=0;labelBackgroundColor=none;strokeWidth=1;fontFamily=Verdana;fontSize=8;align=center;" parent="1" vertex="1">
          <mxGeometry x="1040" y="1410" width="50" height="40" as="geometry" />
        </mxCell>
        <mxCell id="WF_SVMyA3wsPpLtUFcRp-205" value="" style="endArrow=classic;html=1;rounded=0;exitX=0.5;exitY=1;exitDx=0;exitDy=0;entryX=0.5;entryY=0;entryDx=0;entryDy=0;" parent="1" source="WF_SVMyA3wsPpLtUFcRp-2" target="WF_SVMyA3wsPpLtUFcRp-201" edge="1">
          <mxGeometry width="50" height="50" relative="1" as="geometry">
            <mxPoint x="860" y="1300" as="sourcePoint" />
            <mxPoint x="910" y="1250" as="targetPoint" />
          </mxGeometry>
        </mxCell>
        <mxCell id="WF_SVMyA3wsPpLtUFcRp-208" value="记录尾地址" style="rounded=1;whiteSpace=wrap;html=1;shadow=0;labelBackgroundColor=none;strokeWidth=1;fontFamily=Verdana;fontSize=8;align=center;" parent="1" vertex="1">
          <mxGeometry x="1280" y="1410" width="50" height="40" as="geometry" />
        </mxCell>
        <mxCell id="WF_SVMyA3wsPpLtUFcRp-225" value="发送半字&lt;br&gt;#2" style="rounded=1;whiteSpace=wrap;html=1;shadow=0;labelBackgroundColor=none;strokeWidth=1;fontFamily=Verdana;fontSize=8;align=center;" parent="1" vertex="1">
          <mxGeometry x="1400" y="810" width="50" height="40" as="geometry" />
        </mxCell>
        <mxCell id="WF_SVMyA3wsPpLtUFcRp-231" value="初始/持久化&lt;br&gt;半字数" style="rounded=1;whiteSpace=wrap;html=1;shadow=0;labelBackgroundColor=none;strokeWidth=1;fontFamily=Verdana;fontSize=8;align=center;" parent="1" vertex="1">
          <mxGeometry x="140" y="1360" width="50" height="40" as="geometry" />
        </mxCell>
        <mxCell id="WF_SVMyA3wsPpLtUFcRp-232" value="" style="endArrow=none;dashed=1;html=1;dashPattern=1 3;strokeWidth=2;rounded=0;" parent="1" edge="1">
          <mxGeometry width="50" height="50" relative="1" as="geometry">
            <mxPoint x="260" y="979.52" as="sourcePoint" />
            <mxPoint x="490" y="979.94" as="targetPoint" />
          </mxGeometry>
        </mxCell>
        <mxCell id="WF_SVMyA3wsPpLtUFcRp-234" value="延迟计数器&lt;br&gt;累加" style="rounded=1;whiteSpace=wrap;html=1;shadow=0;labelBackgroundColor=none;strokeWidth=1;fontFamily=Verdana;fontSize=8;align=center;" parent="1" vertex="1">
          <mxGeometry x="260" y="810" width="50" height="40" as="geometry" />
        </mxCell>
        <mxCell id="WF_SVMyA3wsPpLtUFcRp-235" value="延迟计数器&lt;br&gt;累加" style="rounded=1;whiteSpace=wrap;html=1;shadow=0;labelBackgroundColor=none;strokeWidth=1;fontFamily=Verdana;fontSize=8;align=center;" parent="1" vertex="1">
          <mxGeometry x="320" y="810" width="50" height="40" as="geometry" />
        </mxCell>
        <mxCell id="WF_SVMyA3wsPpLtUFcRp-236" value="延迟计数器&lt;br&gt;累加" style="rounded=1;whiteSpace=wrap;html=1;shadow=0;labelBackgroundColor=none;strokeWidth=1;fontFamily=Verdana;fontSize=8;align=center;" parent="1" vertex="1">
          <mxGeometry x="380" y="810" width="50" height="40" as="geometry" />
        </mxCell>
        <mxCell id="WF_SVMyA3wsPpLtUFcRp-243" value="延迟计数器&lt;br&gt;累加&lt;br&gt;(0→1)" style="rounded=1;whiteSpace=wrap;html=1;shadow=0;labelBackgroundColor=none;strokeWidth=1;fontFamily=Verdana;fontSize=8;align=center;" parent="1" vertex="1">
          <mxGeometry x="140" y="520" width="50" height="40" as="geometry" />
        </mxCell>
        <mxCell id="WF_SVMyA3wsPpLtUFcRp-244" value="延迟计数器&lt;br&gt;累加" style="rounded=1;whiteSpace=wrap;html=1;shadow=0;labelBackgroundColor=none;strokeWidth=1;fontFamily=Verdana;fontSize=8;align=center;" parent="1" vertex="1">
          <mxGeometry x="200" y="520" width="50" height="40" as="geometry" />
        </mxCell>
        <mxCell id="WF_SVMyA3wsPpLtUFcRp-245" value="" style="endArrow=none;dashed=1;html=1;dashPattern=1 3;strokeWidth=2;rounded=0;" parent="1" edge="1">
          <mxGeometry width="50" height="50" relative="1" as="geometry">
            <mxPoint x="440" y="539.58" as="sourcePoint" />
            <mxPoint x="490" y="539.58" as="targetPoint" />
          </mxGeometry>
        </mxCell>
        <mxCell id="WF_SVMyA3wsPpLtUFcRp-246" value="延迟计数器&lt;br&gt;累加(31→32)" style="rounded=1;whiteSpace=wrap;html=1;shadow=0;labelBackgroundColor=none;strokeWidth=1;fontFamily=Verdana;fontSize=8;align=center;" parent="1" vertex="1">
          <mxGeometry x="500" y="520" width="50" height="40" as="geometry" />
        </mxCell>
        <mxCell id="WF_SVMyA3wsPpLtUFcRp-247" value="延迟计数器&lt;br&gt;累加" style="rounded=1;whiteSpace=wrap;html=1;shadow=0;labelBackgroundColor=none;strokeWidth=1;fontFamily=Verdana;fontSize=8;align=center;" parent="1" vertex="1">
          <mxGeometry x="260" y="520" width="50" height="40" as="geometry" />
        </mxCell>
        <mxCell id="WF_SVMyA3wsPpLtUFcRp-248" value="延迟计数器&lt;br&gt;累加" style="rounded=1;whiteSpace=wrap;html=1;shadow=0;labelBackgroundColor=none;strokeWidth=1;fontFamily=Verdana;fontSize=8;align=center;" parent="1" vertex="1">
          <mxGeometry x="320" y="520" width="50" height="40" as="geometry" />
        </mxCell>
        <mxCell id="WF_SVMyA3wsPpLtUFcRp-249" value="延迟计数器&lt;br&gt;累加" style="rounded=1;whiteSpace=wrap;html=1;shadow=0;labelBackgroundColor=none;strokeWidth=1;fontFamily=Verdana;fontSize=8;align=center;" parent="1" vertex="1">
          <mxGeometry x="380" y="520" width="50" height="40" as="geometry" />
        </mxCell>
        <mxCell id="WF_SVMyA3wsPpLtUFcRp-252" value="获取半字&lt;br&gt;#0" style="rounded=1;whiteSpace=wrap;html=1;shadow=0;labelBackgroundColor=none;strokeWidth=1;fontFamily=Verdana;fontSize=8;align=center;" parent="1" vertex="1">
          <mxGeometry x="860" y="860" width="50" height="40" as="geometry" />
        </mxCell>
        <mxCell id="WF_SVMyA3wsPpLtUFcRp-253" value="获取半字&lt;br&gt;#1" style="rounded=1;whiteSpace=wrap;html=1;shadow=0;labelBackgroundColor=none;strokeWidth=1;fontFamily=Verdana;fontSize=8;align=center;" parent="1" vertex="1">
          <mxGeometry x="920" y="860" width="50" height="40" as="geometry" />
        </mxCell>
        <mxCell id="WF_SVMyA3wsPpLtUFcRp-254" value="获取半字&lt;br&gt;#7" style="rounded=1;whiteSpace=wrap;html=1;shadow=0;labelBackgroundColor=none;strokeWidth=1;fontFamily=Verdana;fontSize=8;align=center;" parent="1" vertex="1">
          <mxGeometry x="1040" y="860" width="50" height="40" as="geometry" />
        </mxCell>
        <mxCell id="WF_SVMyA3wsPpLtUFcRp-255" value="获取半字&lt;br&gt;#7" style="rounded=1;whiteSpace=wrap;html=1;shadow=0;labelBackgroundColor=none;strokeWidth=1;fontFamily=Verdana;fontSize=8;align=center;" parent="1" vertex="1">
          <mxGeometry x="1280" y="860" width="50" height="40" as="geometry" />
        </mxCell>
        <mxCell id="WF_SVMyA3wsPpLtUFcRp-256" value="获取半字&lt;br&gt;#0" style="rounded=1;whiteSpace=wrap;html=1;shadow=0;labelBackgroundColor=none;strokeWidth=1;fontFamily=Verdana;fontSize=8;align=center;" parent="1" vertex="1">
          <mxGeometry x="1340" y="860" width="50" height="40" as="geometry" />
        </mxCell>
        <mxCell id="WF_SVMyA3wsPpLtUFcRp-257" value="获取半字&lt;br&gt;#1" style="rounded=1;whiteSpace=wrap;html=1;shadow=0;labelBackgroundColor=none;strokeWidth=1;fontFamily=Verdana;fontSize=8;align=center;" parent="1" vertex="1">
          <mxGeometry x="1400" y="860" width="50" height="40" as="geometry" />
        </mxCell>
        <mxCell id="WF_SVMyA3wsPpLtUFcRp-258" value="获取半字&lt;br&gt;#2" style="rounded=1;whiteSpace=wrap;html=1;shadow=0;labelBackgroundColor=none;strokeWidth=1;fontFamily=Verdana;fontSize=8;align=center;" parent="1" vertex="1">
          <mxGeometry x="1460" y="860" width="50" height="40" as="geometry" />
        </mxCell>
        <mxCell id="WF_SVMyA3wsPpLtUFcRp-259" value="加锁-解锁" style="rounded=1;whiteSpace=wrap;html=1;shadow=0;labelBackgroundColor=none;strokeWidth=1;fontFamily=Verdana;fontSize=8;align=center;dashed=1;" parent="1" vertex="1">
          <mxGeometry x="200" y="960" width="50" height="40" as="geometry" />
        </mxCell>
        <mxCell id="WF_SVMyA3wsPpLtUFcRp-260" value="加锁-解锁" style="rounded=1;whiteSpace=wrap;html=1;shadow=0;labelBackgroundColor=none;strokeWidth=1;fontFamily=Verdana;fontSize=8;align=center;dashed=1;" parent="1" vertex="1">
          <mxGeometry x="500" y="960" width="50" height="40" as="geometry" />
        </mxCell>
        <mxCell id="WF_SVMyA3wsPpLtUFcRp-267" value="batch计数器&lt;br&gt;重置&lt;br&gt;(3→0)" style="rounded=1;whiteSpace=wrap;html=1;shadow=0;labelBackgroundColor=none;strokeWidth=1;fontFamily=Verdana;fontSize=8;align=center;" parent="1" vertex="1">
          <mxGeometry x="1520" y="1110" width="50" height="40" as="geometry" />
        </mxCell>
        <mxCell id="WF_SVMyA3wsPpLtUFcRp-271" value="无剩余半字" style="rounded=1;whiteSpace=wrap;html=1;shadow=0;labelBackgroundColor=none;strokeWidth=1;fontFamily=Verdana;fontSize=8;align=center;" parent="1" vertex="1">
          <mxGeometry x="1520" y="1360" width="50" height="40" as="geometry" />
        </mxCell>
        <mxCell id="WF_SVMyA3wsPpLtUFcRp-272" value="" style="endArrow=classic;html=1;rounded=0;exitX=0.5;exitY=0;exitDx=0;exitDy=0;entryX=0.5;entryY=1;entryDx=0;entryDy=0;" parent="1" source="WF_SVMyA3wsPpLtUFcRp-271" target="WF_SVMyA3wsPpLtUFcRp-147" edge="1">
          <mxGeometry width="50" height="50" relative="1" as="geometry">
            <mxPoint x="1530" y="1370" as="sourcePoint" />
            <mxPoint x="1530" y="1310" as="targetPoint" />
          </mxGeometry>
        </mxCell>
        <mxCell id="IQ5qKJPqrVlkLBsWNbcG-1" value="ready&lt;br&gt;拉高" style="rounded=1;whiteSpace=wrap;html=1;shadow=0;labelBackgroundColor=none;strokeWidth=1;fontFamily=Verdana;fontSize=8;align=center;" parent="1" vertex="1">
          <mxGeometry x="80" y="1580" width="50" height="40" as="geometry" />
        </mxCell>
        <mxCell id="XcMSc3Dv5Vf1WdrxYV2J-24" value="11111111" style="rounded=1;whiteSpace=wrap;html=1;shadow=0;labelBackgroundColor=none;strokeWidth=1;fontFamily=Verdana;fontSize=8;align=center;fontStyle=1" parent="1" vertex="1">
          <mxGeometry x="310" y="1870" width="60" height="20" as="geometry" />
        </mxCell>
        <mxCell id="XcMSc3Dv5Vf1WdrxYV2J-25" value="&lt;font color=&quot;#cc0066&quot;&gt;0&lt;/font&gt;1111111" style="rounded=1;whiteSpace=wrap;html=1;shadow=0;labelBackgroundColor=none;strokeWidth=1;fontFamily=Verdana;fontSize=8;align=center;fontStyle=1" parent="1" vertex="1">
          <mxGeometry x="380" y="1870" width="60" height="20" as="geometry" />
        </mxCell>
        <mxCell id="XcMSc3Dv5Vf1WdrxYV2J-26" value="&lt;font color=&quot;#cc0066&quot;&gt;00&lt;/font&gt;111111" style="rounded=1;whiteSpace=wrap;html=1;shadow=0;labelBackgroundColor=none;strokeWidth=1;fontFamily=Verdana;fontSize=8;align=center;fontStyle=1" parent="1" vertex="1">
          <mxGeometry x="450" y="1870" width="60" height="20" as="geometry" />
        </mxCell>
        <mxCell id="XcMSc3Dv5Vf1WdrxYV2J-27" value="&lt;font color=&quot;#cc0066&quot;&gt;000&lt;/font&gt;11111" style="rounded=1;whiteSpace=wrap;html=1;shadow=0;labelBackgroundColor=none;strokeWidth=1;fontFamily=Verdana;fontSize=8;align=center;fontStyle=1" parent="1" vertex="1">
          <mxGeometry x="520" y="1870" width="60" height="20" as="geometry" />
        </mxCell>
        <mxCell id="XcMSc3Dv5Vf1WdrxYV2J-28" value="&lt;font color=&quot;#cc0066&quot;&gt;0000&lt;/font&gt;1111" style="rounded=1;whiteSpace=wrap;html=1;shadow=0;labelBackgroundColor=none;strokeWidth=1;fontFamily=Verdana;fontSize=8;align=center;fontStyle=1" parent="1" vertex="1">
          <mxGeometry x="590" y="1870" width="60" height="20" as="geometry" />
        </mxCell>
        <mxCell id="XcMSc3Dv5Vf1WdrxYV2J-29" value="&lt;font color=&quot;#cc0066&quot;&gt;00000&lt;/font&gt;111" style="rounded=1;whiteSpace=wrap;html=1;shadow=0;labelBackgroundColor=none;strokeWidth=1;fontFamily=Verdana;fontSize=8;align=center;fontStyle=1" parent="1" vertex="1">
          <mxGeometry x="660" y="1870" width="60" height="20" as="geometry" />
        </mxCell>
        <mxCell id="XcMSc3Dv5Vf1WdrxYV2J-30" value="&lt;font color=&quot;#cc0066&quot;&gt;000000&lt;/font&gt;11" style="rounded=1;whiteSpace=wrap;html=1;shadow=0;labelBackgroundColor=none;strokeWidth=1;fontFamily=Verdana;fontSize=8;align=center;fontStyle=1" parent="1" vertex="1">
          <mxGeometry x="730" y="1870" width="60" height="20" as="geometry" />
        </mxCell>
        <mxCell id="XcMSc3Dv5Vf1WdrxYV2J-31" value="&lt;font color=&quot;#cc0066&quot;&gt;0000000&lt;/font&gt;1" style="rounded=1;whiteSpace=wrap;html=1;shadow=0;labelBackgroundColor=none;strokeWidth=1;fontFamily=Verdana;fontSize=8;align=center;fontStyle=1" parent="1" vertex="1">
          <mxGeometry x="800" y="1870" width="60" height="20" as="geometry" />
        </mxCell>
        <mxCell id="XcMSc3Dv5Vf1WdrxYV2J-41" value="1111111&lt;font color=&quot;#0066cc&quot;&gt;0&lt;/font&gt;" style="rounded=1;whiteSpace=wrap;html=1;shadow=0;labelBackgroundColor=none;strokeWidth=1;fontFamily=Verdana;fontSize=8;align=center;fontStyle=1" parent="1" vertex="1">
          <mxGeometry x="310" y="1910" width="60" height="20" as="geometry" />
        </mxCell>
        <mxCell id="XcMSc3Dv5Vf1WdrxYV2J-42" value="01111110" style="rounded=1;whiteSpace=wrap;html=1;shadow=0;labelBackgroundColor=none;strokeWidth=1;fontFamily=Verdana;fontSize=8;align=center;fontStyle=1" parent="1" vertex="1">
          <mxGeometry x="380" y="1910" width="60" height="20" as="geometry" />
        </mxCell>
        <mxCell id="XcMSc3Dv5Vf1WdrxYV2J-43" value="00111110" style="rounded=1;whiteSpace=wrap;html=1;shadow=0;labelBackgroundColor=none;strokeWidth=1;fontFamily=Verdana;fontSize=8;align=center;fontStyle=1" parent="1" vertex="1">
          <mxGeometry x="450" y="1910" width="60" height="20" as="geometry" />
        </mxCell>
        <mxCell id="XcMSc3Dv5Vf1WdrxYV2J-44" value="00011110" style="rounded=1;whiteSpace=wrap;html=1;shadow=0;labelBackgroundColor=none;strokeWidth=1;fontFamily=Verdana;fontSize=8;align=center;fontStyle=1" parent="1" vertex="1">
          <mxGeometry x="520" y="1910" width="60" height="20" as="geometry" />
        </mxCell>
        <mxCell id="XcMSc3Dv5Vf1WdrxYV2J-45" value="00001110" style="rounded=1;whiteSpace=wrap;html=1;shadow=0;labelBackgroundColor=none;strokeWidth=1;fontFamily=Verdana;fontSize=8;align=center;fontStyle=1" parent="1" vertex="1">
          <mxGeometry x="590" y="1910" width="60" height="20" as="geometry" />
        </mxCell>
        <mxCell id="XcMSc3Dv5Vf1WdrxYV2J-46" value="00000110" style="rounded=1;whiteSpace=wrap;html=1;shadow=0;labelBackgroundColor=none;strokeWidth=1;fontFamily=Verdana;fontSize=8;align=center;fontStyle=1" parent="1" vertex="1">
          <mxGeometry x="660" y="1910" width="60" height="20" as="geometry" />
        </mxCell>
        <mxCell id="XcMSc3Dv5Vf1WdrxYV2J-47" value="00000010" style="rounded=1;whiteSpace=wrap;html=1;shadow=0;labelBackgroundColor=none;strokeWidth=1;fontFamily=Verdana;fontSize=8;align=center;fontStyle=1" parent="1" vertex="1">
          <mxGeometry x="730" y="1910" width="60" height="20" as="geometry" />
        </mxCell>
        <mxCell id="XcMSc3Dv5Vf1WdrxYV2J-49" value="01111100" style="rounded=1;whiteSpace=wrap;html=1;shadow=0;labelBackgroundColor=none;strokeWidth=1;fontFamily=Verdana;fontSize=8;align=center;fontStyle=1" parent="1" vertex="1">
          <mxGeometry x="380" y="1950" width="60" height="20" as="geometry" />
        </mxCell>
        <mxCell id="XcMSc3Dv5Vf1WdrxYV2J-50" value="00111100" style="rounded=1;whiteSpace=wrap;html=1;shadow=0;labelBackgroundColor=none;strokeWidth=1;fontFamily=Verdana;fontSize=8;align=center;fontStyle=1" parent="1" vertex="1">
          <mxGeometry x="450" y="1950" width="60" height="20" as="geometry" />
        </mxCell>
        <mxCell id="XcMSc3Dv5Vf1WdrxYV2J-51" value="00011100" style="rounded=1;whiteSpace=wrap;html=1;shadow=0;labelBackgroundColor=none;strokeWidth=1;fontFamily=Verdana;fontSize=8;align=center;fontStyle=1" parent="1" vertex="1">
          <mxGeometry x="520" y="1950" width="60" height="20" as="geometry" />
        </mxCell>
        <mxCell id="XcMSc3Dv5Vf1WdrxYV2J-52" value="00001100" style="rounded=1;whiteSpace=wrap;html=1;shadow=0;labelBackgroundColor=none;strokeWidth=1;fontFamily=Verdana;fontSize=8;align=center;fontStyle=1" parent="1" vertex="1">
          <mxGeometry x="590" y="1950" width="60" height="20" as="geometry" />
        </mxCell>
        <mxCell id="XcMSc3Dv5Vf1WdrxYV2J-53" value="00000100" style="rounded=1;whiteSpace=wrap;html=1;shadow=0;labelBackgroundColor=none;strokeWidth=1;fontFamily=Verdana;fontSize=8;align=center;fontStyle=1" parent="1" vertex="1">
          <mxGeometry x="660" y="1950" width="60" height="20" as="geometry" />
        </mxCell>
        <mxCell id="XcMSc3Dv5Vf1WdrxYV2J-56" value="111111&lt;font color=&quot;#0066cc&quot;&gt;00&lt;/font&gt;" style="rounded=1;whiteSpace=wrap;html=1;shadow=0;labelBackgroundColor=none;strokeWidth=1;fontFamily=Verdana;fontSize=8;align=center;fontStyle=1" parent="1" vertex="1">
          <mxGeometry x="310" y="1950" width="60" height="20" as="geometry" />
        </mxCell>
        <mxCell id="XcMSc3Dv5Vf1WdrxYV2J-57" value="01111000" style="rounded=1;whiteSpace=wrap;html=1;shadow=0;labelBackgroundColor=none;strokeWidth=1;fontFamily=Verdana;fontSize=8;align=center;fontStyle=1" parent="1" vertex="1">
          <mxGeometry x="380" y="1990" width="60" height="20" as="geometry" />
        </mxCell>
        <mxCell id="XcMSc3Dv5Vf1WdrxYV2J-58" value="00111000" style="rounded=1;whiteSpace=wrap;html=1;shadow=0;labelBackgroundColor=none;strokeWidth=1;fontFamily=Verdana;fontSize=8;align=center;fontStyle=1" parent="1" vertex="1">
          <mxGeometry x="450" y="1990" width="60" height="20" as="geometry" />
        </mxCell>
        <mxCell id="XcMSc3Dv5Vf1WdrxYV2J-59" value="00011000" style="rounded=1;whiteSpace=wrap;html=1;shadow=0;labelBackgroundColor=none;strokeWidth=1;fontFamily=Verdana;fontSize=8;align=center;fontStyle=1" parent="1" vertex="1">
          <mxGeometry x="520" y="1990" width="60" height="20" as="geometry" />
        </mxCell>
        <mxCell id="XcMSc3Dv5Vf1WdrxYV2J-60" value="00001000" style="rounded=1;whiteSpace=wrap;html=1;shadow=0;labelBackgroundColor=none;strokeWidth=1;fontFamily=Verdana;fontSize=8;align=center;fontStyle=1" parent="1" vertex="1">
          <mxGeometry x="590" y="1990" width="60" height="20" as="geometry" />
        </mxCell>
        <mxCell id="XcMSc3Dv5Vf1WdrxYV2J-62" value="11111&lt;font color=&quot;#0066cc&quot;&gt;000&lt;/font&gt;" style="rounded=1;whiteSpace=wrap;html=1;shadow=0;labelBackgroundColor=none;strokeWidth=1;fontFamily=Verdana;fontSize=8;align=center;fontStyle=1" parent="1" vertex="1">
          <mxGeometry x="310" y="1990" width="60" height="20" as="geometry" />
        </mxCell>
        <mxCell id="XcMSc3Dv5Vf1WdrxYV2J-68" value="01110000" style="rounded=1;whiteSpace=wrap;html=1;shadow=0;labelBackgroundColor=none;strokeWidth=1;fontFamily=Verdana;fontSize=8;align=center;fontStyle=1" parent="1" vertex="1">
          <mxGeometry x="380" y="2030" width="60" height="20" as="geometry" />
        </mxCell>
        <mxCell id="XcMSc3Dv5Vf1WdrxYV2J-69" value="00110000" style="rounded=1;whiteSpace=wrap;html=1;shadow=0;labelBackgroundColor=none;strokeWidth=1;fontFamily=Verdana;fontSize=8;align=center;fontStyle=1" parent="1" vertex="1">
          <mxGeometry x="450" y="2030" width="60" height="20" as="geometry" />
        </mxCell>
        <mxCell id="XcMSc3Dv5Vf1WdrxYV2J-70" value="00010000" style="rounded=1;whiteSpace=wrap;html=1;shadow=0;labelBackgroundColor=none;strokeWidth=1;fontFamily=Verdana;fontSize=8;align=center;fontStyle=1" parent="1" vertex="1">
          <mxGeometry x="520" y="2030" width="60" height="20" as="geometry" />
        </mxCell>
        <mxCell id="XcMSc3Dv5Vf1WdrxYV2J-72" value="1111&lt;font color=&quot;#0066cc&quot;&gt;0000&lt;/font&gt;" style="rounded=1;whiteSpace=wrap;html=1;shadow=0;labelBackgroundColor=none;strokeWidth=1;fontFamily=Verdana;fontSize=8;align=center;fontStyle=1" parent="1" vertex="1">
          <mxGeometry x="310" y="2030" width="60" height="20" as="geometry" />
        </mxCell>
        <mxCell id="XcMSc3Dv5Vf1WdrxYV2J-73" value="01100000" style="rounded=1;whiteSpace=wrap;html=1;shadow=0;labelBackgroundColor=none;strokeWidth=1;fontFamily=Verdana;fontSize=8;align=center;fontStyle=1" parent="1" vertex="1">
          <mxGeometry x="380" y="2070" width="60" height="20" as="geometry" />
        </mxCell>
        <mxCell id="XcMSc3Dv5Vf1WdrxYV2J-74" value="00100000" style="rounded=1;whiteSpace=wrap;html=1;shadow=0;labelBackgroundColor=none;strokeWidth=1;fontFamily=Verdana;fontSize=8;align=center;fontStyle=1" parent="1" vertex="1">
          <mxGeometry x="450" y="2070" width="60" height="20" as="geometry" />
        </mxCell>
        <mxCell id="XcMSc3Dv5Vf1WdrxYV2J-76" value="111&lt;font color=&quot;#0066cc&quot;&gt;00000&lt;/font&gt;" style="rounded=1;whiteSpace=wrap;html=1;shadow=0;labelBackgroundColor=none;strokeWidth=1;fontFamily=Verdana;fontSize=8;align=center;fontStyle=1" parent="1" vertex="1">
          <mxGeometry x="310" y="2070" width="60" height="20" as="geometry" />
        </mxCell>
        <mxCell id="XcMSc3Dv5Vf1WdrxYV2J-77" value="01000000" style="rounded=1;whiteSpace=wrap;html=1;shadow=0;labelBackgroundColor=none;strokeWidth=1;fontFamily=Verdana;fontSize=8;align=center;fontStyle=1" parent="1" vertex="1">
          <mxGeometry x="380" y="2110" width="60" height="20" as="geometry" />
        </mxCell>
        <mxCell id="XcMSc3Dv5Vf1WdrxYV2J-79" value="11&lt;font color=&quot;#0066cc&quot;&gt;000000&lt;/font&gt;" style="rounded=1;whiteSpace=wrap;html=1;shadow=0;labelBackgroundColor=none;strokeWidth=1;fontFamily=Verdana;fontSize=8;align=center;fontStyle=1" parent="1" vertex="1">
          <mxGeometry x="310" y="2110" width="60" height="20" as="geometry" />
        </mxCell>
        <mxCell id="XcMSc3Dv5Vf1WdrxYV2J-116" style="edgeStyle=orthogonalEdgeStyle;rounded=0;orthogonalLoop=1;jettySize=auto;html=1;exitX=1;exitY=0.5;exitDx=0;exitDy=0;entryX=0;entryY=0.5;entryDx=0;entryDy=0;" parent="1" source="XcMSc3Dv5Vf1WdrxYV2J-81" target="XcMSc3Dv5Vf1WdrxYV2J-24" edge="1">
          <mxGeometry relative="1" as="geometry">
            <Array as="points">
              <mxPoint x="900" y="2160" />
              <mxPoint x="900" y="1860" />
              <mxPoint x="290" y="1860" />
              <mxPoint x="290" y="1880" />
            </Array>
          </mxGeometry>
        </mxCell>
        <mxCell id="XcMSc3Dv5Vf1WdrxYV2J-86" value="" style="endArrow=classic;html=1;rounded=0;exitX=1;exitY=0.5;exitDx=0;exitDy=0;entryX=0;entryY=0.5;entryDx=0;entryDy=0;fontStyle=1" parent="1" source="XcMSc3Dv5Vf1WdrxYV2J-31" target="XcMSc3Dv5Vf1WdrxYV2J-41" edge="1">
          <mxGeometry width="50" height="50" relative="1" as="geometry">
            <mxPoint x="930" y="1880" as="sourcePoint" />
            <mxPoint x="600" y="1970" as="targetPoint" />
            <Array as="points">
              <mxPoint x="880" y="1880" />
              <mxPoint x="880" y="1900" />
              <mxPoint x="290" y="1900" />
              <mxPoint x="290" y="1920" />
            </Array>
          </mxGeometry>
        </mxCell>
        <mxCell id="XcMSc3Dv5Vf1WdrxYV2J-87" value="" style="endArrow=classic;html=1;rounded=0;entryX=0;entryY=0.5;entryDx=0;entryDy=0;exitX=1;exitY=0.5;exitDx=0;exitDy=0;fontStyle=1" parent="1" source="XcMSc3Dv5Vf1WdrxYV2J-47" target="XcMSc3Dv5Vf1WdrxYV2J-56" edge="1">
          <mxGeometry width="50" height="50" relative="1" as="geometry">
            <mxPoint x="930" y="1920" as="sourcePoint" />
            <mxPoint x="380" y="1960" as="targetPoint" />
            <Array as="points">
              <mxPoint x="810" y="1920" />
              <mxPoint x="810" y="1940" />
              <mxPoint x="290" y="1940" />
              <mxPoint x="290" y="1960" />
            </Array>
          </mxGeometry>
        </mxCell>
        <mxCell id="XcMSc3Dv5Vf1WdrxYV2J-91" value="" style="endArrow=classic;html=1;rounded=0;exitX=1;exitY=0.5;exitDx=0;exitDy=0;entryX=0;entryY=0.5;entryDx=0;entryDy=0;fontStyle=1" parent="1" source="XcMSc3Dv5Vf1WdrxYV2J-53" target="XcMSc3Dv5Vf1WdrxYV2J-62" edge="1">
          <mxGeometry width="50" height="50" relative="1" as="geometry">
            <mxPoint x="930" y="1960" as="sourcePoint" />
            <mxPoint x="600" y="1970" as="targetPoint" />
            <Array as="points">
              <mxPoint x="740" y="1960" />
              <mxPoint x="740" y="1980" />
              <mxPoint x="290" y="1980" />
              <mxPoint x="290" y="2000" />
            </Array>
          </mxGeometry>
        </mxCell>
        <mxCell id="XcMSc3Dv5Vf1WdrxYV2J-93" value="" style="endArrow=classic;html=1;rounded=0;entryX=0;entryY=0.5;entryDx=0;entryDy=0;exitX=1;exitY=0.5;exitDx=0;exitDy=0;fontStyle=1" parent="1" source="XcMSc3Dv5Vf1WdrxYV2J-77" target="XcMSc3Dv5Vf1WdrxYV2J-81" edge="1">
          <mxGeometry width="50" height="50" relative="1" as="geometry">
            <mxPoint x="930" y="2120" as="sourcePoint" />
            <mxPoint x="600" y="1970" as="targetPoint" />
            <Array as="points">
              <mxPoint x="460" y="2120" />
              <mxPoint x="460" y="2140" />
              <mxPoint x="290" y="2140" />
              <mxPoint x="290" y="2160" />
            </Array>
          </mxGeometry>
        </mxCell>
        <mxCell id="XcMSc3Dv5Vf1WdrxYV2J-94" value="" style="endArrow=classic;html=1;rounded=0;entryX=0;entryY=0.5;entryDx=0;entryDy=0;exitX=1;exitY=0.5;exitDx=0;exitDy=0;fontStyle=1" parent="1" source="XcMSc3Dv5Vf1WdrxYV2J-74" target="XcMSc3Dv5Vf1WdrxYV2J-79" edge="1">
          <mxGeometry width="50" height="50" relative="1" as="geometry">
            <mxPoint x="930" y="2080" as="sourcePoint" />
            <mxPoint x="600" y="1970" as="targetPoint" />
            <Array as="points">
              <mxPoint x="530" y="2080" />
              <mxPoint x="530" y="2100" />
              <mxPoint x="290" y="2100" />
              <mxPoint x="290" y="2120" />
            </Array>
          </mxGeometry>
        </mxCell>
        <mxCell id="XcMSc3Dv5Vf1WdrxYV2J-95" value="" style="endArrow=classic;html=1;rounded=0;entryX=0;entryY=0.5;entryDx=0;entryDy=0;exitX=1;exitY=0.5;exitDx=0;exitDy=0;fontStyle=1" parent="1" source="XcMSc3Dv5Vf1WdrxYV2J-70" target="XcMSc3Dv5Vf1WdrxYV2J-76" edge="1">
          <mxGeometry width="50" height="50" relative="1" as="geometry">
            <mxPoint x="930" y="2040" as="sourcePoint" />
            <mxPoint x="600" y="1970" as="targetPoint" />
            <Array as="points">
              <mxPoint x="600" y="2040" />
              <mxPoint x="600" y="2060" />
              <mxPoint x="290" y="2060" />
              <mxPoint x="290" y="2080" />
            </Array>
          </mxGeometry>
        </mxCell>
        <mxCell id="XcMSc3Dv5Vf1WdrxYV2J-96" value="" style="endArrow=classic;html=1;rounded=0;entryX=0;entryY=0.5;entryDx=0;entryDy=0;exitX=1;exitY=0.5;exitDx=0;exitDy=0;fontStyle=1" parent="1" source="XcMSc3Dv5Vf1WdrxYV2J-60" target="XcMSc3Dv5Vf1WdrxYV2J-72" edge="1">
          <mxGeometry width="50" height="50" relative="1" as="geometry">
            <mxPoint x="930" y="2000" as="sourcePoint" />
            <mxPoint x="600" y="1970" as="targetPoint" />
            <Array as="points">
              <mxPoint x="670" y="2000" />
              <mxPoint x="670" y="2020" />
              <mxPoint x="290" y="2020" />
              <mxPoint x="290" y="2040" />
            </Array>
          </mxGeometry>
        </mxCell>
        <mxCell id="XcMSc3Dv5Vf1WdrxYV2J-105" value="0" style="rounded=1;whiteSpace=wrap;html=1;shadow=0;labelBackgroundColor=none;strokeWidth=1;fontFamily=Verdana;fontSize=8;align=center;fontStyle=1" parent="1" vertex="1">
          <mxGeometry x="240" y="1870" width="30" height="20" as="geometry" />
        </mxCell>
        <mxCell id="XcMSc3Dv5Vf1WdrxYV2J-106" value="1" style="rounded=1;whiteSpace=wrap;html=1;shadow=0;labelBackgroundColor=none;strokeWidth=1;fontFamily=Verdana;fontSize=8;align=center;fontStyle=1" parent="1" vertex="1">
          <mxGeometry x="240" y="1910" width="30" height="20" as="geometry" />
        </mxCell>
        <mxCell id="XcMSc3Dv5Vf1WdrxYV2J-107" value="2" style="rounded=1;whiteSpace=wrap;html=1;shadow=0;labelBackgroundColor=none;strokeWidth=1;fontFamily=Verdana;fontSize=8;align=center;fontStyle=1" parent="1" vertex="1">
          <mxGeometry x="240" y="1950" width="30" height="20" as="geometry" />
        </mxCell>
        <mxCell id="XcMSc3Dv5Vf1WdrxYV2J-108" value="3" style="rounded=1;whiteSpace=wrap;html=1;shadow=0;labelBackgroundColor=none;strokeWidth=1;fontFamily=Verdana;fontSize=8;align=center;fontStyle=1" parent="1" vertex="1">
          <mxGeometry x="240" y="1990" width="30" height="20" as="geometry" />
        </mxCell>
        <mxCell id="XcMSc3Dv5Vf1WdrxYV2J-109" value="4" style="rounded=1;whiteSpace=wrap;html=1;shadow=0;labelBackgroundColor=none;strokeWidth=1;fontFamily=Verdana;fontSize=8;align=center;fontStyle=1" parent="1" vertex="1">
          <mxGeometry x="240" y="2030" width="30" height="20" as="geometry" />
        </mxCell>
        <mxCell id="XcMSc3Dv5Vf1WdrxYV2J-110" value="5" style="rounded=1;whiteSpace=wrap;html=1;shadow=0;labelBackgroundColor=none;strokeWidth=1;fontFamily=Verdana;fontSize=8;align=center;fontStyle=1" parent="1" vertex="1">
          <mxGeometry x="240" y="2070" width="30" height="20" as="geometry" />
        </mxCell>
        <mxCell id="XcMSc3Dv5Vf1WdrxYV2J-111" value="6" style="rounded=1;whiteSpace=wrap;html=1;shadow=0;labelBackgroundColor=none;strokeWidth=1;fontFamily=Verdana;fontSize=8;align=center;fontStyle=1" parent="1" vertex="1">
          <mxGeometry x="240" y="2110" width="30" height="20" as="geometry" />
        </mxCell>
        <mxCell id="XcMSc3Dv5Vf1WdrxYV2J-112" value="7" style="rounded=1;whiteSpace=wrap;html=1;shadow=0;labelBackgroundColor=none;strokeWidth=1;fontFamily=Verdana;fontSize=8;align=center;fontStyle=1" parent="1" vertex="1">
          <mxGeometry x="240" y="2150" width="30" height="20" as="geometry" />
        </mxCell>
        <mxCell id="XcMSc3Dv5Vf1WdrxYV2J-124" value="" style="endArrow=none;dashed=1;html=1;rounded=0;exitX=1;exitY=0.5;exitDx=0;exitDy=0;fontStyle=1" parent="1" source="XcMSc3Dv5Vf1WdrxYV2J-81" edge="1">
          <mxGeometry width="50" height="50" relative="1" as="geometry">
            <mxPoint x="280" y="2159.77" as="sourcePoint" />
            <mxPoint x="780" y="2160" as="targetPoint" />
          </mxGeometry>
        </mxCell>
        <mxCell id="XcMSc3Dv5Vf1WdrxYV2J-141" style="edgeStyle=orthogonalEdgeStyle;rounded=0;orthogonalLoop=1;jettySize=auto;html=1;exitX=1;exitY=0.5;exitDx=0;exitDy=0;exitPerimeter=0;entryX=1;entryY=0.5;entryDx=0;entryDy=0;fontFamily=Helvetica;fontSize=12;fontColor=default;" parent="1" source="XcMSc3Dv5Vf1WdrxYV2J-135" target="XcMSc3Dv5Vf1WdrxYV2J-139" edge="1">
          <mxGeometry relative="1" as="geometry" />
        </mxCell>
        <mxCell id="XcMSc3Dv5Vf1WdrxYV2J-152" style="edgeStyle=orthogonalEdgeStyle;rounded=0;orthogonalLoop=1;jettySize=auto;html=1;exitX=0.5;exitY=1;exitDx=0;exitDy=0;exitPerimeter=0;entryX=0.5;entryY=0;entryDx=0;entryDy=0;fontFamily=Helvetica;fontSize=12;fontColor=default;" parent="1" source="XcMSc3Dv5Vf1WdrxYV2J-135" target="XcMSc3Dv5Vf1WdrxYV2J-145" edge="1">
          <mxGeometry relative="1" as="geometry" />
        </mxCell>
        <mxCell id="XcMSc3Dv5Vf1WdrxYV2J-135" value="mask_e = mask_s" style="strokeWidth=1;html=1;shape=mxgraph.flowchart.decision;whiteSpace=wrap;" parent="1" vertex="1">
          <mxGeometry x="1039.94" y="1940" width="160" height="40" as="geometry" />
        </mxCell>
        <mxCell id="XcMSc3Dv5Vf1WdrxYV2J-136" value="时钟上升沿" style="strokeWidth=1;html=1;shape=mxgraph.flowchart.delay;whiteSpace=wrap;strokeColor=default;align=center;verticalAlign=middle;fontFamily=Helvetica;fontSize=12;fontColor=default;fillColor=default;" parent="1" vertex="1">
          <mxGeometry x="1039.94" y="1880" width="160" height="40" as="geometry" />
        </mxCell>
        <mxCell id="XcMSc3Dv5Vf1WdrxYV2J-139" value="wrr_mask[mask_s] &amp;lt;= 0&lt;br&gt;mask_s &amp;lt;= mask_s + 1" style="rounded=1;whiteSpace=wrap;html=1;absoluteArcSize=1;arcSize=14;strokeWidth=1;strokeColor=default;align=center;verticalAlign=middle;fontFamily=Helvetica;fontSize=12;fontColor=default;fillColor=default;" parent="1" vertex="1">
          <mxGeometry x="1039.94" y="1820" width="160" height="40" as="geometry" />
        </mxCell>
        <mxCell id="XcMSc3Dv5Vf1WdrxYV2J-143" value="" style="edgeStyle=orthogonalEdgeStyle;rounded=0;orthogonalLoop=1;jettySize=auto;html=1;fontFamily=Helvetica;fontSize=12;fontColor=default;exitX=0.5;exitY=1;exitDx=0;exitDy=0;" parent="1" source="XcMSc3Dv5Vf1WdrxYV2J-139" edge="1">
          <mxGeometry relative="1" as="geometry">
            <mxPoint x="1119.94" y="1860" as="sourcePoint" />
            <mxPoint x="1119.94" y="1880" as="targetPoint" />
          </mxGeometry>
        </mxCell>
        <mxCell id="XcMSc3Dv5Vf1WdrxYV2J-144" style="edgeStyle=orthogonalEdgeStyle;rounded=0;orthogonalLoop=1;jettySize=auto;html=1;exitX=0.5;exitY=1;exitDx=0;exitDy=0;exitPerimeter=0;entryX=0.5;entryY=0;entryDx=0;entryDy=0;entryPerimeter=0;fontFamily=Helvetica;fontSize=12;fontColor=default;" parent="1" source="XcMSc3Dv5Vf1WdrxYV2J-136" target="XcMSc3Dv5Vf1WdrxYV2J-135" edge="1">
          <mxGeometry relative="1" as="geometry" />
        </mxCell>
        <mxCell id="XcMSc3Dv5Vf1WdrxYV2J-145" value="mask_s &amp;lt;= 0&lt;br&gt;mask_e &amp;lt;= mask_e - 1" style="rounded=1;whiteSpace=wrap;html=1;absoluteArcSize=1;arcSize=14;strokeWidth=1;strokeColor=default;align=center;verticalAlign=middle;fontFamily=Helvetica;fontSize=12;fontColor=default;fillColor=default;" parent="1" vertex="1">
          <mxGeometry x="1039.94" y="2000" width="160" height="40" as="geometry" />
        </mxCell>
        <mxCell id="XcMSc3Dv5Vf1WdrxYV2J-159" style="edgeStyle=orthogonalEdgeStyle;rounded=0;orthogonalLoop=1;jettySize=auto;html=1;exitX=0.5;exitY=1;exitDx=0;exitDy=0;exitPerimeter=0;entryX=0.5;entryY=0;entryDx=0;entryDy=0;fontFamily=Helvetica;fontSize=12;fontColor=default;" parent="1" source="XcMSc3Dv5Vf1WdrxYV2J-154" target="XcMSc3Dv5Vf1WdrxYV2J-156" edge="1">
          <mxGeometry relative="1" as="geometry" />
        </mxCell>
        <mxCell id="XcMSc3Dv5Vf1WdrxYV2J-175" style="edgeStyle=orthogonalEdgeStyle;rounded=0;orthogonalLoop=1;jettySize=auto;html=1;exitX=0;exitY=0.5;exitDx=0;exitDy=0;exitPerimeter=0;entryX=1;entryY=0.5;entryDx=0;entryDy=0;fontFamily=Helvetica;fontSize=12;fontColor=default;" parent="1" source="XcMSc3Dv5Vf1WdrxYV2J-154" target="XcMSc3Dv5Vf1WdrxYV2J-170" edge="1">
          <mxGeometry relative="1" as="geometry" />
        </mxCell>
        <mxCell id="XcMSc3Dv5Vf1WdrxYV2J-154" value="mask_e = 0" style="strokeWidth=1;html=1;shape=mxgraph.flowchart.decision;whiteSpace=wrap;" parent="1" vertex="1">
          <mxGeometry x="1039.94" y="2060" width="160" height="40" as="geometry" />
        </mxCell>
        <mxCell id="XcMSc3Dv5Vf1WdrxYV2J-156" value="wrr_mask &amp;lt;= 8&#39;b11111111&lt;br&gt;mask_e &amp;lt;= 7" style="rounded=1;whiteSpace=wrap;html=1;absoluteArcSize=1;arcSize=14;strokeWidth=1;strokeColor=default;align=center;verticalAlign=middle;fontFamily=Helvetica;fontSize=12;fontColor=default;fillColor=default;" parent="1" vertex="1">
          <mxGeometry x="1039.94" y="2120" width="160" height="40" as="geometry" />
        </mxCell>
        <mxCell id="XcMSc3Dv5Vf1WdrxYV2J-158" style="edgeStyle=orthogonalEdgeStyle;rounded=0;orthogonalLoop=1;jettySize=auto;html=1;exitX=0.5;exitY=1;exitDx=0;exitDy=0;entryX=0.5;entryY=0;entryDx=0;entryDy=0;entryPerimeter=0;fontFamily=Helvetica;fontSize=12;fontColor=default;" parent="1" source="XcMSc3Dv5Vf1WdrxYV2J-145" target="XcMSc3Dv5Vf1WdrxYV2J-154" edge="1">
          <mxGeometry relative="1" as="geometry">
            <mxPoint x="1119.94" y="2100" as="sourcePoint" />
          </mxGeometry>
        </mxCell>
        <mxCell id="XcMSc3Dv5Vf1WdrxYV2J-166" value="起始截断位&lt;br&gt;wrr_s" style="rounded=1;whiteSpace=wrap;html=1;strokeColor=none;strokeWidth=1;align=center;verticalAlign=middle;fontFamily=Helvetica;fontSize=12;fontColor=default;fillColor=none;fontStyle=1;rotation=90;" parent="1" vertex="1">
          <mxGeometry x="160" y="2000" width="90" height="40" as="geometry" />
        </mxCell>
        <mxCell id="XcMSc3Dv5Vf1WdrxYV2J-167" value="终止截断位&lt;br&gt;wrr_e" style="rounded=1;whiteSpace=wrap;html=1;strokeColor=none;strokeWidth=1;align=center;verticalAlign=middle;fontFamily=Helvetica;fontSize=12;fontColor=default;fillColor=none;fontStyle=1" parent="1" vertex="1">
          <mxGeometry x="550" y="1770" width="90" height="40" as="geometry" />
        </mxCell>
        <mxCell id="XcMSc3Dv5Vf1WdrxYV2J-169" style="edgeStyle=orthogonalEdgeStyle;rounded=0;orthogonalLoop=1;jettySize=auto;html=1;exitX=0;exitY=0.5;exitDx=0;exitDy=0;entryX=0;entryY=0.5;entryDx=0;entryDy=0;fontFamily=Helvetica;fontSize=12;fontColor=default;entryPerimeter=0;" parent="1" source="XcMSc3Dv5Vf1WdrxYV2J-156" target="XcMSc3Dv5Vf1WdrxYV2J-136" edge="1">
          <mxGeometry relative="1" as="geometry">
            <mxPoint x="1049.9700000000003" y="2090" as="sourcePoint" />
            <mxPoint x="1049.9700000000003" y="1910" as="targetPoint" />
            <Array as="points">
              <mxPoint x="960" y="2140" />
              <mxPoint x="960" y="1900" />
            </Array>
          </mxGeometry>
        </mxCell>
        <mxCell id="XcMSc3Dv5Vf1WdrxYV2J-170" value="wrr_mask[mask_e] &amp;lt;= 0" style="rounded=1;whiteSpace=wrap;html=1;absoluteArcSize=1;arcSize=14;strokeWidth=1;strokeColor=default;align=center;verticalAlign=middle;fontFamily=Helvetica;fontSize=12;fontColor=default;fillColor=default;rotation=90;" parent="1" vertex="1">
          <mxGeometry x="930" y="1970" width="140" height="40" as="geometry" />
        </mxCell>
        <mxCell id="XcMSc3Dv5Vf1WdrxYV2J-174" style="edgeStyle=orthogonalEdgeStyle;rounded=0;orthogonalLoop=1;jettySize=auto;html=1;exitX=0;exitY=0.5;exitDx=0;exitDy=0;entryX=0;entryY=0.5;entryDx=0;entryDy=0;entryPerimeter=0;fontFamily=Helvetica;fontSize=12;fontColor=default;" parent="1" source="XcMSc3Dv5Vf1WdrxYV2J-170" target="XcMSc3Dv5Vf1WdrxYV2J-136" edge="1">
          <mxGeometry relative="1" as="geometry" />
        </mxCell>
        <mxCell id="XcMSc3Dv5Vf1WdrxYV2J-176" value="" style="group;fontStyle=1" parent="1" vertex="1" connectable="0">
          <mxGeometry x="690" y="2070" width="160" height="40" as="geometry" />
        </mxCell>
        <mxCell id="XcMSc3Dv5Vf1WdrxYV2J-150" value="" style="group;fontStyle=1;rounded=1;" parent="XcMSc3Dv5Vf1WdrxYV2J-176" vertex="1" connectable="0">
          <mxGeometry width="160" height="30" as="geometry" />
        </mxCell>
        <mxCell id="XcMSc3Dv5Vf1WdrxYV2J-147" value="&lt;span style=&quot;color: rgb(0, 0, 0); font-family: Verdana; font-style: normal; font-variant-ligatures: normal; font-variant-caps: normal; letter-spacing: normal; orphans: 2; text-align: center; text-indent: 0px; text-transform: none; widows: 2; word-spacing: 0px; -webkit-text-stroke-width: 0px; white-space: normal; background-color: rgb(251, 251, 251); text-decoration-thickness: initial; text-decoration-style: initial; text-decoration-color: initial; float: none; display: inline !important;&quot;&gt;&lt;font style=&quot;font-size: 12px;&quot;&gt;WRR位掩码&lt;br&gt;wrr_mask&lt;/font&gt;&lt;/span&gt;" style="shape=process;whiteSpace=wrap;html=1;backgroundOutline=1;strokeColor=default;strokeWidth=1;align=center;verticalAlign=middle;fontFamily=Helvetica;fontSize=12;fontColor=default;fillColor=default;fontStyle=1;rounded=1;" parent="XcMSc3Dv5Vf1WdrxYV2J-150" vertex="1">
          <mxGeometry y="-10" width="160" height="40" as="geometry" />
        </mxCell>
        <mxCell id="XcMSc3Dv5Vf1WdrxYV2J-148" value="LSB" style="rounded=1;whiteSpace=wrap;html=1;strokeColor=default;strokeWidth=1;align=center;verticalAlign=middle;fontFamily=Helvetica;fontSize=12;fontColor=default;fillColor=default;fontStyle=1" parent="XcMSc3Dv5Vf1WdrxYV2J-150" vertex="1">
          <mxGeometry y="-10" width="32" height="40" as="geometry" />
        </mxCell>
        <mxCell id="XcMSc3Dv5Vf1WdrxYV2J-149" value="MSB" style="rounded=1;whiteSpace=wrap;html=1;strokeColor=default;strokeWidth=1;align=center;verticalAlign=middle;fontFamily=Helvetica;fontSize=12;fontColor=default;fillColor=default;fontStyle=1" parent="XcMSc3Dv5Vf1WdrxYV2J-150" vertex="1">
          <mxGeometry x="128" y="-10" width="32" height="40" as="geometry" />
        </mxCell>
        <mxCell id="XcMSc3Dv5Vf1WdrxYV2J-151" value="&lt;font style=&quot;font-size: 10px;&quot;&gt;优先&lt;span style=&quot;white-space: pre;&quot;&gt;&#x9;&lt;/span&gt;&amp;nbsp; &amp;nbsp; &amp;nbsp; &amp;nbsp; &amp;nbsp; &amp;nbsp; &amp;nbsp; &amp;nbsp; &amp;nbsp; &amp;nbsp; &amp;nbsp; &amp;nbsp; &amp;nbsp; &amp;nbsp; &amp;nbsp; &amp;nbsp; &amp;nbsp; &amp;nbsp; &amp;nbsp; 非优先&lt;/font&gt;" style="endArrow=async;html=1;rounded=0;fontFamily=Helvetica;fontSize=12;fontColor=default;verticalAlign=top;endFill=1;fontStyle=1" parent="XcMSc3Dv5Vf1WdrxYV2J-176" edge="1">
          <mxGeometry width="50" height="50" relative="1" as="geometry">
            <mxPoint y="40" as="sourcePoint" />
            <mxPoint x="160" y="40" as="targetPoint" />
          </mxGeometry>
        </mxCell>
        <mxCell id="XcMSc3Dv5Vf1WdrxYV2J-81" value="1&lt;font color=&quot;#0066cc&quot;&gt;0000000&lt;/font&gt;" style="rounded=1;whiteSpace=wrap;html=1;shadow=0;labelBackgroundColor=none;strokeWidth=1;fontFamily=Verdana;fontSize=8;align=center;fontStyle=1" parent="1" vertex="1">
          <mxGeometry x="310" y="2150" width="60" height="20" as="geometry" />
        </mxCell>
        <mxCell id="XcMSc3Dv5Vf1WdrxYV2J-181" value="0" style="rounded=1;whiteSpace=wrap;html=1;shadow=0;labelBackgroundColor=none;strokeWidth=1;fontFamily=Verdana;fontSize=8;align=center;fontStyle=1" parent="1" vertex="1">
          <mxGeometry x="325" y="1820" width="30" height="20" as="geometry" />
        </mxCell>
        <mxCell id="XcMSc3Dv5Vf1WdrxYV2J-191" value="1" style="rounded=1;whiteSpace=wrap;html=1;shadow=0;labelBackgroundColor=none;strokeWidth=1;fontFamily=Verdana;fontSize=8;align=center;fontStyle=1" parent="1" vertex="1">
          <mxGeometry x="395" y="1820" width="30" height="20" as="geometry" />
        </mxCell>
        <mxCell id="XcMSc3Dv5Vf1WdrxYV2J-192" value="2" style="rounded=1;whiteSpace=wrap;html=1;shadow=0;labelBackgroundColor=none;strokeWidth=1;fontFamily=Verdana;fontSize=8;align=center;fontStyle=1" parent="1" vertex="1">
          <mxGeometry x="465" y="1820" width="30" height="20" as="geometry" />
        </mxCell>
        <mxCell id="XcMSc3Dv5Vf1WdrxYV2J-193" value="3" style="rounded=1;whiteSpace=wrap;html=1;shadow=0;labelBackgroundColor=none;strokeWidth=1;fontFamily=Verdana;fontSize=8;align=center;fontStyle=1" parent="1" vertex="1">
          <mxGeometry x="535" y="1820" width="30" height="20" as="geometry" />
        </mxCell>
        <mxCell id="XcMSc3Dv5Vf1WdrxYV2J-194" value="4" style="rounded=1;whiteSpace=wrap;html=1;shadow=0;labelBackgroundColor=none;strokeWidth=1;fontFamily=Verdana;fontSize=8;align=center;fontStyle=1" parent="1" vertex="1">
          <mxGeometry x="605" y="1820" width="30" height="20" as="geometry" />
        </mxCell>
        <mxCell id="XcMSc3Dv5Vf1WdrxYV2J-195" value="5" style="rounded=1;whiteSpace=wrap;html=1;shadow=0;labelBackgroundColor=none;strokeWidth=1;fontFamily=Verdana;fontSize=8;align=center;fontStyle=1" parent="1" vertex="1">
          <mxGeometry x="675" y="1820" width="30" height="20" as="geometry" />
        </mxCell>
        <mxCell id="XcMSc3Dv5Vf1WdrxYV2J-196" value="6" style="rounded=1;whiteSpace=wrap;html=1;shadow=0;labelBackgroundColor=none;strokeWidth=1;fontFamily=Verdana;fontSize=8;align=center;fontStyle=1" parent="1" vertex="1">
          <mxGeometry x="745" y="1820" width="30" height="20" as="geometry" />
        </mxCell>
        <mxCell id="XcMSc3Dv5Vf1WdrxYV2J-197" value="7" style="rounded=1;whiteSpace=wrap;html=1;shadow=0;labelBackgroundColor=none;strokeWidth=1;fontFamily=Verdana;fontSize=8;align=center;fontStyle=1" parent="1" vertex="1">
          <mxGeometry x="815" y="1820" width="30" height="20" as="geometry" />
        </mxCell>
        <mxCell id="XcMSc3Dv5Vf1WdrxYV2J-240" value="" style="group" parent="1" vertex="1" connectable="0">
          <mxGeometry x="380" y="2240" width="470" height="60" as="geometry" />
        </mxCell>
        <mxCell id="XcMSc3Dv5Vf1WdrxYV2J-211" value="" style="group" parent="XcMSc3Dv5Vf1WdrxYV2J-240" vertex="1" connectable="0">
          <mxGeometry x="80" y="40" width="160" height="20" as="geometry" />
        </mxCell>
        <mxCell id="XcMSc3Dv5Vf1WdrxYV2J-202" value="" style="rounded=0;whiteSpace=wrap;html=1;strokeColor=default;strokeWidth=1;align=center;verticalAlign=middle;fontFamily=Helvetica;fontSize=12;fontColor=default;fillColor=default;" parent="XcMSc3Dv5Vf1WdrxYV2J-211" vertex="1">
          <mxGeometry width="160" height="20" as="geometry" />
        </mxCell>
        <mxCell id="XcMSc3Dv5Vf1WdrxYV2J-203" value="" style="rounded=0;whiteSpace=wrap;html=1;strokeColor=default;strokeWidth=1;align=center;verticalAlign=middle;fontFamily=Helvetica;fontSize=12;fontColor=default;fillColor=#FF3333;" parent="XcMSc3Dv5Vf1WdrxYV2J-211" vertex="1">
          <mxGeometry width="20" height="20" as="geometry" />
        </mxCell>
        <mxCell id="XcMSc3Dv5Vf1WdrxYV2J-204" value="" style="rounded=0;whiteSpace=wrap;html=1;strokeColor=default;strokeWidth=1;align=center;verticalAlign=middle;fontFamily=Helvetica;fontSize=12;fontColor=default;fillColor=#FF3333;" parent="XcMSc3Dv5Vf1WdrxYV2J-211" vertex="1">
          <mxGeometry x="20" width="20" height="20" as="geometry" />
        </mxCell>
        <mxCell id="XcMSc3Dv5Vf1WdrxYV2J-205" value="" style="rounded=0;whiteSpace=wrap;html=1;strokeColor=default;strokeWidth=1;align=center;verticalAlign=middle;fontFamily=Helvetica;fontSize=12;fontColor=default;fillColor=default;" parent="XcMSc3Dv5Vf1WdrxYV2J-211" vertex="1">
          <mxGeometry x="40" width="20" height="20" as="geometry" />
        </mxCell>
        <mxCell id="XcMSc3Dv5Vf1WdrxYV2J-206" value="" style="rounded=0;whiteSpace=wrap;html=1;strokeColor=default;strokeWidth=1;align=center;verticalAlign=middle;fontFamily=Helvetica;fontSize=12;fontColor=default;fillColor=#FF3333;" parent="XcMSc3Dv5Vf1WdrxYV2J-211" vertex="1">
          <mxGeometry x="60" width="20" height="20" as="geometry" />
        </mxCell>
        <mxCell id="XcMSc3Dv5Vf1WdrxYV2J-207" value="" style="rounded=0;whiteSpace=wrap;html=1;strokeColor=default;strokeWidth=1;align=center;verticalAlign=middle;fontFamily=Helvetica;fontSize=12;fontColor=default;fillColor=default;" parent="XcMSc3Dv5Vf1WdrxYV2J-211" vertex="1">
          <mxGeometry x="80" width="20" height="20" as="geometry" />
        </mxCell>
        <mxCell id="XcMSc3Dv5Vf1WdrxYV2J-208" value="" style="rounded=0;whiteSpace=wrap;html=1;strokeColor=default;strokeWidth=1;align=center;verticalAlign=middle;fontFamily=Helvetica;fontSize=12;fontColor=default;fillColor=default;" parent="XcMSc3Dv5Vf1WdrxYV2J-211" vertex="1">
          <mxGeometry x="100" width="20" height="20" as="geometry" />
        </mxCell>
        <mxCell id="XcMSc3Dv5Vf1WdrxYV2J-209" value="" style="rounded=0;whiteSpace=wrap;html=1;strokeColor=default;strokeWidth=1;align=center;verticalAlign=middle;fontFamily=Helvetica;fontSize=12;fontColor=default;fillColor=default;" parent="XcMSc3Dv5Vf1WdrxYV2J-211" vertex="1">
          <mxGeometry x="120" width="20" height="20" as="geometry" />
        </mxCell>
        <mxCell id="XcMSc3Dv5Vf1WdrxYV2J-210" value="" style="rounded=0;whiteSpace=wrap;html=1;strokeColor=default;strokeWidth=1;align=center;verticalAlign=middle;fontFamily=Helvetica;fontSize=12;fontColor=default;fillColor=default;" parent="XcMSc3Dv5Vf1WdrxYV2J-211" vertex="1">
          <mxGeometry x="140" width="20" height="20" as="geometry" />
        </mxCell>
        <mxCell id="XcMSc3Dv5Vf1WdrxYV2J-212" value="01111000" style="rounded=1;whiteSpace=wrap;html=1;shadow=0;labelBackgroundColor=none;strokeWidth=1;fontFamily=Verdana;fontSize=8;align=center;fontStyle=1" parent="XcMSc3Dv5Vf1WdrxYV2J-240" vertex="1">
          <mxGeometry width="60" height="20" as="geometry" />
        </mxCell>
        <mxCell id="XcMSc3Dv5Vf1WdrxYV2J-213" value="" style="group" parent="XcMSc3Dv5Vf1WdrxYV2J-240" vertex="1" connectable="0">
          <mxGeometry x="80" width="160" height="20" as="geometry" />
        </mxCell>
        <mxCell id="XcMSc3Dv5Vf1WdrxYV2J-214" value="" style="rounded=0;whiteSpace=wrap;html=1;strokeColor=default;strokeWidth=1;align=center;verticalAlign=middle;fontFamily=Helvetica;fontSize=12;fontColor=default;fillColor=default;" parent="XcMSc3Dv5Vf1WdrxYV2J-213" vertex="1">
          <mxGeometry width="160" height="20" as="geometry" />
        </mxCell>
        <mxCell id="XcMSc3Dv5Vf1WdrxYV2J-215" value="" style="rounded=0;whiteSpace=wrap;html=1;strokeColor=default;strokeWidth=1;align=center;verticalAlign=middle;fontFamily=Helvetica;fontSize=12;fontColor=default;fillColor=#000000;" parent="XcMSc3Dv5Vf1WdrxYV2J-213" vertex="1">
          <mxGeometry width="20" height="20" as="geometry" />
        </mxCell>
        <mxCell id="XcMSc3Dv5Vf1WdrxYV2J-216" value="" style="rounded=0;whiteSpace=wrap;html=1;strokeColor=default;strokeWidth=1;align=center;verticalAlign=middle;fontFamily=Helvetica;fontSize=12;fontColor=default;fillColor=default;" parent="XcMSc3Dv5Vf1WdrxYV2J-213" vertex="1">
          <mxGeometry x="20" width="20" height="20" as="geometry" />
        </mxCell>
        <mxCell id="XcMSc3Dv5Vf1WdrxYV2J-217" value="" style="rounded=0;whiteSpace=wrap;html=1;strokeColor=default;strokeWidth=1;align=center;verticalAlign=middle;fontFamily=Helvetica;fontSize=12;fontColor=default;fillColor=default;" parent="XcMSc3Dv5Vf1WdrxYV2J-213" vertex="1">
          <mxGeometry x="40" width="20" height="20" as="geometry" />
        </mxCell>
        <mxCell id="XcMSc3Dv5Vf1WdrxYV2J-218" value="" style="rounded=0;whiteSpace=wrap;html=1;strokeColor=default;strokeWidth=1;align=center;verticalAlign=middle;fontFamily=Helvetica;fontSize=12;fontColor=default;fillColor=default;" parent="XcMSc3Dv5Vf1WdrxYV2J-213" vertex="1">
          <mxGeometry x="60" width="20" height="20" as="geometry" />
        </mxCell>
        <mxCell id="XcMSc3Dv5Vf1WdrxYV2J-219" value="" style="rounded=0;whiteSpace=wrap;html=1;strokeColor=default;strokeWidth=1;align=center;verticalAlign=middle;fontFamily=Helvetica;fontSize=12;fontColor=default;fillColor=default;" parent="XcMSc3Dv5Vf1WdrxYV2J-213" vertex="1">
          <mxGeometry x="80" width="20" height="20" as="geometry" />
        </mxCell>
        <mxCell id="XcMSc3Dv5Vf1WdrxYV2J-220" value="" style="rounded=0;whiteSpace=wrap;html=1;strokeColor=default;strokeWidth=1;align=center;verticalAlign=middle;fontFamily=Helvetica;fontSize=12;fontColor=default;fillColor=#000000;" parent="XcMSc3Dv5Vf1WdrxYV2J-213" vertex="1">
          <mxGeometry x="100" width="20" height="20" as="geometry" />
        </mxCell>
        <mxCell id="XcMSc3Dv5Vf1WdrxYV2J-221" value="" style="rounded=0;whiteSpace=wrap;html=1;strokeColor=default;strokeWidth=1;align=center;verticalAlign=middle;fontFamily=Helvetica;fontSize=12;fontColor=default;fillColor=#000000;" parent="XcMSc3Dv5Vf1WdrxYV2J-213" vertex="1">
          <mxGeometry x="120" width="20" height="20" as="geometry" />
        </mxCell>
        <mxCell id="XcMSc3Dv5Vf1WdrxYV2J-222" value="" style="rounded=0;whiteSpace=wrap;html=1;strokeColor=default;strokeWidth=1;align=center;verticalAlign=middle;fontFamily=Helvetica;fontSize=12;fontColor=default;fillColor=#000000;" parent="XcMSc3Dv5Vf1WdrxYV2J-213" vertex="1">
          <mxGeometry x="140" width="20" height="20" as="geometry" />
        </mxCell>
        <mxCell id="XcMSc3Dv5Vf1WdrxYV2J-223" value="AND" style="shape=or;whiteSpace=wrap;html=1;strokeColor=default;strokeWidth=1;align=center;verticalAlign=middle;fontFamily=Helvetica;fontSize=12;fontColor=default;fillColor=default;" parent="XcMSc3Dv5Vf1WdrxYV2J-240" vertex="1">
          <mxGeometry x="250" width="50" height="60" as="geometry" />
        </mxCell>
        <mxCell id="XcMSc3Dv5Vf1WdrxYV2J-224" value="" style="group" parent="XcMSc3Dv5Vf1WdrxYV2J-240" vertex="1" connectable="0">
          <mxGeometry x="310" y="20" width="160" height="40" as="geometry" />
        </mxCell>
        <mxCell id="XcMSc3Dv5Vf1WdrxYV2J-225" value="" style="rounded=0;whiteSpace=wrap;html=1;strokeColor=default;strokeWidth=1;align=center;verticalAlign=middle;fontFamily=Helvetica;fontSize=12;fontColor=default;fillColor=default;" parent="XcMSc3Dv5Vf1WdrxYV2J-224" vertex="1">
          <mxGeometry width="160" height="20" as="geometry" />
        </mxCell>
        <mxCell id="XcMSc3Dv5Vf1WdrxYV2J-226" value="" style="rounded=0;whiteSpace=wrap;html=1;strokeColor=#000000;strokeWidth=1;align=center;verticalAlign=middle;fontFamily=Helvetica;fontSize=12;fontColor=default;fillColor=#000000;" parent="XcMSc3Dv5Vf1WdrxYV2J-224" vertex="1">
          <mxGeometry width="20" height="20" as="geometry" />
        </mxCell>
        <mxCell id="XcMSc3Dv5Vf1WdrxYV2J-227" value="" style="rounded=0;whiteSpace=wrap;html=1;strokeColor=default;strokeWidth=1;align=center;verticalAlign=middle;fontFamily=Helvetica;fontSize=12;fontColor=default;fillColor=#FF3333;" parent="XcMSc3Dv5Vf1WdrxYV2J-224" vertex="1">
          <mxGeometry x="20" width="20" height="20" as="geometry" />
        </mxCell>
        <mxCell id="XcMSc3Dv5Vf1WdrxYV2J-228" value="" style="rounded=0;whiteSpace=wrap;html=1;strokeColor=default;strokeWidth=1;align=center;verticalAlign=middle;fontFamily=Helvetica;fontSize=12;fontColor=default;fillColor=none;" parent="XcMSc3Dv5Vf1WdrxYV2J-224" vertex="1">
          <mxGeometry x="40" width="20" height="20" as="geometry" />
        </mxCell>
        <mxCell id="XcMSc3Dv5Vf1WdrxYV2J-229" value="" style="rounded=0;whiteSpace=wrap;html=1;strokeColor=default;strokeWidth=1;align=center;verticalAlign=middle;fontFamily=Helvetica;fontSize=12;fontColor=default;fillColor=#FF3333;" parent="XcMSc3Dv5Vf1WdrxYV2J-224" vertex="1">
          <mxGeometry x="60" width="20" height="20" as="geometry" />
        </mxCell>
        <mxCell id="XcMSc3Dv5Vf1WdrxYV2J-230" value="" style="rounded=0;whiteSpace=wrap;html=1;strokeColor=#000000;strokeWidth=1;align=center;verticalAlign=middle;fontFamily=Helvetica;fontSize=12;fontColor=default;fillColor=#000000;" parent="XcMSc3Dv5Vf1WdrxYV2J-224" vertex="1">
          <mxGeometry x="80" width="20" height="20" as="geometry" />
        </mxCell>
        <mxCell id="XcMSc3Dv5Vf1WdrxYV2J-231" value="" style="rounded=0;whiteSpace=wrap;html=1;strokeColor=#000000;strokeWidth=1;align=center;verticalAlign=middle;fontFamily=Helvetica;fontSize=12;fontColor=default;fillColor=#000000;" parent="XcMSc3Dv5Vf1WdrxYV2J-224" vertex="1">
          <mxGeometry x="100" width="20" height="20" as="geometry" />
        </mxCell>
        <mxCell id="XcMSc3Dv5Vf1WdrxYV2J-232" value="" style="rounded=0;whiteSpace=wrap;html=1;strokeColor=#000000;strokeWidth=1;align=center;verticalAlign=middle;fontFamily=Helvetica;fontSize=12;fontColor=default;fillColor=#000000;" parent="XcMSc3Dv5Vf1WdrxYV2J-224" vertex="1">
          <mxGeometry x="120" width="20" height="20" as="geometry" />
        </mxCell>
        <mxCell id="XcMSc3Dv5Vf1WdrxYV2J-233" value="" style="rounded=0;whiteSpace=wrap;html=1;strokeColor=#000000;strokeWidth=1;align=center;verticalAlign=middle;fontFamily=Helvetica;fontSize=12;fontColor=default;fillColor=#000000;" parent="XcMSc3Dv5Vf1WdrxYV2J-224" vertex="1">
          <mxGeometry x="140" width="20" height="20" as="geometry" />
        </mxCell>
        <mxCell id="XcMSc3Dv5Vf1WdrxYV2J-239" value="&lt;h2 class=&quot;&quot; style=&quot;box-sizing: border-box; padding: 1rem; margin: 0px; outline: 0px; font-weight: 700; line-height: 22px; font-size: 16px; border-bottom: 1px solid var(--bd_01); position: relative; color: rgb(63, 66, 87); font-family: -apple-system, BlinkMacSystemFont, &amp;quot;Segoe UI&amp;quot;, Roboto, &amp;quot;Helvetica Neue&amp;quot;, Arial, &amp;quot;Noto Sans&amp;quot;, sans-serif, &amp;quot;Apple Color Emoji&amp;quot;, &amp;quot;Segoe UI Emoji&amp;quot;, &amp;quot;Segoe UI Symbol&amp;quot;, &amp;quot;Noto Color Emoji&amp;quot;; font-style: normal; font-variant-ligatures: normal; font-variant-caps: normal; letter-spacing: normal; orphans: 2; text-align: start; text-indent: 0px; text-transform: none; widows: 2; word-spacing: 0px; -webkit-text-stroke-width: 0px; white-space: normal; text-decoration-thickness: initial; text-decoration-style: initial; text-decoration-color: initial;&quot;&gt;&lt;span class=&quot;emoji_font line&quot; style=&quot;box-sizing: border-box; padding: 0px; margin: 0px 2px 0px 0px; outline: 0px; display: inline-flex; font-style: normal; font-weight: 400; font-family: var(--font-emoji); direction: initial; align-items: center; justify-content: center; min-width: 1.5em;&quot;&gt;✅&lt;/span&gt;&lt;/h2&gt;" style="text;whiteSpace=wrap;html=1;fontFamily=Helvetica;fontSize=12;fontColor=default;" parent="XcMSc3Dv5Vf1WdrxYV2J-224" vertex="1">
          <mxGeometry width="40" height="40" as="geometry" />
        </mxCell>
        <mxCell id="XcMSc3Dv5Vf1WdrxYV2J-238" value="11010000" style="rounded=1;whiteSpace=wrap;html=1;shadow=0;labelBackgroundColor=none;strokeWidth=1;fontFamily=Verdana;fontSize=8;align=center;fontStyle=1" parent="XcMSc3Dv5Vf1WdrxYV2J-240" vertex="1">
          <mxGeometry y="40" width="60" height="20" as="geometry" />
        </mxCell>
        <mxCell id="XcMSc3Dv5Vf1WdrxYV2J-273" value="" style="group" parent="1" vertex="1" connectable="0">
          <mxGeometry x="290" y="2320" width="110" height="160" as="geometry" />
        </mxCell>
        <mxCell id="XcMSc3Dv5Vf1WdrxYV2J-262" value="" style="rounded=0;whiteSpace=wrap;html=1;strokeColor=default;strokeWidth=1;align=center;verticalAlign=middle;fontFamily=Helvetica;fontSize=12;fontColor=default;fillColor=default;rotation=90;" parent="XcMSc3Dv5Vf1WdrxYV2J-273" vertex="1">
          <mxGeometry x="-25" y="25" width="160" height="110" as="geometry" />
        </mxCell>
        <mxCell id="XcMSc3Dv5Vf1WdrxYV2J-264" value="~queue_0_empty" style="rounded=0;whiteSpace=wrap;html=1;strokeColor=default;strokeWidth=1;align=center;verticalAlign=middle;fontFamily=Helvetica;fontSize=10;fontColor=default;fillColor=default;" parent="XcMSc3Dv5Vf1WdrxYV2J-273" vertex="1">
          <mxGeometry width="110" height="20" as="geometry" />
        </mxCell>
        <mxCell id="XcMSc3Dv5Vf1WdrxYV2J-265" value="&lt;span style=&quot;font-size: 10px;&quot;&gt;~queue_1_empty&lt;/span&gt;" style="rounded=0;whiteSpace=wrap;html=1;strokeColor=default;strokeWidth=1;align=center;verticalAlign=middle;fontFamily=Helvetica;fontSize=12;fontColor=default;fillColor=default;" parent="XcMSc3Dv5Vf1WdrxYV2J-273" vertex="1">
          <mxGeometry y="20" width="110" height="20" as="geometry" />
        </mxCell>
        <mxCell id="XcMSc3Dv5Vf1WdrxYV2J-266" value="&lt;span style=&quot;font-size: 10px;&quot;&gt;~queue_2_empty&lt;/span&gt;" style="rounded=0;whiteSpace=wrap;html=1;strokeColor=default;strokeWidth=1;align=center;verticalAlign=middle;fontFamily=Helvetica;fontSize=12;fontColor=default;fillColor=default;" parent="XcMSc3Dv5Vf1WdrxYV2J-273" vertex="1">
          <mxGeometry y="40" width="110" height="20" as="geometry" />
        </mxCell>
        <mxCell id="XcMSc3Dv5Vf1WdrxYV2J-267" value="&lt;span style=&quot;font-size: 10px;&quot;&gt;~queue_3_empty&lt;/span&gt;" style="rounded=0;whiteSpace=wrap;html=1;strokeColor=default;strokeWidth=1;align=center;verticalAlign=middle;fontFamily=Helvetica;fontSize=12;fontColor=default;fillColor=default;" parent="XcMSc3Dv5Vf1WdrxYV2J-273" vertex="1">
          <mxGeometry y="60" width="110" height="20" as="geometry" />
        </mxCell>
        <mxCell id="XcMSc3Dv5Vf1WdrxYV2J-268" value="&lt;span style=&quot;font-size: 10px;&quot;&gt;~queue_4_empty&lt;/span&gt;" style="rounded=0;whiteSpace=wrap;html=1;strokeColor=default;strokeWidth=1;align=center;verticalAlign=middle;fontFamily=Helvetica;fontSize=12;fontColor=default;fillColor=default;" parent="XcMSc3Dv5Vf1WdrxYV2J-273" vertex="1">
          <mxGeometry y="80" width="110" height="20" as="geometry" />
        </mxCell>
        <mxCell id="XcMSc3Dv5Vf1WdrxYV2J-269" value="&lt;span style=&quot;font-size: 10px;&quot;&gt;~queue_5_empty&lt;/span&gt;" style="rounded=0;whiteSpace=wrap;html=1;strokeColor=default;strokeWidth=1;align=center;verticalAlign=middle;fontFamily=Helvetica;fontSize=12;fontColor=default;fillColor=default;" parent="XcMSc3Dv5Vf1WdrxYV2J-273" vertex="1">
          <mxGeometry y="100" width="110" height="20" as="geometry" />
        </mxCell>
        <mxCell id="XcMSc3Dv5Vf1WdrxYV2J-270" value="&lt;span style=&quot;font-size: 10px;&quot;&gt;~queue_6_empty&lt;/span&gt;" style="rounded=0;whiteSpace=wrap;html=1;strokeColor=default;strokeWidth=1;align=center;verticalAlign=middle;fontFamily=Helvetica;fontSize=12;fontColor=default;fillColor=default;" parent="XcMSc3Dv5Vf1WdrxYV2J-273" vertex="1">
          <mxGeometry y="120" width="110" height="20" as="geometry" />
        </mxCell>
        <mxCell id="XcMSc3Dv5Vf1WdrxYV2J-271" value="&lt;span style=&quot;font-size: 10px;&quot;&gt;~queue_7_empty&lt;/span&gt;" style="rounded=0;whiteSpace=wrap;html=1;strokeColor=default;strokeWidth=1;align=center;verticalAlign=middle;fontFamily=Helvetica;fontSize=12;fontColor=default;fillColor=default;" parent="XcMSc3Dv5Vf1WdrxYV2J-273" vertex="1">
          <mxGeometry y="140" width="110" height="20" as="geometry" />
        </mxCell>
        <mxCell id="XcMSc3Dv5Vf1WdrxYV2J-274" value="" style="group;rotation=90;" parent="1" vertex="1" connectable="0">
          <mxGeometry x="350" y="2390" width="160" height="20" as="geometry" />
        </mxCell>
        <mxCell id="XcMSc3Dv5Vf1WdrxYV2J-275" value="" style="rounded=0;whiteSpace=wrap;html=1;strokeColor=default;strokeWidth=1;align=center;verticalAlign=middle;fontFamily=Helvetica;fontSize=12;fontColor=default;fillColor=default;rotation=90;" parent="XcMSc3Dv5Vf1WdrxYV2J-274" vertex="1">
          <mxGeometry width="160" height="20" as="geometry" />
        </mxCell>
        <mxCell id="XcMSc3Dv5Vf1WdrxYV2J-276" value="" style="rounded=0;whiteSpace=wrap;html=1;strokeColor=default;strokeWidth=1;align=center;verticalAlign=middle;fontFamily=Helvetica;fontSize=12;fontColor=default;fillColor=#FF3333;rotation=90;" parent="XcMSc3Dv5Vf1WdrxYV2J-274" vertex="1">
          <mxGeometry x="70" y="-70" width="20" height="20" as="geometry" />
        </mxCell>
        <mxCell id="XcMSc3Dv5Vf1WdrxYV2J-277" value="" style="rounded=0;whiteSpace=wrap;html=1;strokeColor=default;strokeWidth=1;align=center;verticalAlign=middle;fontFamily=Helvetica;fontSize=12;fontColor=default;fillColor=#FF3333;rotation=90;" parent="XcMSc3Dv5Vf1WdrxYV2J-274" vertex="1">
          <mxGeometry x="70" y="-50" width="20" height="20" as="geometry" />
        </mxCell>
        <mxCell id="XcMSc3Dv5Vf1WdrxYV2J-278" value="" style="rounded=0;whiteSpace=wrap;html=1;strokeColor=default;strokeWidth=1;align=center;verticalAlign=middle;fontFamily=Helvetica;fontSize=12;fontColor=default;fillColor=default;rotation=90;" parent="XcMSc3Dv5Vf1WdrxYV2J-274" vertex="1">
          <mxGeometry x="70" y="-30" width="20" height="20" as="geometry" />
        </mxCell>
        <mxCell id="XcMSc3Dv5Vf1WdrxYV2J-279" value="" style="rounded=0;whiteSpace=wrap;html=1;strokeColor=default;strokeWidth=1;align=center;verticalAlign=middle;fontFamily=Helvetica;fontSize=12;fontColor=default;fillColor=#FF3333;rotation=90;" parent="XcMSc3Dv5Vf1WdrxYV2J-274" vertex="1">
          <mxGeometry x="70" y="-10" width="20" height="20" as="geometry" />
        </mxCell>
        <mxCell id="XcMSc3Dv5Vf1WdrxYV2J-280" value="" style="rounded=0;whiteSpace=wrap;html=1;strokeColor=default;strokeWidth=1;align=center;verticalAlign=middle;fontFamily=Helvetica;fontSize=12;fontColor=default;fillColor=default;rotation=90;" parent="XcMSc3Dv5Vf1WdrxYV2J-274" vertex="1">
          <mxGeometry x="70" y="10" width="20" height="20" as="geometry" />
        </mxCell>
        <mxCell id="XcMSc3Dv5Vf1WdrxYV2J-281" value="" style="rounded=0;whiteSpace=wrap;html=1;strokeColor=default;strokeWidth=1;align=center;verticalAlign=middle;fontFamily=Helvetica;fontSize=12;fontColor=default;fillColor=default;rotation=90;" parent="XcMSc3Dv5Vf1WdrxYV2J-274" vertex="1">
          <mxGeometry x="70" y="30" width="20" height="20" as="geometry" />
        </mxCell>
        <mxCell id="XcMSc3Dv5Vf1WdrxYV2J-282" value="" style="rounded=0;whiteSpace=wrap;html=1;strokeColor=default;strokeWidth=1;align=center;verticalAlign=middle;fontFamily=Helvetica;fontSize=12;fontColor=default;fillColor=default;rotation=90;" parent="XcMSc3Dv5Vf1WdrxYV2J-274" vertex="1">
          <mxGeometry x="70" y="50" width="20" height="20" as="geometry" />
        </mxCell>
        <mxCell id="XcMSc3Dv5Vf1WdrxYV2J-283" value="" style="rounded=0;whiteSpace=wrap;html=1;strokeColor=default;strokeWidth=1;align=center;verticalAlign=middle;fontFamily=Helvetica;fontSize=12;fontColor=default;fillColor=default;rotation=90;" parent="XcMSc3Dv5Vf1WdrxYV2J-274" vertex="1">
          <mxGeometry x="70" y="70" width="20" height="20" as="geometry" />
        </mxCell>
        <mxCell id="XcMSc3Dv5Vf1WdrxYV2J-286" value="" style="endArrow=classic;html=1;rounded=0;fontFamily=Helvetica;fontSize=12;fontColor=default;exitX=0;exitY=0;exitDx=0;exitDy=0;entryX=1;entryY=1;entryDx=0;entryDy=0;" parent="1" source="XcMSc3Dv5Vf1WdrxYV2J-280" target="XcMSc3Dv5Vf1WdrxYV2J-206" edge="1">
          <mxGeometry width="50" height="50" relative="1" as="geometry">
            <mxPoint x="455" y="2400" as="sourcePoint" />
            <mxPoint x="505" y="2350" as="targetPoint" />
            <Array as="points">
              <mxPoint x="540" y="2400" />
            </Array>
          </mxGeometry>
        </mxCell>
        <mxCell id="XcMSc3Dv5Vf1WdrxYV2J-287" value="端口空闲指示码&lt;br&gt;&lt;span style=&quot;font-weight: normal;&quot;&gt;&lt;font style=&quot;font-size: 11px;&quot;&gt;(各队列是否有数据)&lt;/font&gt;&lt;/span&gt;" style="rounded=1;whiteSpace=wrap;html=1;strokeColor=none;strokeWidth=1;align=center;verticalAlign=middle;fontFamily=Helvetica;fontSize=12;fontColor=default;fillColor=none;fontStyle=1" parent="1" vertex="1">
          <mxGeometry x="290" y="2490" width="110" height="40" as="geometry" />
        </mxCell>
        <mxCell id="XcMSc3Dv5Vf1WdrxYV2J-290" value="" style="rounded=0;whiteSpace=wrap;html=1;strokeColor=default;strokeWidth=1;align=center;verticalAlign=middle;fontFamily=Helvetica;fontSize=12;fontColor=default;fillColor=default;" parent="1" vertex="1">
          <mxGeometry x="880" y="2260" width="20" height="220" as="geometry" />
        </mxCell>
        <mxCell id="XcMSc3Dv5Vf1WdrxYV2J-292" value="" style="rounded=0;whiteSpace=wrap;html=1;strokeColor=default;strokeWidth=1;align=center;verticalAlign=middle;fontFamily=Helvetica;fontSize=12;fontColor=default;fillColor=#FF8000;" parent="1" vertex="1">
          <mxGeometry x="880" y="2350" width="20" height="20" as="geometry" />
        </mxCell>
        <mxCell id="XcMSc3Dv5Vf1WdrxYV2J-296" value="" style="rounded=0;whiteSpace=wrap;html=1;strokeColor=default;strokeWidth=1;align=center;verticalAlign=middle;fontFamily=Helvetica;fontSize=12;fontColor=default;fillColor=default;" parent="1" vertex="1">
          <mxGeometry x="880" y="2260" width="20" height="20" as="geometry" />
        </mxCell>
        <mxCell id="XcMSc3Dv5Vf1WdrxYV2J-297" value="" style="rounded=0;whiteSpace=wrap;html=1;strokeColor=default;strokeWidth=1;align=center;verticalAlign=middle;fontFamily=Helvetica;fontSize=12;fontColor=default;fillColor=default;" parent="1" vertex="1">
          <mxGeometry x="880" y="2280" width="20" height="20" as="geometry" />
        </mxCell>
        <mxCell id="XcMSc3Dv5Vf1WdrxYV2J-298" value="..." style="rounded=0;whiteSpace=wrap;html=1;strokeColor=default;strokeWidth=1;align=center;verticalAlign=middle;fontFamily=Helvetica;fontSize=12;fontColor=default;fillColor=default;" parent="1" vertex="1">
          <mxGeometry x="880" y="2300" width="20" height="50" as="geometry" />
        </mxCell>
        <mxCell id="XcMSc3Dv5Vf1WdrxYV2J-299" value="..." style="rounded=0;whiteSpace=wrap;html=1;strokeColor=default;strokeWidth=1;align=center;verticalAlign=middle;fontFamily=Helvetica;fontSize=12;fontColor=default;fillColor=default;" parent="1" vertex="1">
          <mxGeometry x="880" y="2370" width="20" height="90" as="geometry" />
        </mxCell>
        <mxCell id="XcMSc3Dv5Vf1WdrxYV2J-300" value="" style="rounded=0;whiteSpace=wrap;html=1;strokeColor=default;strokeWidth=1;align=center;verticalAlign=middle;fontFamily=Helvetica;fontSize=12;fontColor=default;fillColor=default;" parent="1" vertex="1">
          <mxGeometry x="880" y="2460" width="20" height="20" as="geometry" />
        </mxCell>
        <mxCell id="XcMSc3Dv5Vf1WdrxYV2J-301" value="Port #0" style="rounded=0;whiteSpace=wrap;html=1;strokeColor=none;strokeWidth=1;align=left;verticalAlign=middle;fontFamily=Helvetica;fontSize=12;fontColor=default;fillColor=none;" parent="1" vertex="1">
          <mxGeometry x="910" y="2260" width="50" height="20" as="geometry" />
        </mxCell>
        <mxCell id="XcMSc3Dv5Vf1WdrxYV2J-302" value="Port #1" style="rounded=0;whiteSpace=wrap;html=1;strokeColor=none;strokeWidth=1;align=left;verticalAlign=middle;fontFamily=Helvetica;fontSize=12;fontColor=default;fillColor=none;" parent="1" vertex="1">
          <mxGeometry x="910" y="2280" width="50" height="20" as="geometry" />
        </mxCell>
        <mxCell id="XcMSc3Dv5Vf1WdrxYV2J-303" value="Port #N" style="rounded=0;whiteSpace=wrap;html=1;strokeColor=none;strokeWidth=1;align=left;verticalAlign=middle;fontFamily=Helvetica;fontSize=12;fontColor=default;fillColor=none;" parent="1" vertex="1">
          <mxGeometry x="910" y="2350" width="50" height="20" as="geometry" />
        </mxCell>
        <mxCell id="XcMSc3Dv5Vf1WdrxYV2J-304" value="Port #16" style="rounded=0;whiteSpace=wrap;html=1;strokeColor=none;strokeWidth=1;align=center;verticalAlign=middle;fontFamily=Helvetica;fontSize=12;fontColor=default;fillColor=none;" parent="1" vertex="1">
          <mxGeometry x="910" y="2460" width="50" height="20" as="geometry" />
        </mxCell>
        <mxCell id="XcMSc3Dv5Vf1WdrxYV2J-305" value="SRAM请求指示码&lt;br&gt;&lt;span style=&quot;font-weight: normal;&quot;&gt;&lt;font style=&quot;font-size: 11px;&quot;&gt;(各端口是否正在请求)&lt;/font&gt;&lt;/span&gt;" style="rounded=1;whiteSpace=wrap;html=1;strokeColor=none;strokeWidth=1;align=center;verticalAlign=middle;fontFamily=Helvetica;fontSize=12;fontColor=default;fillColor=none;fontStyle=1" parent="1" vertex="1">
          <mxGeometry x="835" y="2490" width="110" height="40" as="geometry" />
        </mxCell>
        <mxCell id="XcMSc3Dv5Vf1WdrxYV2J-306" value="通过AND运算&lt;br&gt;得到WRR调度&lt;br&gt;当前回合可轮询位置" style="rounded=0;whiteSpace=wrap;html=1;strokeColor=none;strokeWidth=1;align=left;verticalAlign=middle;fontFamily=Helvetica;fontSize=12;fontColor=default;fillColor=none;fontStyle=1" parent="1" vertex="1">
          <mxGeometry x="580" y="2330" width="120" height="60" as="geometry" />
        </mxCell>
        <mxCell id="XcMSc3Dv5Vf1WdrxYV2J-378" value="" style="group" parent="1" vertex="1" connectable="0">
          <mxGeometry x="290" y="2600" width="670" height="290" as="geometry" />
        </mxCell>
        <mxCell id="XcMSc3Dv5Vf1WdrxYV2J-308" value="" style="group" parent="XcMSc3Dv5Vf1WdrxYV2J-378" vertex="1" connectable="0">
          <mxGeometry x="90" width="470" height="60" as="geometry" />
        </mxCell>
        <mxCell id="XcMSc3Dv5Vf1WdrxYV2J-309" value="" style="group" parent="XcMSc3Dv5Vf1WdrxYV2J-308" vertex="1" connectable="0">
          <mxGeometry x="80" y="40" width="160" height="20" as="geometry" />
        </mxCell>
        <mxCell id="XcMSc3Dv5Vf1WdrxYV2J-310" value="" style="rounded=0;whiteSpace=wrap;html=1;strokeColor=default;strokeWidth=1;align=center;verticalAlign=middle;fontFamily=Helvetica;fontSize=12;fontColor=default;fillColor=default;" parent="XcMSc3Dv5Vf1WdrxYV2J-309" vertex="1">
          <mxGeometry width="160" height="20" as="geometry" />
        </mxCell>
        <mxCell id="XcMSc3Dv5Vf1WdrxYV2J-311" value="" style="rounded=0;whiteSpace=wrap;html=1;strokeColor=default;strokeWidth=1;align=center;verticalAlign=middle;fontFamily=Helvetica;fontSize=12;fontColor=default;fillColor=#FF3333;" parent="XcMSc3Dv5Vf1WdrxYV2J-309" vertex="1">
          <mxGeometry width="20" height="20" as="geometry" />
        </mxCell>
        <mxCell id="XcMSc3Dv5Vf1WdrxYV2J-312" value="" style="rounded=0;whiteSpace=wrap;html=1;strokeColor=default;strokeWidth=1;align=center;verticalAlign=middle;fontFamily=Helvetica;fontSize=12;fontColor=default;fillColor=#FFFFFF;" parent="XcMSc3Dv5Vf1WdrxYV2J-309" vertex="1">
          <mxGeometry x="20" width="20" height="20" as="geometry" />
        </mxCell>
        <mxCell id="XcMSc3Dv5Vf1WdrxYV2J-313" value="" style="rounded=0;whiteSpace=wrap;html=1;strokeColor=default;strokeWidth=1;align=center;verticalAlign=middle;fontFamily=Helvetica;fontSize=12;fontColor=default;fillColor=default;" parent="XcMSc3Dv5Vf1WdrxYV2J-309" vertex="1">
          <mxGeometry x="40" width="20" height="20" as="geometry" />
        </mxCell>
        <mxCell id="XcMSc3Dv5Vf1WdrxYV2J-314" value="" style="rounded=0;whiteSpace=wrap;html=1;strokeColor=default;strokeWidth=1;align=center;verticalAlign=middle;fontFamily=Helvetica;fontSize=12;fontColor=default;fillColor=#FFFFFF;" parent="XcMSc3Dv5Vf1WdrxYV2J-309" vertex="1">
          <mxGeometry x="60" width="20" height="20" as="geometry" />
        </mxCell>
        <mxCell id="XcMSc3Dv5Vf1WdrxYV2J-315" value="" style="rounded=0;whiteSpace=wrap;html=1;strokeColor=default;strokeWidth=1;align=center;verticalAlign=middle;fontFamily=Helvetica;fontSize=12;fontColor=default;fillColor=default;" parent="XcMSc3Dv5Vf1WdrxYV2J-309" vertex="1">
          <mxGeometry x="80" width="20" height="20" as="geometry" />
        </mxCell>
        <mxCell id="XcMSc3Dv5Vf1WdrxYV2J-316" value="" style="rounded=0;whiteSpace=wrap;html=1;strokeColor=default;strokeWidth=1;align=center;verticalAlign=middle;fontFamily=Helvetica;fontSize=12;fontColor=default;fillColor=default;" parent="XcMSc3Dv5Vf1WdrxYV2J-309" vertex="1">
          <mxGeometry x="100" width="20" height="20" as="geometry" />
        </mxCell>
        <mxCell id="XcMSc3Dv5Vf1WdrxYV2J-317" value="" style="rounded=0;whiteSpace=wrap;html=1;strokeColor=default;strokeWidth=1;align=center;verticalAlign=middle;fontFamily=Helvetica;fontSize=12;fontColor=default;fillColor=#FF3333;" parent="XcMSc3Dv5Vf1WdrxYV2J-309" vertex="1">
          <mxGeometry x="120" width="20" height="20" as="geometry" />
        </mxCell>
        <mxCell id="XcMSc3Dv5Vf1WdrxYV2J-318" value="" style="rounded=0;whiteSpace=wrap;html=1;strokeColor=default;strokeWidth=1;align=center;verticalAlign=middle;fontFamily=Helvetica;fontSize=12;fontColor=default;fillColor=default;" parent="XcMSc3Dv5Vf1WdrxYV2J-309" vertex="1">
          <mxGeometry x="140" width="20" height="20" as="geometry" />
        </mxCell>
        <mxCell id="XcMSc3Dv5Vf1WdrxYV2J-319" value="01111000" style="rounded=1;whiteSpace=wrap;html=1;shadow=0;labelBackgroundColor=none;strokeWidth=1;fontFamily=Verdana;fontSize=8;align=center;fontStyle=1" parent="XcMSc3Dv5Vf1WdrxYV2J-308" vertex="1">
          <mxGeometry width="60" height="20" as="geometry" />
        </mxCell>
        <mxCell id="XcMSc3Dv5Vf1WdrxYV2J-320" value="" style="group" parent="XcMSc3Dv5Vf1WdrxYV2J-308" vertex="1" connectable="0">
          <mxGeometry x="80" width="160" height="20" as="geometry" />
        </mxCell>
        <mxCell id="XcMSc3Dv5Vf1WdrxYV2J-321" value="" style="rounded=0;whiteSpace=wrap;html=1;strokeColor=default;strokeWidth=1;align=center;verticalAlign=middle;fontFamily=Helvetica;fontSize=12;fontColor=default;fillColor=default;" parent="XcMSc3Dv5Vf1WdrxYV2J-320" vertex="1">
          <mxGeometry width="160" height="20" as="geometry" />
        </mxCell>
        <mxCell id="XcMSc3Dv5Vf1WdrxYV2J-322" value="" style="rounded=0;whiteSpace=wrap;html=1;strokeColor=default;strokeWidth=1;align=center;verticalAlign=middle;fontFamily=Helvetica;fontSize=12;fontColor=default;fillColor=#000000;" parent="XcMSc3Dv5Vf1WdrxYV2J-320" vertex="1">
          <mxGeometry width="20" height="20" as="geometry" />
        </mxCell>
        <mxCell id="XcMSc3Dv5Vf1WdrxYV2J-323" value="" style="rounded=0;whiteSpace=wrap;html=1;strokeColor=default;strokeWidth=1;align=center;verticalAlign=middle;fontFamily=Helvetica;fontSize=12;fontColor=default;fillColor=default;" parent="XcMSc3Dv5Vf1WdrxYV2J-320" vertex="1">
          <mxGeometry x="20" width="20" height="20" as="geometry" />
        </mxCell>
        <mxCell id="XcMSc3Dv5Vf1WdrxYV2J-324" value="" style="rounded=0;whiteSpace=wrap;html=1;strokeColor=default;strokeWidth=1;align=center;verticalAlign=middle;fontFamily=Helvetica;fontSize=12;fontColor=default;fillColor=default;" parent="XcMSc3Dv5Vf1WdrxYV2J-320" vertex="1">
          <mxGeometry x="40" width="20" height="20" as="geometry" />
        </mxCell>
        <mxCell id="XcMSc3Dv5Vf1WdrxYV2J-325" value="" style="rounded=0;whiteSpace=wrap;html=1;strokeColor=default;strokeWidth=1;align=center;verticalAlign=middle;fontFamily=Helvetica;fontSize=12;fontColor=default;fillColor=default;" parent="XcMSc3Dv5Vf1WdrxYV2J-320" vertex="1">
          <mxGeometry x="60" width="20" height="20" as="geometry" />
        </mxCell>
        <mxCell id="XcMSc3Dv5Vf1WdrxYV2J-326" value="" style="rounded=0;whiteSpace=wrap;html=1;strokeColor=default;strokeWidth=1;align=center;verticalAlign=middle;fontFamily=Helvetica;fontSize=12;fontColor=default;fillColor=default;" parent="XcMSc3Dv5Vf1WdrxYV2J-320" vertex="1">
          <mxGeometry x="80" width="20" height="20" as="geometry" />
        </mxCell>
        <mxCell id="XcMSc3Dv5Vf1WdrxYV2J-327" value="" style="rounded=0;whiteSpace=wrap;html=1;strokeColor=default;strokeWidth=1;align=center;verticalAlign=middle;fontFamily=Helvetica;fontSize=12;fontColor=default;fillColor=#000000;" parent="XcMSc3Dv5Vf1WdrxYV2J-320" vertex="1">
          <mxGeometry x="100" width="20" height="20" as="geometry" />
        </mxCell>
        <mxCell id="XcMSc3Dv5Vf1WdrxYV2J-328" value="" style="rounded=0;whiteSpace=wrap;html=1;strokeColor=default;strokeWidth=1;align=center;verticalAlign=middle;fontFamily=Helvetica;fontSize=12;fontColor=default;fillColor=#000000;" parent="XcMSc3Dv5Vf1WdrxYV2J-320" vertex="1">
          <mxGeometry x="120" width="20" height="20" as="geometry" />
        </mxCell>
        <mxCell id="XcMSc3Dv5Vf1WdrxYV2J-329" value="" style="rounded=0;whiteSpace=wrap;html=1;strokeColor=default;strokeWidth=1;align=center;verticalAlign=middle;fontFamily=Helvetica;fontSize=12;fontColor=default;fillColor=#000000;" parent="XcMSc3Dv5Vf1WdrxYV2J-320" vertex="1">
          <mxGeometry x="140" width="20" height="20" as="geometry" />
        </mxCell>
        <mxCell id="XcMSc3Dv5Vf1WdrxYV2J-330" value="AND" style="shape=or;whiteSpace=wrap;html=1;strokeColor=default;strokeWidth=1;align=center;verticalAlign=middle;fontFamily=Helvetica;fontSize=12;fontColor=default;fillColor=default;" parent="XcMSc3Dv5Vf1WdrxYV2J-308" vertex="1">
          <mxGeometry x="250" width="50" height="60" as="geometry" />
        </mxCell>
        <mxCell id="XcMSc3Dv5Vf1WdrxYV2J-331" value="" style="group" parent="XcMSc3Dv5Vf1WdrxYV2J-308" vertex="1" connectable="0">
          <mxGeometry x="310" y="20" width="160" height="40" as="geometry" />
        </mxCell>
        <mxCell id="XcMSc3Dv5Vf1WdrxYV2J-332" value="" style="rounded=0;whiteSpace=wrap;html=1;strokeColor=default;strokeWidth=1;align=center;verticalAlign=middle;fontFamily=Helvetica;fontSize=12;fontColor=default;fillColor=default;" parent="XcMSc3Dv5Vf1WdrxYV2J-331" vertex="1">
          <mxGeometry width="160" height="20" as="geometry" />
        </mxCell>
        <mxCell id="XcMSc3Dv5Vf1WdrxYV2J-333" value="" style="rounded=0;whiteSpace=wrap;html=1;strokeColor=#000000;strokeWidth=1;align=center;verticalAlign=middle;fontFamily=Helvetica;fontSize=12;fontColor=default;fillColor=#000000;" parent="XcMSc3Dv5Vf1WdrxYV2J-331" vertex="1">
          <mxGeometry width="20" height="20" as="geometry" />
        </mxCell>
        <mxCell id="XcMSc3Dv5Vf1WdrxYV2J-334" value="" style="rounded=0;whiteSpace=wrap;html=1;strokeColor=default;strokeWidth=1;align=center;verticalAlign=middle;fontFamily=Helvetica;fontSize=12;fontColor=default;fillColor=#FFFFFF;" parent="XcMSc3Dv5Vf1WdrxYV2J-331" vertex="1">
          <mxGeometry x="20" width="20" height="20" as="geometry" />
        </mxCell>
        <mxCell id="XcMSc3Dv5Vf1WdrxYV2J-335" value="" style="rounded=0;whiteSpace=wrap;html=1;strokeColor=default;strokeWidth=1;align=center;verticalAlign=middle;fontFamily=Helvetica;fontSize=12;fontColor=default;fillColor=none;" parent="XcMSc3Dv5Vf1WdrxYV2J-331" vertex="1">
          <mxGeometry x="40" width="20" height="20" as="geometry" />
        </mxCell>
        <mxCell id="XcMSc3Dv5Vf1WdrxYV2J-336" value="" style="rounded=0;whiteSpace=wrap;html=1;strokeColor=default;strokeWidth=1;align=center;verticalAlign=middle;fontFamily=Helvetica;fontSize=12;fontColor=default;fillColor=#FFFFFF;" parent="XcMSc3Dv5Vf1WdrxYV2J-331" vertex="1">
          <mxGeometry x="60" width="20" height="20" as="geometry" />
        </mxCell>
        <mxCell id="XcMSc3Dv5Vf1WdrxYV2J-337" value="" style="rounded=0;whiteSpace=wrap;html=1;strokeColor=#000000;strokeWidth=1;align=center;verticalAlign=middle;fontFamily=Helvetica;fontSize=12;fontColor=default;fillColor=#000000;" parent="XcMSc3Dv5Vf1WdrxYV2J-331" vertex="1">
          <mxGeometry x="80" width="20" height="20" as="geometry" />
        </mxCell>
        <mxCell id="XcMSc3Dv5Vf1WdrxYV2J-338" value="" style="rounded=0;whiteSpace=wrap;html=1;strokeColor=#000000;strokeWidth=1;align=center;verticalAlign=middle;fontFamily=Helvetica;fontSize=12;fontColor=default;fillColor=#000000;" parent="XcMSc3Dv5Vf1WdrxYV2J-331" vertex="1">
          <mxGeometry x="100" width="20" height="20" as="geometry" />
        </mxCell>
        <mxCell id="XcMSc3Dv5Vf1WdrxYV2J-339" value="" style="rounded=0;whiteSpace=wrap;html=1;strokeColor=#000000;strokeWidth=1;align=center;verticalAlign=middle;fontFamily=Helvetica;fontSize=12;fontColor=default;fillColor=#000000;" parent="XcMSc3Dv5Vf1WdrxYV2J-331" vertex="1">
          <mxGeometry x="120" width="20" height="20" as="geometry" />
        </mxCell>
        <mxCell id="XcMSc3Dv5Vf1WdrxYV2J-340" value="" style="rounded=0;whiteSpace=wrap;html=1;strokeColor=#000000;strokeWidth=1;align=center;verticalAlign=middle;fontFamily=Helvetica;fontSize=12;fontColor=default;fillColor=#000000;" parent="XcMSc3Dv5Vf1WdrxYV2J-331" vertex="1">
          <mxGeometry x="140" width="20" height="20" as="geometry" />
        </mxCell>
        <mxCell id="XcMSc3Dv5Vf1WdrxYV2J-396" value="10000010" style="rounded=1;whiteSpace=wrap;html=1;shadow=0;labelBackgroundColor=none;strokeWidth=1;fontFamily=Verdana;fontSize=8;align=center;fontStyle=1" parent="XcMSc3Dv5Vf1WdrxYV2J-308" vertex="1">
          <mxGeometry y="40" width="60" height="20" as="geometry" />
        </mxCell>
        <mxCell id="XcMSc3Dv5Vf1WdrxYV2J-343" value="" style="group" parent="XcMSc3Dv5Vf1WdrxYV2J-378" vertex="1" connectable="0">
          <mxGeometry y="80" width="110" height="160" as="geometry" />
        </mxCell>
        <mxCell id="XcMSc3Dv5Vf1WdrxYV2J-344" value="" style="rounded=0;whiteSpace=wrap;html=1;strokeColor=default;strokeWidth=1;align=center;verticalAlign=middle;fontFamily=Helvetica;fontSize=12;fontColor=default;fillColor=default;rotation=90;" parent="XcMSc3Dv5Vf1WdrxYV2J-343" vertex="1">
          <mxGeometry x="-25" y="25" width="160" height="110" as="geometry" />
        </mxCell>
        <mxCell id="XcMSc3Dv5Vf1WdrxYV2J-345" value="~queue_0_empty" style="rounded=0;whiteSpace=wrap;html=1;strokeColor=default;strokeWidth=1;align=center;verticalAlign=middle;fontFamily=Helvetica;fontSize=10;fontColor=default;fillColor=default;" parent="XcMSc3Dv5Vf1WdrxYV2J-343" vertex="1">
          <mxGeometry width="110" height="20" as="geometry" />
        </mxCell>
        <mxCell id="XcMSc3Dv5Vf1WdrxYV2J-346" value="&lt;span style=&quot;font-size: 10px;&quot;&gt;~queue_1_empty&lt;/span&gt;" style="rounded=0;whiteSpace=wrap;html=1;strokeColor=default;strokeWidth=1;align=center;verticalAlign=middle;fontFamily=Helvetica;fontSize=12;fontColor=default;fillColor=default;" parent="XcMSc3Dv5Vf1WdrxYV2J-343" vertex="1">
          <mxGeometry y="20" width="110" height="20" as="geometry" />
        </mxCell>
        <mxCell id="XcMSc3Dv5Vf1WdrxYV2J-347" value="&lt;span style=&quot;font-size: 10px;&quot;&gt;~queue_2_empty&lt;/span&gt;" style="rounded=0;whiteSpace=wrap;html=1;strokeColor=default;strokeWidth=1;align=center;verticalAlign=middle;fontFamily=Helvetica;fontSize=12;fontColor=default;fillColor=default;" parent="XcMSc3Dv5Vf1WdrxYV2J-343" vertex="1">
          <mxGeometry y="40" width="110" height="20" as="geometry" />
        </mxCell>
        <mxCell id="XcMSc3Dv5Vf1WdrxYV2J-348" value="&lt;span style=&quot;font-size: 10px;&quot;&gt;~queue_3_empty&lt;/span&gt;" style="rounded=0;whiteSpace=wrap;html=1;strokeColor=default;strokeWidth=1;align=center;verticalAlign=middle;fontFamily=Helvetica;fontSize=12;fontColor=default;fillColor=default;" parent="XcMSc3Dv5Vf1WdrxYV2J-343" vertex="1">
          <mxGeometry y="60" width="110" height="20" as="geometry" />
        </mxCell>
        <mxCell id="XcMSc3Dv5Vf1WdrxYV2J-349" value="&lt;span style=&quot;font-size: 10px;&quot;&gt;~queue_4_empty&lt;/span&gt;" style="rounded=0;whiteSpace=wrap;html=1;strokeColor=default;strokeWidth=1;align=center;verticalAlign=middle;fontFamily=Helvetica;fontSize=12;fontColor=default;fillColor=default;" parent="XcMSc3Dv5Vf1WdrxYV2J-343" vertex="1">
          <mxGeometry y="80" width="110" height="20" as="geometry" />
        </mxCell>
        <mxCell id="XcMSc3Dv5Vf1WdrxYV2J-350" value="&lt;span style=&quot;font-size: 10px;&quot;&gt;~queue_5_empty&lt;/span&gt;" style="rounded=0;whiteSpace=wrap;html=1;strokeColor=default;strokeWidth=1;align=center;verticalAlign=middle;fontFamily=Helvetica;fontSize=12;fontColor=default;fillColor=default;" parent="XcMSc3Dv5Vf1WdrxYV2J-343" vertex="1">
          <mxGeometry y="100" width="110" height="20" as="geometry" />
        </mxCell>
        <mxCell id="XcMSc3Dv5Vf1WdrxYV2J-351" value="&lt;span style=&quot;font-size: 10px;&quot;&gt;~queue_6_empty&lt;/span&gt;" style="rounded=0;whiteSpace=wrap;html=1;strokeColor=default;strokeWidth=1;align=center;verticalAlign=middle;fontFamily=Helvetica;fontSize=12;fontColor=default;fillColor=default;" parent="XcMSc3Dv5Vf1WdrxYV2J-343" vertex="1">
          <mxGeometry y="120" width="110" height="20" as="geometry" />
        </mxCell>
        <mxCell id="XcMSc3Dv5Vf1WdrxYV2J-352" value="&lt;span style=&quot;font-size: 10px;&quot;&gt;~queue_7_empty&lt;/span&gt;" style="rounded=0;whiteSpace=wrap;html=1;strokeColor=default;strokeWidth=1;align=center;verticalAlign=middle;fontFamily=Helvetica;fontSize=12;fontColor=default;fillColor=default;" parent="XcMSc3Dv5Vf1WdrxYV2J-343" vertex="1">
          <mxGeometry y="140" width="110" height="20" as="geometry" />
        </mxCell>
        <mxCell id="XcMSc3Dv5Vf1WdrxYV2J-353" value="" style="group;rotation=90;" parent="XcMSc3Dv5Vf1WdrxYV2J-378" vertex="1" connectable="0">
          <mxGeometry x="60" y="150" width="160" height="20" as="geometry" />
        </mxCell>
        <mxCell id="XcMSc3Dv5Vf1WdrxYV2J-354" value="" style="rounded=0;whiteSpace=wrap;html=1;strokeColor=default;strokeWidth=1;align=center;verticalAlign=middle;fontFamily=Helvetica;fontSize=12;fontColor=default;fillColor=default;rotation=90;" parent="XcMSc3Dv5Vf1WdrxYV2J-353" vertex="1">
          <mxGeometry width="160" height="20" as="geometry" />
        </mxCell>
        <mxCell id="XcMSc3Dv5Vf1WdrxYV2J-355" value="" style="rounded=0;whiteSpace=wrap;html=1;strokeColor=default;strokeWidth=1;align=center;verticalAlign=middle;fontFamily=Helvetica;fontSize=12;fontColor=default;fillColor=#FF3333;rotation=90;" parent="XcMSc3Dv5Vf1WdrxYV2J-353" vertex="1">
          <mxGeometry x="70" y="-70" width="20" height="20" as="geometry" />
        </mxCell>
        <mxCell id="XcMSc3Dv5Vf1WdrxYV2J-356" value="" style="rounded=0;whiteSpace=wrap;html=1;strokeColor=default;strokeWidth=1;align=center;verticalAlign=middle;fontFamily=Helvetica;fontSize=12;fontColor=default;fillColor=#FFFFFF;rotation=90;" parent="XcMSc3Dv5Vf1WdrxYV2J-353" vertex="1">
          <mxGeometry x="70" y="-50" width="20" height="20" as="geometry" />
        </mxCell>
        <mxCell id="XcMSc3Dv5Vf1WdrxYV2J-357" value="" style="rounded=0;whiteSpace=wrap;html=1;strokeColor=default;strokeWidth=1;align=center;verticalAlign=middle;fontFamily=Helvetica;fontSize=12;fontColor=default;fillColor=default;rotation=90;" parent="XcMSc3Dv5Vf1WdrxYV2J-353" vertex="1">
          <mxGeometry x="70" y="-30" width="20" height="20" as="geometry" />
        </mxCell>
        <mxCell id="XcMSc3Dv5Vf1WdrxYV2J-358" value="" style="rounded=0;whiteSpace=wrap;html=1;strokeColor=default;strokeWidth=1;align=center;verticalAlign=middle;fontFamily=Helvetica;fontSize=12;fontColor=default;fillColor=#FFFFFF;rotation=90;" parent="XcMSc3Dv5Vf1WdrxYV2J-353" vertex="1">
          <mxGeometry x="70" y="-10" width="20" height="20" as="geometry" />
        </mxCell>
        <mxCell id="XcMSc3Dv5Vf1WdrxYV2J-359" value="" style="rounded=0;whiteSpace=wrap;html=1;strokeColor=default;strokeWidth=1;align=center;verticalAlign=middle;fontFamily=Helvetica;fontSize=12;fontColor=default;fillColor=default;rotation=90;" parent="XcMSc3Dv5Vf1WdrxYV2J-353" vertex="1">
          <mxGeometry x="70" y="10" width="20" height="20" as="geometry" />
        </mxCell>
        <mxCell id="XcMSc3Dv5Vf1WdrxYV2J-360" value="" style="rounded=0;whiteSpace=wrap;html=1;strokeColor=default;strokeWidth=1;align=center;verticalAlign=middle;fontFamily=Helvetica;fontSize=12;fontColor=default;fillColor=default;rotation=90;" parent="XcMSc3Dv5Vf1WdrxYV2J-353" vertex="1">
          <mxGeometry x="70" y="30" width="20" height="20" as="geometry" />
        </mxCell>
        <mxCell id="XcMSc3Dv5Vf1WdrxYV2J-361" value="" style="rounded=0;whiteSpace=wrap;html=1;strokeColor=default;strokeWidth=1;align=center;verticalAlign=middle;fontFamily=Helvetica;fontSize=12;fontColor=default;fillColor=#FF3333;rotation=90;" parent="XcMSc3Dv5Vf1WdrxYV2J-353" vertex="1">
          <mxGeometry x="70" y="50" width="20" height="20" as="geometry" />
        </mxCell>
        <mxCell id="XcMSc3Dv5Vf1WdrxYV2J-362" value="" style="rounded=0;whiteSpace=wrap;html=1;strokeColor=default;strokeWidth=1;align=center;verticalAlign=middle;fontFamily=Helvetica;fontSize=12;fontColor=default;fillColor=default;rotation=90;" parent="XcMSc3Dv5Vf1WdrxYV2J-353" vertex="1">
          <mxGeometry x="70" y="70" width="20" height="20" as="geometry" />
        </mxCell>
        <mxCell id="XcMSc3Dv5Vf1WdrxYV2J-363" value="" style="endArrow=classic;html=1;rounded=0;fontFamily=Helvetica;fontSize=12;fontColor=default;exitX=0;exitY=0;exitDx=0;exitDy=0;entryX=1;entryY=1;entryDx=0;entryDy=0;" parent="XcMSc3Dv5Vf1WdrxYV2J-378" source="XcMSc3Dv5Vf1WdrxYV2J-359" target="XcMSc3Dv5Vf1WdrxYV2J-314" edge="1">
          <mxGeometry width="50" height="50" relative="1" as="geometry">
            <mxPoint x="165" y="160" as="sourcePoint" />
            <mxPoint x="215" y="110" as="targetPoint" />
            <Array as="points">
              <mxPoint x="250" y="160" />
            </Array>
          </mxGeometry>
        </mxCell>
        <mxCell id="XcMSc3Dv5Vf1WdrxYV2J-364" value="端口空闲指示码&lt;br&gt;&lt;span style=&quot;font-weight: normal;&quot;&gt;&lt;font style=&quot;font-size: 11px;&quot;&gt;(各队列是否有数据)&lt;/font&gt;&lt;/span&gt;" style="rounded=1;whiteSpace=wrap;html=1;strokeColor=none;strokeWidth=1;align=center;verticalAlign=middle;fontFamily=Helvetica;fontSize=12;fontColor=default;fillColor=none;fontStyle=1" parent="XcMSc3Dv5Vf1WdrxYV2J-378" vertex="1">
          <mxGeometry y="250" width="110" height="40" as="geometry" />
        </mxCell>
        <mxCell id="XcMSc3Dv5Vf1WdrxYV2J-365" value="" style="rounded=0;whiteSpace=wrap;html=1;strokeColor=default;strokeWidth=1;align=center;verticalAlign=middle;fontFamily=Helvetica;fontSize=12;fontColor=default;fillColor=default;" parent="XcMSc3Dv5Vf1WdrxYV2J-378" vertex="1">
          <mxGeometry x="590" y="20" width="20" height="220" as="geometry" />
        </mxCell>
        <mxCell id="XcMSc3Dv5Vf1WdrxYV2J-366" value="" style="rounded=0;whiteSpace=wrap;html=1;strokeColor=default;strokeWidth=1;align=center;verticalAlign=middle;fontFamily=Helvetica;fontSize=12;fontColor=default;fillColor=#FF8000;" parent="XcMSc3Dv5Vf1WdrxYV2J-378" vertex="1">
          <mxGeometry x="590" y="110" width="20" height="20" as="geometry" />
        </mxCell>
        <mxCell id="XcMSc3Dv5Vf1WdrxYV2J-367" value="" style="rounded=0;whiteSpace=wrap;html=1;strokeColor=default;strokeWidth=1;align=center;verticalAlign=middle;fontFamily=Helvetica;fontSize=12;fontColor=default;fillColor=default;" parent="XcMSc3Dv5Vf1WdrxYV2J-378" vertex="1">
          <mxGeometry x="590" y="20" width="20" height="20" as="geometry" />
        </mxCell>
        <mxCell id="XcMSc3Dv5Vf1WdrxYV2J-368" value="" style="rounded=0;whiteSpace=wrap;html=1;strokeColor=default;strokeWidth=1;align=center;verticalAlign=middle;fontFamily=Helvetica;fontSize=12;fontColor=default;fillColor=default;" parent="XcMSc3Dv5Vf1WdrxYV2J-378" vertex="1">
          <mxGeometry x="590" y="40" width="20" height="20" as="geometry" />
        </mxCell>
        <mxCell id="XcMSc3Dv5Vf1WdrxYV2J-369" value="..." style="rounded=0;whiteSpace=wrap;html=1;strokeColor=default;strokeWidth=1;align=center;verticalAlign=middle;fontFamily=Helvetica;fontSize=12;fontColor=default;fillColor=default;" parent="XcMSc3Dv5Vf1WdrxYV2J-378" vertex="1">
          <mxGeometry x="590" y="60" width="20" height="50" as="geometry" />
        </mxCell>
        <mxCell id="XcMSc3Dv5Vf1WdrxYV2J-370" value="..." style="rounded=0;whiteSpace=wrap;html=1;strokeColor=default;strokeWidth=1;align=center;verticalAlign=middle;fontFamily=Helvetica;fontSize=12;fontColor=default;fillColor=default;" parent="XcMSc3Dv5Vf1WdrxYV2J-378" vertex="1">
          <mxGeometry x="590" y="130" width="20" height="90" as="geometry" />
        </mxCell>
        <mxCell id="XcMSc3Dv5Vf1WdrxYV2J-371" value="" style="rounded=0;whiteSpace=wrap;html=1;strokeColor=default;strokeWidth=1;align=center;verticalAlign=middle;fontFamily=Helvetica;fontSize=12;fontColor=default;fillColor=default;" parent="XcMSc3Dv5Vf1WdrxYV2J-378" vertex="1">
          <mxGeometry x="590" y="220" width="20" height="20" as="geometry" />
        </mxCell>
        <mxCell id="XcMSc3Dv5Vf1WdrxYV2J-372" value="Port #0" style="rounded=0;whiteSpace=wrap;html=1;strokeColor=none;strokeWidth=1;align=left;verticalAlign=middle;fontFamily=Helvetica;fontSize=12;fontColor=default;fillColor=none;" parent="XcMSc3Dv5Vf1WdrxYV2J-378" vertex="1">
          <mxGeometry x="620" y="20" width="50" height="20" as="geometry" />
        </mxCell>
        <mxCell id="XcMSc3Dv5Vf1WdrxYV2J-373" value="Port #1" style="rounded=0;whiteSpace=wrap;html=1;strokeColor=none;strokeWidth=1;align=left;verticalAlign=middle;fontFamily=Helvetica;fontSize=12;fontColor=default;fillColor=none;" parent="XcMSc3Dv5Vf1WdrxYV2J-378" vertex="1">
          <mxGeometry x="620" y="40" width="50" height="20" as="geometry" />
        </mxCell>
        <mxCell id="XcMSc3Dv5Vf1WdrxYV2J-374" value="Port #N" style="rounded=0;whiteSpace=wrap;html=1;strokeColor=none;strokeWidth=1;align=left;verticalAlign=middle;fontFamily=Helvetica;fontSize=12;fontColor=default;fillColor=none;" parent="XcMSc3Dv5Vf1WdrxYV2J-378" vertex="1">
          <mxGeometry x="620" y="110" width="50" height="20" as="geometry" />
        </mxCell>
        <mxCell id="XcMSc3Dv5Vf1WdrxYV2J-375" value="Port #16" style="rounded=0;whiteSpace=wrap;html=1;strokeColor=none;strokeWidth=1;align=center;verticalAlign=middle;fontFamily=Helvetica;fontSize=12;fontColor=default;fillColor=none;" parent="XcMSc3Dv5Vf1WdrxYV2J-378" vertex="1">
          <mxGeometry x="620" y="220" width="50" height="20" as="geometry" />
        </mxCell>
        <mxCell id="XcMSc3Dv5Vf1WdrxYV2J-376" value="SRAM请求指示码&lt;br&gt;&lt;span style=&quot;font-weight: normal;&quot;&gt;&lt;font style=&quot;font-size: 11px;&quot;&gt;(各端口是否正在请求)&lt;/font&gt;&lt;/span&gt;" style="rounded=1;whiteSpace=wrap;html=1;strokeColor=none;strokeWidth=1;align=center;verticalAlign=middle;fontFamily=Helvetica;fontSize=12;fontColor=default;fillColor=none;fontStyle=1" parent="XcMSc3Dv5Vf1WdrxYV2J-378" vertex="1">
          <mxGeometry x="545" y="250" width="110" height="40" as="geometry" />
        </mxCell>
        <mxCell id="XcMSc3Dv5Vf1WdrxYV2J-377" value="若可读取队列数为0&lt;br&gt;则直接通过端口空闲指示码&lt;br&gt;获取应读取的队列" style="rounded=0;whiteSpace=wrap;html=1;strokeColor=none;strokeWidth=1;align=left;verticalAlign=middle;fontFamily=Helvetica;fontSize=12;fontColor=default;fillColor=none;fontStyle=1" parent="XcMSc3Dv5Vf1WdrxYV2J-378" vertex="1">
          <mxGeometry x="290" y="140" width="150" height="60" as="geometry" />
        </mxCell>
        <mxCell id="XcMSc3Dv5Vf1WdrxYV2J-383" value="" style="group" parent="XcMSc3Dv5Vf1WdrxYV2J-378" vertex="1" connectable="0">
          <mxGeometry x="400" y="70" width="160" height="20" as="geometry" />
        </mxCell>
        <mxCell id="XcMSc3Dv5Vf1WdrxYV2J-384" value="" style="rounded=0;whiteSpace=wrap;html=1;strokeColor=default;strokeWidth=1;align=center;verticalAlign=middle;fontFamily=Helvetica;fontSize=12;fontColor=default;fillColor=default;" parent="XcMSc3Dv5Vf1WdrxYV2J-383" vertex="1">
          <mxGeometry width="160" height="20" as="geometry" />
        </mxCell>
        <mxCell id="XcMSc3Dv5Vf1WdrxYV2J-385" value="" style="rounded=0;whiteSpace=wrap;html=1;strokeColor=default;strokeWidth=1;align=center;verticalAlign=middle;fontFamily=Helvetica;fontSize=12;fontColor=default;fillColor=#FF3333;" parent="XcMSc3Dv5Vf1WdrxYV2J-383" vertex="1">
          <mxGeometry width="20" height="20" as="geometry" />
        </mxCell>
        <mxCell id="XcMSc3Dv5Vf1WdrxYV2J-386" value="" style="rounded=0;whiteSpace=wrap;html=1;strokeColor=default;strokeWidth=1;align=center;verticalAlign=middle;fontFamily=Helvetica;fontSize=12;fontColor=default;fillColor=#FFFFFF;" parent="XcMSc3Dv5Vf1WdrxYV2J-383" vertex="1">
          <mxGeometry x="20" width="20" height="20" as="geometry" />
        </mxCell>
        <mxCell id="XcMSc3Dv5Vf1WdrxYV2J-387" value="" style="rounded=0;whiteSpace=wrap;html=1;strokeColor=default;strokeWidth=1;align=center;verticalAlign=middle;fontFamily=Helvetica;fontSize=12;fontColor=default;fillColor=default;" parent="XcMSc3Dv5Vf1WdrxYV2J-383" vertex="1">
          <mxGeometry x="40" width="20" height="20" as="geometry" />
        </mxCell>
        <mxCell id="XcMSc3Dv5Vf1WdrxYV2J-388" value="" style="rounded=0;whiteSpace=wrap;html=1;strokeColor=default;strokeWidth=1;align=center;verticalAlign=middle;fontFamily=Helvetica;fontSize=12;fontColor=default;fillColor=#FFFFFF;" parent="XcMSc3Dv5Vf1WdrxYV2J-383" vertex="1">
          <mxGeometry x="60" width="20" height="20" as="geometry" />
        </mxCell>
        <mxCell id="XcMSc3Dv5Vf1WdrxYV2J-389" value="" style="rounded=0;whiteSpace=wrap;html=1;strokeColor=default;strokeWidth=1;align=center;verticalAlign=middle;fontFamily=Helvetica;fontSize=12;fontColor=default;fillColor=default;" parent="XcMSc3Dv5Vf1WdrxYV2J-383" vertex="1">
          <mxGeometry x="80" width="20" height="20" as="geometry" />
        </mxCell>
        <mxCell id="XcMSc3Dv5Vf1WdrxYV2J-390" value="" style="rounded=0;whiteSpace=wrap;html=1;strokeColor=default;strokeWidth=1;align=center;verticalAlign=middle;fontFamily=Helvetica;fontSize=12;fontColor=default;fillColor=default;" parent="XcMSc3Dv5Vf1WdrxYV2J-383" vertex="1">
          <mxGeometry x="100" width="20" height="20" as="geometry" />
        </mxCell>
        <mxCell id="XcMSc3Dv5Vf1WdrxYV2J-391" value="" style="rounded=0;whiteSpace=wrap;html=1;strokeColor=default;strokeWidth=1;align=center;verticalAlign=middle;fontFamily=Helvetica;fontSize=12;fontColor=default;fillColor=#FF3333;" parent="XcMSc3Dv5Vf1WdrxYV2J-383" vertex="1">
          <mxGeometry x="120" width="20" height="20" as="geometry" />
        </mxCell>
        <mxCell id="XcMSc3Dv5Vf1WdrxYV2J-392" value="" style="rounded=0;whiteSpace=wrap;html=1;strokeColor=default;strokeWidth=1;align=center;verticalAlign=middle;fontFamily=Helvetica;fontSize=12;fontColor=default;fillColor=default;" parent="XcMSc3Dv5Vf1WdrxYV2J-383" vertex="1">
          <mxGeometry x="140" width="20" height="20" as="geometry" />
        </mxCell>
        <mxCell id="XcMSc3Dv5Vf1WdrxYV2J-393" style="edgeStyle=orthogonalEdgeStyle;rounded=0;orthogonalLoop=1;jettySize=auto;html=1;exitX=1;exitY=1;exitDx=0;exitDy=0;entryX=0;entryY=0.5;entryDx=0;entryDy=0;fontFamily=Helvetica;fontSize=12;fontColor=default;" parent="XcMSc3Dv5Vf1WdrxYV2J-378" source="XcMSc3Dv5Vf1WdrxYV2J-316" target="XcMSc3Dv5Vf1WdrxYV2J-385" edge="1">
          <mxGeometry relative="1" as="geometry" />
        </mxCell>
        <mxCell id="XcMSc3Dv5Vf1WdrxYV2J-395" value="" style="edgeStyle=orthogonalEdgeStyle;rounded=0;orthogonalLoop=1;jettySize=auto;html=1;exitX=0.75;exitY=1;exitDx=0;exitDy=0;entryX=0;entryY=0.5;entryDx=0;entryDy=0;fontFamily=Helvetica;fontSize=12;fontColor=default;" parent="XcMSc3Dv5Vf1WdrxYV2J-378" source="XcMSc3Dv5Vf1WdrxYV2J-394" target="XcMSc3Dv5Vf1WdrxYV2J-366" edge="1">
          <mxGeometry relative="1" as="geometry">
            <mxPoint x="410" y="150" as="sourcePoint" />
            <mxPoint x="570" y="210" as="targetPoint" />
            <Array as="points">
              <mxPoint x="410" y="120" />
            </Array>
          </mxGeometry>
        </mxCell>
        <mxCell id="XcMSc3Dv5Vf1WdrxYV2J-394" value="&lt;h2 class=&quot;&quot; style=&quot;box-sizing: border-box; padding: 1rem; margin: 0px; outline: 0px; font-weight: 700; line-height: 22px; font-size: 16px; border-bottom: 1px solid var(--bd_01); position: relative; color: rgb(63, 66, 87); font-family: -apple-system, BlinkMacSystemFont, &amp;quot;Segoe UI&amp;quot;, Roboto, &amp;quot;Helvetica Neue&amp;quot;, Arial, &amp;quot;Noto Sans&amp;quot;, sans-serif, &amp;quot;Apple Color Emoji&amp;quot;, &amp;quot;Segoe UI Emoji&amp;quot;, &amp;quot;Segoe UI Symbol&amp;quot;, &amp;quot;Noto Color Emoji&amp;quot;; font-style: normal; font-variant-ligatures: normal; font-variant-caps: normal; letter-spacing: normal; orphans: 2; text-align: start; text-indent: 0px; text-transform: none; widows: 2; word-spacing: 0px; -webkit-text-stroke-width: 0px; white-space: normal; text-decoration-thickness: initial; text-decoration-style: initial; text-decoration-color: initial;&quot;&gt;&lt;span class=&quot;emoji_font line&quot; style=&quot;box-sizing: border-box; padding: 0px; margin: 0px 2px 0px 0px; outline: 0px; display: inline-flex; font-style: normal; font-weight: 400; font-family: var(--font-emoji); direction: initial; align-items: center; justify-content: center; min-width: 1.5em;&quot;&gt;✅&lt;/span&gt;&lt;/h2&gt;" style="text;whiteSpace=wrap;html=1;fontFamily=Helvetica;fontSize=12;fontColor=default;" parent="XcMSc3Dv5Vf1WdrxYV2J-378" vertex="1">
          <mxGeometry x="380" y="70" width="40" height="40" as="geometry" />
        </mxCell>
        <mxCell id="XcMSc3Dv5Vf1WdrxYV2J-397" value="WRR位掩码" style="rounded=1;whiteSpace=wrap;html=1;shadow=0;labelBackgroundColor=none;strokeWidth=1;fontFamily=Verdana;fontSize=10;align=center;fontStyle=1;fillColor=none;strokeColor=none;" parent="XcMSc3Dv5Vf1WdrxYV2J-378" vertex="1">
          <mxGeometry x="10" width="60" height="20" as="geometry" />
        </mxCell>
        <mxCell id="XcMSc3Dv5Vf1WdrxYV2J-398" value="WRR位掩码" style="rounded=1;whiteSpace=wrap;html=1;shadow=0;labelBackgroundColor=none;strokeWidth=1;fontFamily=Verdana;fontSize=10;align=center;fontStyle=1;fillColor=none;strokeColor=none;" parent="1" vertex="1">
          <mxGeometry x="300" y="2240" width="60" height="20" as="geometry" />
        </mxCell>
      </root>
    </mxGraphModel>
  </diagram>
</mxfile>
